{
.appVersion = "1230";
DisplayStrings = (
"/perthousand"
);
copyright = "Copyright © 2019 by Abbie Gonzalez. All rights reserved.";
customParameters = (
{
name = panose;
value = (
0,
0,
5,
0,
0,
0,
0,
0,
0,
0
);
},
{
name = unicodeRanges;
value = (
0,
1,
2,
3,
4,
5,
6,
7,
9,
29,
30,
31,
32,
33,
36,
45
);
},
{
name = codePageRanges;
value = (
1252,
1250,
1251,
1253,
1254,
1257,
1258,
bit 29
);
},
{
name = blueScale;
value = 0.037;
},
{
name = blueShift;
value = 3;
}
);
date = "2019-08-22 11:19:42 +0000";
designer = "Abbie Gonzalez";
designerURL = "https://abbiecod.es";
familyName = OpenDyslexic;
fontMaster = (
{
alignmentZones = (
"{800, 16}",
"{700, 16}",
"{500, 16}",
"{0, -16}",
"{-200, -16}"
);
ascender = 800;
capHeight = 700;
customParameters = (
{
name = typoAscender;
value = 800;
},
{
name = typoDescender;
value = -200;
},
{
name = typoLineGap;
value = 200;
},
{
name = winAscent;
value = 1000;
},
{
name = winDescent;
value = 200;
},
{
name = hheaAscender;
value = 1000;
},
{
name = hheaDescender;
value = -200;
},
{
name = strikeoutPosition;
value = 300;
},
{
name = strikeoutSize;
value = 50;
}
);
descender = -200;
horizontalStems = (
49,
59,
67,
73,
91,
95,
101,
121,
133,
152,
156
);
id = "4FCB07EB-01E7-4D87-AA20-FCB2BF85BBFF";
verticalStems = (
41,
57,
70,
80,
88
);
weightValue = 400;
widthValue = 5;
xHeight = 500;
}
);
glyphs = (
{
glyphname = A;
lastChange = "2019-08-22 18:59:41 +0000";
layers = (
{
anchors = (
{
name = top;
position = "{467, 710}";
}
);
hints = (
{
horizontal = 1;
place = "{0, 21}";
target = up;
type = BottomGhost;
},
{
horizontal = 1;
place = "{119, 116}";
type = Stem;
}
);
layerId = "4FCB07EB-01E7-4D87-AA20-FCB2BF85BBFF";
paths = (
{
closed = 1;
nodes = (
"76 0 LINE",
"198 0 LINE",
"268 119 LINE",
"568 119 LINE",
"558 0 LINE",
"688 0 LINE",
"642 729 LINE",
"556 729 LINE"
);
},
{
closed = 1;
nodes = (
"575 235 LINE",
"329 235 LINE",
"575 668 LINE"
);
}
);
width = 766;
}
);
note = A;
unicode = 0041;
},
{
glyphname = Abrevedotbelow;
layers = (
{
layerId = "4FCB07EB-01E7-4D87-AA20-FCB2BF85BBFF";
paths = (
{
closed = 1;
nodes = (
"781.62 791 OFFCURVE",
"890.7 865 OFFCURVE",
"927.1 988 CURVE",
"868.1 988 LINE",
"842.02 901 OFFCURVE",
"798.55 886 OFFCURVE",
"712.55 886 CURVE SMOOTH",
"639.55 886 OFFCURVE",
"601.78 900 OFFCURVE",
"627.1 988 CURVE",
"567.1 988 LINE",
"530.7 865 OFFCURVE",
"586.62 791 OFFCURVE",
"684.62 791 CURVE SMOOTH"
);
},
{
closed = 1;
nodes = (
"712.31 729 LINE",
"627.31 729 LINE",
"146.01 0 LINE",
"269.01 0 LINE",
"338.48 119 LINE",
"639.48 119 LINE",
"629.01 0 LINE",
"758.01 0 LINE"
);
},
{
closed = 1;
nodes = (
"400.26 235 LINE",
"650.23 668 LINE",
"646.26 235 LINE"
);
},
{
closed = 1;
nodes = (
"374.61 -136 LINE",
"466.61 -136 LINE",
"496.93 -35 LINE",
"404.93 -35 LINE"
);
}
);
width = 767;
}
);
note = uni1EB6;
unicode = 1EB6;
},
{
glyphname = Abrevegrave;
layers = (
{
layerId = "4FCB07EB-01E7-4D87-AA20-FCB2BF85BBFF";
paths = (
{
closed = 1;
nodes = (
"863.1 988 LINE",
"745.42 1115 LINE",
"672.42 1115 LINE",
"745.56 1003 LINE"
);
},
{
closed = 1;
nodes = (
"802.62 791 OFFCURVE",
"911.7 865 OFFCURVE",
"948.1 988 CURVE",
"888.1 988 LINE",
"862.02 901 OFFCURVE",
"819.55 886 OFFCURVE",
"733.55 886 CURVE SMOOTH",
"660.55 886 OFFCURVE",
"622.78 900 OFFCURVE",
"648.1 988 CURVE",
"588.1 988 LINE",
"551.7 865 OFFCURVE",
"607.62 791 OFFCURVE",
"705.62 791 CURVE SMOOTH"
);
},
{
closed = 1;
nodes = (
"733.31 729 LINE",
"648.31 729 LINE",
"167.01 0 LINE",
"290.01 0 LINE",
"359.48 119 LINE",
"660.48 119 LINE",
"650.01 0 LINE",
"779.01 0 LINE"
);
},
{
closed = 1;
nodes = (
"421.26 235 LINE",
"672.23 668 LINE",
"667.26 235 LINE"
);
}
);
width = 767;
}
);
note = uni1EB0;
unicode = 1EB0;
},
{
glyphname = Abrevehookabove;
layers = (
{
layerId = "4FCB07EB-01E7-4D87-AA20-FCB2BF85BBFF";
paths = (
{
closed = 1;
nodes = (
"805.65 1038 OFFCURVE",
"799.26 1032 OFFCURVE",
"791.11 1027 CURVE",
"778.03 1018 LINE SMOOTH",
"768.65 1012 OFFCURVE",
"762.72 1008 OFFCURVE",
"758.57 1003 CURVE",
"755.65 999 OFFCURVE",
"753.26 993 OFFCURVE",
"751.88 987 CURVE SMOOTH",
"751.19 984 LINE",
"776.19 984 LINE",
"777.35 989 OFFCURVE",
"780.27 993 OFFCURVE",
"781.96 996 CURVE",
"783.19 997 OFFCURVE",
"785.88 1000 OFFCURVE",
"792.81 1004 CURVE SMOOTH",
"804.43 1011 LINE SMOOTH",
"820.74 1021 OFFCURVE",
"830.28 1032 OFFCURVE",
"832.59 1042 CURVE SMOOTH",
"834.9 1052 OFFCURVE",
"833.21 1062 OFFCURVE",
"825.59 1068 CURVE SMOOTH",
"817.97 1074 OFFCURVE",
"808.9 1078 OFFCURVE",
"792.9 1078 CURVE SMOOTH",
"777.9 1078 OFFCURVE",
"760.98 1074 OFFCURVE",
"742.13 1066 CURVE",
"736.28 1045 LINE",
"753.13 1053 OFFCURVE",
"767.28 1058 OFFCURVE",
"781.28 1058 CURVE SMOOTH",
"802.28 1058 OFFCURVE",
"808.43 1050 OFFCURVE",
"807.05 1044 CURVE SMOOTH"
);
},
{
closed = 1;
nodes = (
"799.64 791 OFFCURVE",
"908.72 865 OFFCURVE",
"945.12 988 CURVE",
"886.12 988 LINE",
"860.04 901 OFFCURVE",
"816.57 886 OFFCURVE",
"730.57 886 CURVE SMOOTH",
"657.57 886 OFFCURVE",
"619.8 900 OFFCURVE",
"645.12 988 CURVE",
"585.12 988 LINE",
"548.72 865 OFFCURVE",
"604.64 791 OFFCURVE",
"702.64 791 CURVE SMOOTH"
);
},
{
closed = 1;
nodes = (
"731.33 729 LINE",
"645.33 729 LINE",
"165.03 0 LINE",
"287.03 0 LINE",
"357.5 119 LINE",
"657.5 119 LINE",
"647.03 0 LINE",
"776.03 0 LINE"
);
},
{
closed = 1;
nodes = (
"418.28 235 LINE",
"668.25 668 LINE",
"664.28 235 LINE"
);
}
);
width = 767;
}
);
note = uni1EB2;
unicode = 1EB2;
},
{
glyphname = Abrevetilde;
layers = (
{
layerId = "4FCB07EB-01E7-4D87-AA20-FCB2BF85BBFF";
paths = (
{
closed = 1;
nodes = (
"781.88 1104 OFFCURVE",
"769.1 1001 OFFCURVE",
"834.87 1000 CURVE SMOOTH",
"883.64 999 OFFCURVE",
"912.79 1004 OFFCURVE",
"957.5 1150 CURVE",
"915.5 1150 LINE",
"899.19 1101 OFFCURVE",
"894.41 1050 OFFCURVE",
"848.41 1050 CURVE SMOOTH",
"808.41 1050 OFFCURVE",
"822.5 1150 OFFCURVE",
"762.5 1150 CURVE SMOOTH",
"697.5 1150 OFFCURVE",
"672.88 1117 OFFCURVE",
"630.87 1000 CURVE",
"681.87 1000 LINE",
"693.8 1043 OFFCURVE",
"712.34 1106 OFFCURVE",
"748.11 1105 CURVE SMOOTH"
);
},
{
closed = 1;
nodes = (
"805.62 791 OFFCURVE",
"914.7 865 OFFCURVE",
"951.1 988 CURVE",
"891.1 988 LINE",
"865.02 901 OFFCURVE",
"822.55 886 OFFCURVE",
"736.55 886 CURVE SMOOTH",
"663.55 886 OFFCURVE",
"624.78 900 OFFCURVE",
"650.1 988 CURVE",
"591.1 988 LINE",
"554.7 865 OFFCURVE",
"610.62 791 OFFCURVE",
"708.62 791 CURVE SMOOTH"
);
},
{
closed = 1;
nodes = (
"736.31 729 LINE",
"651.31 729 LINE",
"170.01 0 LINE",
"293.01 0 LINE",
"362.48 119 LINE",
"663.48 119 LINE",
"653.01 0 LINE",
"782.01 0 LINE"
);
},
{
closed = 1;
nodes = (
"423.26 235 LINE",
"674.23 668 LINE",
"670.26 235 LINE"
);
}
);
width = 767;
}
);
note = uni1EB4;
unicode = 1EB4;
},
{
glyphname = Acaron;
layers = (
{
layerId = "4FCB07EB-01E7-4D87-AA20-FCB2BF85BBFF";
paths = (
{
closed = 1;
nodes = (
"685.77 809 LINE",
"728.77 809 LINE",
"784.55 873 LINE",
"943.79 1004 LINE",
"894.79 1004 LINE",
"731.93 905 LINE",
"630.79 1004 LINE",
"581.79 1004 LINE",
"664.55 873 LINE"
);
},
{
closed = 1;
nodes = (
"159 0 LINE",
"282 0 LINE",
"350.47 119 LINE",
"651.47 119 LINE",
"642 0 LINE",
"770 0 LINE",
"724.3 729 LINE",
"640.3 729 LINE"
);
},
{
closed = 1;
nodes = (
"658.25 235 LINE",
"412.25 235 LINE",
"663.22 668 LINE"
);
}
);
width = 767;
}
);
note = uni01CD;
unicode = 01CD;
},
{
glyphname = Acircumflex;
layers = (
{
layerId = "4FCB07EB-01E7-4D87-AA20-FCB2BF85BBFF";
paths = (
{
closed = 1;
nodes = (
"723.63 947 LINE",
"664.85 883 LINE",
"503.61 752 LINE",
"552.61 752 LINE",
"713.47 851 LINE",
"817.61 752 LINE",
"866.61 752 LINE",
"784.85 883 LINE",
"767.63 947 LINE"
);
},
{
closed = 1;
nodes = (
"154 0 LINE",
"277 0 LINE",
"345.47 119 LINE",
"645.47 119 LINE",
"636 0 LINE",
"765 0 LINE",
"719.3 729 LINE",
"634.3 729 LINE"
);
},
{
closed = 1;
nodes = (
"653.25 235 LINE",
"406.25 235 LINE",
"657.22 668 LINE"
);
}
);
width = 766;
}
);
note = Acircumflex;
unicode = 00C2;
},
{
glyphname = Acircumflexdotbelow;
layers = (
{
layerId = "4FCB07EB-01E7-4D87-AA20-FCB2BF85BBFF";
paths = (
{
closed = 1;
nodes = (
"734.48 1007 LINE",
"674.7 943 LINE",
"514.46 812 LINE",
"563.46 812 LINE",
"723.32 911 LINE",
"826.46 812 LINE",
"876.46 812 LINE",
"794.7 943 LINE",
"778.48 1007 LINE"
);
},
{
closed = 1;
nodes = (
"148 0 LINE",
"270 0 LINE",
"339.47 119 LINE",
"639.47 119 LINE",
"630 0 LINE",
"760 0 LINE",
"714.3 729 LINE",
"628.3 729 LINE"
);
},
{
closed = 1;
nodes = (
"646.25 235 LINE",
"400.25 235 LINE",
"651.22 668 LINE"
);
},
{
closed = 1;
nodes = (
"405.92 -35 LINE",
"374.6 -136 LINE",
"467.6 -136 LINE",
"497.92 -35 LINE"
);
}
);
width = 766;
}
);
note = uni1EAC;
unicode = 1EAC;
},
{
glyphname = Acircumflexgrave;
layers = (
{
layerId = "4FCB07EB-01E7-4D87-AA20-FCB2BF85BBFF";
paths = (
{
closed = 1;
nodes = (
"940.94 905 LINE",
"1058.48 890 LINE",
"940.8 1017 LINE",
"867.8 1017 LINE"
);
},
{
closed = 1;
nodes = (
"738.1 988 LINE",
"679.32 924 LINE",
"518.08 793 LINE",
"567.08 793 LINE",
"728.94 892 LINE",
"831.08 793 LINE",
"881.08 793 LINE",
"799.32 924 LINE",
"782.1 988 LINE"
);
},
{
closed = 1;
nodes = (
"159 0 LINE",
"282 0 LINE",
"351.47 119 LINE",
"651.47 119 LINE",
"642 0 LINE",
"771 0 LINE",
"725.3 729 LINE",
"640.3 729 LINE"
);
},
{
closed = 1;
nodes = (
"658.25 235 LINE",
"412.25 235 LINE",
"663.22 668 LINE"
);
}
);
width = 766;
}
);
note = uni1EA6;
unicode = 1EA6;
},
{
glyphname = Acircumflextilde;
layers = (
{
layerId = "4FCB07EB-01E7-4D87-AA20-FCB2BF85BBFF";
paths = (
{
closed = 1;
nodes = (
"710.18 1036 LINE",
"722.11 1079 OFFCURVE",
"741.65 1142 OFFCURVE",
"777.42 1141 CURVE SMOOTH",
"811.19 1140 OFFCURVE",
"797.41 1037 OFFCURVE",
"863.18 1036 CURVE SMOOTH",
"911.95 1035 OFFCURVE",
"942.1 1040 OFFCURVE",
"986.81 1186 CURVE",
"944.81 1186 LINE",
"928.5 1137 OFFCURVE",
"923.72 1086 OFFCURVE",
"877.72 1086 CURVE SMOOTH",
"837.72 1086 OFFCURVE",
"850.81 1186 OFFCURVE",
"790.81 1186 CURVE SMOOTH",
"725.81 1186 OFFCURVE",
"702.19 1153 OFFCURVE",
"660.18 1036 CURVE"
);
},
{
closed = 1;
nodes = (
"758.1 1001 LINE",
"698.32 937 LINE",
"538.08 806 LINE",
"588.08 806 LINE",
"747.94 905 LINE",
"851.08 806 LINE",
"900.08 806 LINE",
"818.32 937 LINE",
"803.1 1001 LINE"
);
},
{
closed = 1;
nodes = (
"173 0 LINE",
"296 0 LINE",
"364.47 119 LINE",
"665.47 119 LINE",
"656 0 LINE",
"784 0 LINE",
"738.3 729 LINE",
"654.3 729 LINE"
);
},
{
closed = 1;
nodes = (
"672.25 235 LINE",
"425.25 235 LINE",
"677.22 668 LINE"
);
}
);
width = 766;
}
);
note = uni1EAA;
unicode = 1EAA;
},
{
glyphname = Adieresis;
layers = (
{
layerId = "4FCB07EB-01E7-4D87-AA20-FCB2BF85BBFF";
paths = (
{
closed = 1;
nodes = (
"554.01 901 LINE",
"524.69 800 LINE",
"617.69 800 LINE",
"647.01 901 LINE"
);
},
{
closed = 1;
nodes = (
"804.01 901 LINE",
"773.69 800 LINE",
"866.69 800 LINE",
"897.01 901 LINE"
);
},
{
closed = 1;
nodes = (
"150 0 LINE",
"272 0 LINE",
"342.47 119 LINE",
"642.47 119 LINE",
"633 0 LINE",
"761 0 LINE",
"715.3 729 LINE",
"631.3 729 LINE"
);
},
{
closed = 1;
nodes = (
"649.25 235 LINE",
"403.25 235 LINE",
"654.22 668 LINE"
);
}
);
width = 766;
}
);
note = Adieresis;
unicode = 00C4;
},
{
glyphname = Adieresismacron;
layers = (
{
layerId = "4FCB07EB-01E7-4D87-AA20-FCB2BF85BBFF";
paths = (
{
closed = 1;
nodes = (
"584.94 983 LINE",
"535.78 913 LINE",
"949.7 930 LINE",
"946.48 1007 LINE"
);
},
{
closed = 1;
nodes = (
"542.85 831 LINE",
"513.53 730 LINE",
"605.53 730 LINE",
"635.85 831 LINE"
);
},
{
closed = 1;
nodes = (
"791.85 831 LINE",
"762.53 730 LINE",
"854.53 730 LINE",
"883.85 831 LINE"
);
},
{
closed = 1;
nodes = (
"159 0 LINE",
"282 0 LINE",
"350.47 119 LINE",
"651.47 119 LINE",
"642 0 LINE",
"771 0 LINE",
"725.3 729 LINE",
"640.3 729 LINE"
);
},
{
closed = 1;
nodes = (
"658.25 235 LINE",
"412.25 235 LINE",
"663.22 668 LINE"
);
}
);
width = 767;
}
);
note = uni01DE;
unicode = 01DE;
},
{
glyphname = Adotbelow;
layers = (
{
layerId = "4FCB07EB-01E7-4D87-AA20-FCB2BF85BBFF";
paths = (
{
closed = 1;
nodes = (
"125 0 LINE",
"247 0 LINE",
"317.47 119 LINE",
"617.47 119 LINE",
"607 0 LINE",
"737 0 LINE",
"691.3 729 LINE",
"605.3 729 LINE"
);
},
{
closed = 1;
nodes = (
"624.25 235 LINE",
"378.25 235 LINE",
"629.22 668 LINE"
);
},
{
closed = 1;
nodes = (
"382.92 -35 LINE",
"352.6 -136 LINE",
"444.6 -136 LINE",
"475.92 -35 LINE"
);
}
);
width = 766;
}
);
note = uni1EA0;
unicode = 1EA0;
},
{
glyphname = Agrave;
layers = (
{
layerId = "4FCB07EB-01E7-4D87-AA20-FCB2BF85BBFF";
paths = (
{
closed = 1;
nodes = (
"652.39 816 LINE",
"769.93 801 LINE",
"652.25 928 LINE",
"579.25 928 LINE"
);
},
{
closed = 1;
nodes = (
"152 0 LINE",
"275 0 LINE",
"343.47 119 LINE",
"644.47 119 LINE",
"635 0 LINE",
"764 0 LINE",
"718.3 729 LINE",
"632.3 729 LINE"
);
},
{
closed = 1;
nodes = (
"651.25 235 LINE",
"404.25 235 LINE",
"656.22 668 LINE"
);
}
);
width = 766;
}
);
note = Agrave;
unicode = 00C0;
},
{
glyphname = Ahookabove;
layers = (
{
layerId = "4FCB07EB-01E7-4D87-AA20-FCB2BF85BBFF";
paths = (
{
closed = 1;
nodes = (
"652.47 838 LINE",
"671.32 846 OFFCURVE",
"687.24 850 OFFCURVE",
"702.24 850 CURVE SMOOTH",
"718.24 850 OFFCURVE",
"728.32 846 OFFCURVE",
"735.93 840 CURVE SMOOTH",
"743.54 834 OFFCURVE",
"746.24 824 OFFCURVE",
"743.93 814 CURVE SMOOTH",
"741.62 804 OFFCURVE",
"731.08 793 OFFCURVE",
"714.77 783 CURVE SMOOTH",
"703.15 776 LINE SMOOTH",
"696.23 772 OFFCURVE",
"692.53 769 OFFCURVE",
"691.3 768 CURVE",
"689.61 765 OFFCURVE",
"687.68 761 OFFCURVE",
"686.53 756 CURVE",
"661.53 756 LINE",
"661.22 759 LINE",
"662.61 765 OFFCURVE",
"665.99 771 OFFCURVE",
"668.91 775 CURVE",
"673.06 780 OFFCURVE",
"679.99 784 OFFCURVE",
"689.37 790 CURVE",
"701.45 799 LINE",
"709.6 804 OFFCURVE",
"714.99 810 OFFCURVE",
"716.37 816 CURVE SMOOTH",
"717.75 822 OFFCURVE",
"712.6 830 OFFCURVE",
"691.6 830 CURVE SMOOTH",
"677.6 830 OFFCURVE",
"663.45 825 OFFCURVE",
"646.6 817 CURVE"
);
},
{
closed = 1;
nodes = (
"145.98 0 LINE",
"267.98 0 LINE",
"337.45 119 LINE",
"637.45 119 LINE",
"627.98 0 LINE",
"757.98 0 LINE",
"712.28 729 LINE",
"626.28 729 LINE"
);
},
{
closed = 1;
nodes = (
"644.23 235 LINE",
"399.23 235 LINE",
"649.2 668 LINE"
);
}
);
width = 766;
}
);
note = uni1EA2;
unicode = 1EA2;
},
{
glyphname = "Alpha-latin";
layers = (
{
layerId = "4FCB07EB-01E7-4D87-AA20-FCB2BF85BBFF";
paths = (
{
closed = 1;
nodes = (
"684.98 602 LINE",
"650.22 655 OFFCURVE",
"619.3 677 OFFCURVE",
"571.3 677 CURVE SMOOTH",
"562.3 677 OFFCURVE",
"552.07 676 OFFCURVE",
"540.61 674 CURVE SMOOTH",
"447.38 660 OFFCURVE",
"298.52 548 OFFCURVE",
"205.35 387 CURVE SMOOTH",
"165.42 318 OFFCURVE",
"140.26 261 OFFCURVE",
"126.41 214 CURVE SMOOTH",
"66 13 OFFCURVE",
"208.77 -14 OFFCURVE",
"324.77 -14 CURVE SMOOTH",
"397.77 -14 OFFCURVE",
"473.93 17 OFFCURVE",
"527.93 82 CURVE",
"504 0 LINE",
"602 0 LINE",
"624.32 75 OFFCURVE",
"601.85 60 OFFCURVE",
"681.96 329 CURVE SMOOTH",
"763.68 605 OFFCURVE",
"792.52 600 OFFCURVE",
"814.38 673 CURVE",
"727.38 673 LINE"
);
},
{
closed = 1;
nodes = (
"323.98 485 OFFCURVE",
"461.52 600 OFFCURVE",
"519.83 610 CURVE",
"529.29 612 OFFCURVE",
"540.52 613 OFFCURVE",
"552.52 613 CURVE SMOOTH",
"606.52 613 OFFCURVE",
"666.13 581 OFFCURVE",
"611.42 396 CURVE SMOOTH",
"602.96 368 OFFCURVE",
"591.34 335 OFFCURVE",
"577.03 299 CURVE SMOOTH",
"525.94 173 OFFCURVE",
"524.86 138 OFFCURVE",
"358.86 138 CURVE SMOOTH",
"245.86 138 OFFCURVE",
"194.33 205 OFFCURVE",
"221.34 296 CURVE SMOOTH",
"226.5 314 OFFCURVE",
"234.88 333 OFFCURVE",
"246.27 352 CURVE SMOOTH"
);
}
);
width = 609;
}
);
note = uni2C6D;
unicode = 2C6D;
},
{
glyphname = Amacron;
layers = (
{
layerId = "4FCB07EB-01E7-4D87-AA20-FCB2BF85BBFF";
paths = (
{
closed = 1;
nodes = (
"548.7 891 LINE",
"499.54 821 LINE",
"912.46 838 LINE",
"909.24 915 LINE"
);
},
{
closed = 1;
nodes = (
"152 0 LINE",
"274 0 LINE",
"343.47 119 LINE",
"643.47 119 LINE",
"634 0 LINE",
"764 0 LINE",
"717.3 729 LINE",
"632.3 729 LINE"
);
},
{
closed = 1;
nodes = (
"651.25 235 LINE",
"404.25 235 LINE",
"655.22 668 LINE"
);
}
);
width = 767;
}
);
note = Amacron;
unicode = 0100;
},
{
glyphname = Aogonek;
layers = (
{
layerId = "4FCB07EB-01E7-4D87-AA20-FCB2BF85BBFF";
paths = (
{
closed = 1;
nodes = (
"684.3 729 LINE",
"599.3 729 LINE",
"118 0 LINE",
"175 0 LINE",
"106.46 -50 OFFCURVE",
"69.3 -94 OFFCURVE",
"58.22 -129 CURVE SMOOTH",
"41.29 -185 OFFCURVE",
"93.9 -217 OFFCURVE",
"200.37 -215 CURVE",
"202.29 -198 OFFCURVE",
"207.91 -165 OFFCURVE",
"211.53 -145 CURVE",
"191.84 -148 OFFCURVE",
"172.38 -150 OFFCURVE",
"158.38 -150 CURVE SMOOTH",
"121.38 -150 OFFCURVE",
"106.92 -139 OFFCURVE",
"112.54 -119 CURVE SMOOTH",
"120.08 -95 OFFCURVE",
"159.32 -55 OFFCURVE",
"229.01 0 CURVE",
"241.01 0 LINE",
"310.48 119 LINE",
"611.48 119 LINE",
"601.01 0 LINE",
"730.01 0 LINE"
);
},
{
closed = 1;
nodes = (
"372.26 235 LINE",
"622.23 668 LINE",
"618.26 235 LINE"
);
}
);
width = 559;
}
);
note = Aogonek;
unicode = 0104;
},
{
glyphname = Aring;
layers = (
{
layerId = "4FCB07EB-01E7-4D87-AA20-FCB2BF85BBFF";
paths = (
{
closed = 1;
nodes = (
"751 810 OFFCURVE",
"799.93 853 OFFCURVE",
"816.16 906 CURVE SMOOTH",
"832.16 958 OFFCURVE",
"809.09 1001 OFFCURVE",
"763.09 1001 CURVE SMOOTH",
"717.09 1001 OFFCURVE",
"668.16 958 OFFCURVE",
"652.16 906 CURVE SMOOTH",
"635.92 853 OFFCURVE",
"659 810 OFFCURVE",
"705 810 CURVE SMOOTH"
);
},
{
closed = 1;
nodes = (
"696.7 865 OFFCURVE",
"674.93 866 OFFCURVE",
"691.17 919 CURVE SMOOTH",
"699.87 948 OFFCURVE",
"728.41 972 OFFCURVE",
"754.41 972 CURVE SMOOTH",
"780.41 972 OFFCURVE",
"792.87 948 OFFCURVE",
"784.17 919 CURVE SMOOTH",
"767.93 866 OFFCURVE",
"748.7 865 OFFCURVE",
"722.7 865 CURVE SMOOTH"
);
},
{
closed = 1;
nodes = (
"157 0 LINE",
"280 0 LINE",
"350.47 119 LINE",
"650.47 119 LINE",
"640 0 LINE",
"769 0 LINE",
"723.3 729 LINE",
"638.3 729 LINE"
);
},
{
closed = 1;
nodes = (
"657.25 235 LINE",
"411.25 235 LINE",
"661.22 668 LINE"
);
}
);
width = 766;
}
);
note = Aring;
unicode = 00C5;
},
{
glyphname = Atilde;
layers = (
{
layerId = "4FCB07EB-01E7-4D87-AA20-FCB2BF85BBFF";
paths = (
{
closed = 1;
nodes = (
"602.16 789 LINE",
"614.09 832 OFFCURVE",
"633.63 895 OFFCURVE",
"669.4 894 CURVE SMOOTH",
"703.17 893 OFFCURVE",
"689.39 790 OFFCURVE",
"755.16 789 CURVE SMOOTH",
"803.93 788 OFFCURVE",
"834.08 793 OFFCURVE",
"878.79 939 CURVE",
"836.79 939 LINE",
"820.48 890 OFFCURVE",
"814.7 839 OFFCURVE",
"768.7 839 CURVE SMOOTH",
"728.7 839 OFFCURVE",
"741.79 939 OFFCURVE",
"681.79 939 CURVE SMOOTH",
"616.79 939 OFFCURVE",
"593.17 906 OFFCURVE",
"551.16 789 CURVE"
);
},
{
closed = 1;
nodes = (
"153 0 LINE",
"276 0 LINE",
"344.47 119 LINE",
"644.47 119 LINE",
"636 0 LINE",
"765 0 LINE",
"719.3 729 LINE",
"633.3 729 LINE"
);
},
{
closed = 1;
nodes = (
"652.25 235 LINE",
"405.25 235 LINE",
"656.22 668 LINE"
);
}
);
width = 766;
}
);
note = Atilde;
unicode = 00C3;
},
{
glyphname = AE;
layers = (
{
layerId = "4FCB07EB-01E7-4D87-AA20-FCB2BF85BBFF";
paths = (
{
closed = 1;
nodes = (
"1076.86 151 LINE",
"774.86 151 LINE",
"775.86 164 LINE",
"825.41 331 LINE",
"1055.1 347 LINE",
"1080.26 430 LINE",
"851.72 419 LINE",
"917.05 637 LINE",
"1224.44 656 LINE",
"1265.29 729 LINE",
"854.83 714 LINE",
"854.83 714 LINE",
"777.83 714 LINE",
"137.99 0 LINE",
"260.99 0 LINE",
"356 117 LINE",
"656 117 LINE",
"633.22 40 LINE",
"619.99 0 LINE",
"1062.99 0 LINE"
);
},
{
closed = 1;
nodes = (
"442.09 230 LINE",
"786.98 654 LINE",
"688.09 230 LINE"
);
}
);
width = 1083;
}
);
note = AE;
unicode = 00C6;
},
{
glyphname = B;
layers = (
{
layerId = "4FCB07EB-01E7-4D87-AA20-FCB2BF85BBFF";
paths = (
{
closed = 1;
nodes = (
"137 0 LINE",
"377 0 LINE SMOOTH",
"528 0 OFFCURVE",
"620 0 OFFCURVE",
"681.1 204 CURVE SMOOTH",
"710.96 303 OFFCURVE",
"677.89 372 OFFCURVE",
"565.73 393 CURVE",
"642.73 406 OFFCURVE",
"697.97 459 OFFCURVE",
"724.75 549 CURVE SMOOTH",
"759.3 664 OFFCURVE",
"701.31 729 OFFCURVE",
"563.31 729 CURVE SMOOTH",
"355.31 729 LINE"
);
},
{
closed = 1;
nodes = (
"560.07 663 LINE SMOOTH",
"648.07 663 OFFCURVE",
"675.3 612 OFFCURVE",
"653.21 538 CURVE SMOOTH",
"631.13 464 OFFCURVE",
"576.81 428 OFFCURVE",
"488.81 428 CURVE SMOOTH",
"355.81 428 LINE",
"426.06 663 LINE"
);
},
{
closed = 1;
nodes = (
"476.34 348 LINE SMOOTH",
"524.34 348 OFFCURVE",
"559.03 338 OFFCURVE",
"574.95 316 CURVE SMOOTH",
"592.64 293 OFFCURVE",
"599.87 268 OFFCURVE",
"594.25 248 CURVE SMOOTH",
"568.93 160 OFFCURVE",
"513.47 145 OFFCURVE",
"416.47 145 CURVE SMOOTH",
"271.47 145 LINE",
"331.34 348 LINE"
);
}
);
width = 637;
}
);
note = B;
unicode = 0042;
},
{
glyphname = Bdotbelow;
layers = (
{
layerId = "4FCB07EB-01E7-4D87-AA20-FCB2BF85BBFF";
paths = (
{
closed = 1;
nodes = (
"124 0 LINE",
"364 0 LINE SMOOTH",
"515 0 OFFCURVE",
"607 0 OFFCURVE",
"668.1 204 CURVE SMOOTH",
"697.96 303 OFFCURVE",
"665.89 372 OFFCURVE",
"553.73 393 CURVE",
"630.73 406 OFFCURVE",
"684.97 459 OFFCURVE",
"711.75 549 CURVE SMOOTH",
"746.3 664 OFFCURVE",
"688.31 729 OFFCURVE",
"550.31 729 CURVE SMOOTH",
"342.31 729 LINE"
);
},
{
closed = 1;
nodes = (
"547.07 663 LINE SMOOTH",
"635.07 663 OFFCURVE",
"662.3 612 OFFCURVE",
"640.21 538 CURVE SMOOTH",
"618.13 464 OFFCURVE",
"564.81 428 OFFCURVE",
"476.81 428 CURVE SMOOTH",
"342.81 428 LINE",
"413.06 663 LINE"
);
},
{
closed = 1;
nodes = (
"463.34 348 LINE SMOOTH",
"511.34 348 OFFCURVE",
"546.03 338 OFFCURVE",
"561.95 316 CURVE SMOOTH",
"579.64 293 OFFCURVE",
"586.87 268 OFFCURVE",
"581.25 248 CURVE SMOOTH",
"555.93 160 OFFCURVE",
"500.47 145 OFFCURVE",
"403.47 145 CURVE SMOOTH",
"258.47 145 LINE",
"318.34 348 LINE"
);
},
{
closed = 1;
nodes = (
"301.38 -59 LINE",
"272.06 -160 LINE",
"365.06 -160 LINE",
"394.38 -59 LINE"
);
}
);
width = 637;
}
);
note = uni1E04;
unicode = 1E04;
},
{
glyphname = Bhook;
layers = (
{
layerId = "4FCB07EB-01E7-4D87-AA20-FCB2BF85BBFF";
paths = (
{
closed = 1;
nodes = (
"643.73 406 OFFCURVE",
"699.97 459 OFFCURVE",
"726.75 549 CURVE SMOOTH",
"761.3 664 OFFCURVE",
"703.31 729 OFFCURVE",
"565.31 729 CURVE SMOOTH",
"355.31 729 LINE",
"356.08 728 LINE",
"245.77 718 OFFCURVE",
"162.07 611 OFFCURVE",
"135.98 524 CURVE SMOOTH",
"116.51 457 LINE",
"146.65 358 LINE",
"157.96 394 OFFCURVE",
"178.12 464 OFFCURVE",
"194.43 500 CURVE SMOOTH",
"218.43 552 OFFCURVE",
"258.59 596 OFFCURVE",
"317.52 600 CURVE",
"139 0 LINE",
"379 0 LINE SMOOTH",
"530 0 OFFCURVE",
"621 0 OFFCURVE",
"682.1 204 CURVE SMOOTH",
"711.96 303 OFFCURVE",
"678.89 372 OFFCURVE",
"566.73 393 CURVE"
);
},
{
closed = 1;
nodes = (
"427.06 663 LINE",
"560.06 663 LINE SMOOTH",
"648.06 663 OFFCURVE",
"676.29 612 OFFCURVE",
"654.2 538 CURVE SMOOTH",
"632.12 464 OFFCURVE",
"578.8 428 OFFCURVE",
"490.8 428 CURVE SMOOTH",
"356.8 428 LINE"
);
},
{
closed = 1;
nodes = (
"273.46 145 LINE",
"333.33 348 LINE",
"478.33 348 LINE SMOOTH",
"526.33 348 OFFCURVE",
"561.02 338 OFFCURVE",
"576.94 316 CURVE SMOOTH",
"594.63 293 OFFCURVE",
"601.86 268 OFFCURVE",
"596.24 248 CURVE SMOOTH",
"570.92 160 OFFCURVE",
"514.46 145 OFFCURVE",
"417.46 145 CURVE SMOOTH"
);
}
);
width = 640;
}
);
note = uni0181;
unicode = 0181;
},
{
glyphname = Bstroke;
layers = (
{
layerId = "4FCB07EB-01E7-4D87-AA20-FCB2BF85BBFF";
paths = (
{
closed = 1;
nodes = (
"643.73 406 OFFCURVE",
"697.97 459 OFFCURVE",
"724.75 549 CURVE SMOOTH",
"759.3 664 OFFCURVE",
"701.31 729 OFFCURVE",
"563.31 729 CURVE SMOOTH",
"355.31 729 LINE",
"222.57 284 LINE",
"95.57 284 LINE",
"68.56 193 LINE",
"194.56 193 LINE",
"137 0 LINE",
"377 0 LINE SMOOTH",
"528 0 OFFCURVE",
"620 0 OFFCURVE",
"681.1 204 CURVE SMOOTH",
"710.96 303 OFFCURVE",
"678.89 372 OFFCURVE",
"566.73 393 CURVE"
);
},
{
closed = 1;
nodes = (
"426.06 663 LINE",
"560.06 663 LINE SMOOTH",
"648.06 663 OFFCURVE",
"675.29 612 OFFCURVE",
"653.2 538 CURVE SMOOTH",
"631.12 464 OFFCURVE",
"577.8 428 OFFCURVE",
"489.8 428 CURVE SMOOTH",
"355.8 428 LINE"
);
},
{
closed = 1;
nodes = (
"271.46 145 LINE",
"286.54 193 LINE",
"426.54 193 LINE",
"453.55 284 LINE",
"313.55 284 LINE",
"331.33 348 LINE",
"476.33 348 LINE SMOOTH",
"524.33 348 OFFCURVE",
"559.02 338 OFFCURVE",
"574.94 316 CURVE SMOOTH",
"592.63 293 OFFCURVE",
"599.86 268 OFFCURVE",
"594.24 248 CURVE SMOOTH",
"568.92 160 OFFCURVE",
"513.46 145 OFFCURVE",
"416.46 145 CURVE SMOOTH"
);
}
);
width = 638;
}
);
note = uni0243;
unicode = 0243;
},
{
glyphname = C;
layers = (
{
layerId = "4FCB07EB-01E7-4D87-AA20-FCB2BF85BBFF";
paths = (
{
closed = 1;
nodes = (
"865 732 LINE",
"786.77 744 OFFCURVE",
"766.23 746 OFFCURVE",
"685.23 746 CURVE SMOOTH",
"482.23 746 OFFCURVE",
"316.98 602 OFFCURVE",
"246.96 368 CURVE SMOOTH",
"137 0 OFFCURVE",
"165 -13 OFFCURVE",
"339 -13 CURVE SMOOTH",
"624 -13 LINE",
"675.71 159 LINE",
"626.25 144 OFFCURVE",
"588.09 139 OFFCURVE",
"510.09 139 CURVE SMOOTH",
"358.09 139 OFFCURVE",
"274.48 197 OFFCURVE",
"325.96 368 CURVE SMOOTH",
"383.52 561 OFFCURVE",
"517.14 672 OFFCURVE",
"669.14 672 CURVE SMOOTH",
"747.14 672 OFFCURVE",
"746.14 672 OFFCURVE",
"829.45 656 CURVE"
);
}
);
width = 664;
}
);
note = C;
unicode = 0043;
},
{
glyphname = Cacute;
layers = (
{
layerId = "4FCB07EB-01E7-4D87-AA20-FCB2BF85BBFF";
paths = (
{
closed = 1;
nodes = (
"733.48 942 LINE",
"617.93 788 LINE",
"687.93 788 LINE",
"780.48 942 LINE"
);
},
{
closed = 1;
nodes = (
"881 732 LINE",
"802.77 744 OFFCURVE",
"781.23 746 OFFCURVE",
"700.23 746 CURVE SMOOTH",
"497.23 746 OFFCURVE",
"331.98 602 OFFCURVE",
"261.96 368 CURVE SMOOTH",
"152 0 OFFCURVE",
"181 -13 OFFCURVE",
"355 -13 CURVE SMOOTH",
"639 -13 LINE",
"690.71 159 LINE",
"641.25 144 OFFCURVE",
"603.09 139 OFFCURVE",
"525.09 139 CURVE SMOOTH",
"373.09 139 OFFCURVE",
"289.48 197 OFFCURVE",
"340.96 368 CURVE SMOOTH",
"398.52 561 OFFCURVE",
"532.14 672 OFFCURVE",
"684.14 672 CURVE SMOOTH",
"762.14 672 OFFCURVE",
"762.14 672 OFFCURVE",
"845.45 656 CURVE"
);
}
);
width = 664;
}
);
note = Cacute;
unicode = 0106;
},
{
glyphname = Ccaron;
layers = (
{
layerId = "4FCB07EB-01E7-4D87-AA20-FCB2BF85BBFF";
paths = (
{
closed = 1;
nodes = (
"648.85 779 LINE",
"693.85 779 LINE",
"748.63 843 LINE",
"907.87 974 LINE",
"857.87 974 LINE",
"696.01 875 LINE",
"594.87 974 LINE",
"545.87 974 LINE",
"628.63 843 LINE"
);
},
{
closed = 1;
nodes = (
"883 732 LINE",
"804.77 744 OFFCURVE",
"784.23 746 OFFCURVE",
"703.23 746 CURVE SMOOTH",
"500.23 746 OFFCURVE",
"334.98 602 OFFCURVE",
"264.96 368 CURVE SMOOTH",
"155 0 OFFCURVE",
"184 -13 OFFCURVE",
"358 -13 CURVE SMOOTH",
"642 -13 LINE",
"693.71 159 LINE",
"644.25 144 OFFCURVE",
"606.09 139 OFFCURVE",
"528.09 139 CURVE SMOOTH",
"376.09 139 OFFCURVE",
"292.48 197 OFFCURVE",
"343.96 368 CURVE SMOOTH",
"401.52 561 OFFCURVE",
"535.14 672 OFFCURVE",
"687.14 672 CURVE SMOOTH",
"765.14 672 OFFCURVE",
"764.14 672 OFFCURVE",
"847.45 656 CURVE"
);
}
);
width = 664;
}
);
note = Ccaron;
unicode = 010C;
},
{
glyphname = Ccedilla;
layers = (
{
layerId = "4FCB07EB-01E7-4D87-AA20-FCB2BF85BBFF";
paths = (
{
closed = 1;
nodes = (
"729.14 672 OFFCURVE",
"729.14 672 OFFCURVE",
"812.45 656 CURVE",
"848 732 LINE",
"769.77 744 OFFCURVE",
"749.23 746 OFFCURVE",
"668.23 746 CURVE SMOOTH",
"465.23 746 OFFCURVE",
"298.98 602 OFFCURVE",
"228.96 368 CURVE SMOOTH",
"119 0 OFFCURVE",
"148 -13 OFFCURVE",
"322 -13 CURVE SMOOTH",
"383 -13 LINE",
"329.91 -100 LINE",
"352.6 -97 OFFCURVE",
"371.06 -95 OFFCURVE",
"387.06 -95 CURVE SMOOTH",
"410.06 -95 OFFCURVE",
"444.6 -97 OFFCURVE",
"431.44 -141 CURVE SMOOTH",
"426.75 -157 OFFCURVE",
"394.36 -176 OFFCURVE",
"361.36 -176 CURVE SMOOTH",
"341.36 -176 OFFCURVE",
"334.36 -176 OFFCURVE",
"314.51 -171 CURVE",
"289.27 -224 LINE",
"345.27 -224 LINE SMOOTH",
"397.27 -224 OFFCURVE",
"442.97 -195 OFFCURVE",
"464.28 -146 CURVE SMOOTH",
"491.13 -86 OFFCURVE",
"439.83 -70 OFFCURVE",
"404.83 -70 CURVE SMOOTH",
"375.83 -70 LINE",
"411.99 -13 LINE",
"606.99 -13 LINE",
"657.7 159 LINE",
"608.24 144 OFFCURVE",
"571.08 139 OFFCURVE",
"493.08 139 CURVE SMOOTH",
"341.08 139 OFFCURVE",
"256.47 197 OFFCURVE",
"307.95 368 CURVE SMOOTH",
"365.51 561 OFFCURVE",
"499.13 672 OFFCURVE",
"651.13 672 CURVE SMOOTH"
);
}
);
width = 664;
}
);
note = Ccedilla;
unicode = 00C7;
},
{
glyphname = Cdotaccent;
layers = (
{
layerId = "4FCB07EB-01E7-4D87-AA20-FCB2BF85BBFF";
paths = (
{
closed = 1;
nodes = (
"654.32 911 LINE",
"624 810 LINE",
"716 810 LINE",
"746.32 911 LINE"
);
},
{
closed = 1;
nodes = (
"877.99 732 LINE",
"799.76 744 OFFCURVE",
"779.22 746 OFFCURVE",
"698.22 746 CURVE SMOOTH",
"495.22 746 OFFCURVE",
"329.97 602 OFFCURVE",
"259.95 368 CURVE SMOOTH",
"149.99 0 OFFCURVE",
"177.99 -13 OFFCURVE",
"351.99 -13 CURVE SMOOTH",
"637.99 -13 LINE",
"687.7 159 LINE",
"638.24 144 OFFCURVE",
"601.08 139 OFFCURVE",
"523.08 139 CURVE SMOOTH",
"371.08 139 OFFCURVE",
"286.47 197 OFFCURVE",
"337.95 368 CURVE SMOOTH",
"395.51 561 OFFCURVE",
"529.13 672 OFFCURVE",
"681.13 672 CURVE SMOOTH",
"759.13 672 OFFCURVE",
"759.13 672 OFFCURVE",
"842.44 656 CURVE"
);
}
);
width = 664;
}
);
note = Cdotaccent;
unicode = 010A;
},
{
glyphname = Chook;
layers = (
{
layerId = "4FCB07EB-01E7-4D87-AA20-FCB2BF85BBFF";
paths = (
{
closed = 1;
nodes = (
"863.08 819 OFFCURVE",
"863.62 817 OFFCURVE",
"862.23 811 CURVE",
"855.84 792 LINE",
"855.38 790 LINE",
"840.14 737 LINE",
"788.99 745 OFFCURVE",
"763.22 746 OFFCURVE",
"696.22 746 CURVE SMOOTH",
"493.22 746 OFFCURVE",
"326.97 602 OFFCURVE",
"256.95 368 CURVE SMOOTH",
"146.99 0 OFFCURVE",
"174.99 -13 OFFCURVE",
"348.99 -13 CURVE SMOOTH",
"634.99 -13 LINE",
"685.7 159 LINE",
"636.24 144 OFFCURVE",
"599.08 139 OFFCURVE",
"521.08 139 CURVE SMOOTH",
"369.08 139 OFFCURVE",
"284.47 197 OFFCURVE",
"335.95 368 CURVE SMOOTH",
"393.51 561 OFFCURVE",
"527.13 672 OFFCURVE",
"679.13 672 CURVE SMOOTH",
"749.13 672 OFFCURVE",
"756.13 672 OFFCURVE",
"816.36 660 CURVE",
"815.9 658 LINE",
"828.9 658 LINE",
"831.67 657 OFFCURVE",
"837.67 657 OFFCURVE",
"840.44 656 CURVE",
"840.9 658 LINE",
"853.9 658 LINE",
"893.37 790 LINE",
"896.22 798 OFFCURVE",
"896.6 804 OFFCURVE",
"899.22 811 CURVE",
"902.99 823 LINE SMOOTH",
"909.38 842 OFFCURVE",
"909.61 843 OFFCURVE",
"939.61 843 CURVE",
"949.23 876 LINE",
"893.46 877 OFFCURVE",
"881.77 874 OFFCURVE",
"867.84 831 CURVE"
);
}
);
width = 664;
}
);
note = uni0187;
unicode = 0187;
},
{
glyphname = D;
layers = (
{
layerId = "4FCB07EB-01E7-4D87-AA20-FCB2BF85BBFF";
paths = (
{
closed = 1;
nodes = (
"138 0 LINE",
"324 0 LINE SMOOTH",
"583 0 OFFCURVE",
"699 0 OFFCURVE",
"808.27 365 CURVE SMOOTH",
"882.99 615 OFFCURVE",
"800.31 729 OFFCURVE",
"541.31 729 CURVE SMOOTH",
"355.31 729 LINE"
);
},
{
closed = 1;
nodes = (
"538.15 659 LINE SMOOTH",
"722.15 659 OFFCURVE",
"797.29 573 OFFCURVE",
"743.74 393 CURVE SMOOTH",
"707.57 271 OFFCURVE",
"629.87 190 OFFCURVE",
"398.87 190 CURVE SMOOTH",
"289.87 190 LINE",
"429.15 659 LINE"
);
}
);
width = 717;
}
);
note = D;
unicode = 0044;
},
{
glyphname = DZ;
layers = (
{
layerId = "4FCB07EB-01E7-4D87-AA20-FCB2BF85BBFF";
paths = (
{
closed = 1;
nodes = (
"144 0 LINE",
"330 0 LINE SMOOTH",
"589 0 OFFCURVE",
"704 0 OFFCURVE",
"813.27 365 CURVE SMOOTH",
"887.99 615 OFFCURVE",
"805.31 729 OFFCURVE",
"546.31 729 CURVE SMOOTH",
"360.31 729 LINE"
);
},
{
closed = 1;
nodes = (
"1138.45 604 LINE",
"1120.23 681 LINE",
"1645.23 681 LINE",
"1622.91 606 LINE",
"1007.71 146 LINE",
"1422.71 146 LINE",
"1424.39 6 LINE",
"851.01 0 LINE",
"893.1 139 LINE",
"1508.07 598 LINE"
);
},
{
closed = 1;
nodes = (
"544.15 659 LINE SMOOTH",
"728.15 659 OFFCURVE",
"802.29 573 OFFCURVE",
"748.74 393 CURVE SMOOTH",
"712.57 271 OFFCURVE",
"634.87 190 OFFCURVE",
"403.87 190 CURVE SMOOTH",
"295.87 190 LINE",
"435.15 659 LINE"
);
}
);
width = 1466;
}
);
note = uni01F1;
unicode = 01F1;
},
{
glyphname = DZcaron;
layers = (
{
layerId = "4FCB07EB-01E7-4D87-AA20-FCB2BF85BBFF";
paths = (
{
closed = 1;
nodes = (
"1383 797 LINE",
"1428 797 LINE",
"1482.78 861 LINE",
"1643.02 992 LINE",
"1593.02 992 LINE",
"1430.16 893 LINE",
"1329.02 992 LINE",
"1280.02 992 LINE",
"1362.78 861 LINE"
);
},
{
closed = 1;
nodes = (
"165 0 LINE",
"351 0 LINE SMOOTH",
"610 0 OFFCURVE",
"726 0 OFFCURVE",
"835.27 365 CURVE SMOOTH",
"909.99 615 OFFCURVE",
"827.31 729 OFFCURVE",
"568.31 729 CURVE SMOOTH",
"382.31 729 LINE"
);
},
{
closed = 1;
nodes = (
"1159.45 604 LINE",
"1141.23 681 LINE",
"1666.23 681 LINE",
"1643.91 606 LINE",
"1028.71 146 LINE",
"1443.71 146 LINE",
"1445.39 6 LINE",
"872.01 0 LINE",
"914.1 139 LINE",
"1529.07 598 LINE"
);
},
{
closed = 1;
nodes = (
"565.15 659 LINE SMOOTH",
"749.15 659 OFFCURVE",
"823.29 573 OFFCURVE",
"769.74 393 CURVE SMOOTH",
"733.57 271 OFFCURVE",
"655.87 190 OFFCURVE",
"424.87 190 CURVE SMOOTH",
"316.87 190 LINE",
"456.15 659 LINE"
);
}
);
width = 1466;
}
);
note = uni01C4;
unicode = 01C4;
},
{
glyphname = Dafrican;
layers = (
{
layerId = "4FCB07EB-01E7-4D87-AA20-FCB2BF85BBFF";
paths = (
{
closed = 1;
nodes = (
"355.3 729 LINE",
"269.35 439 LINE",
"153.35 439 LINE",
"127.34 348 LINE",
"242.34 348 LINE",
"139 0 LINE",
"325 0 LINE SMOOTH",
"584 0 OFFCURVE",
"699 0 OFFCURVE",
"808.27 365 CURVE SMOOTH",
"882.99 615 OFFCURVE",
"800.31 729 OFFCURVE",
"541.31 729 CURVE SMOOTH"
);
},
{
closed = 1;
nodes = (
"290.87 190 LINE",
"337.35 348 LINE",
"485.35 348 LINE",
"512.36 439 LINE",
"364.36 439 LINE",
"430.15 659 LINE",
"539.15 659 LINE SMOOTH",
"723.15 659 OFFCURVE",
"798.29 573 OFFCURVE",
"744.74 393 CURVE SMOOTH",
"708.57 271 OFFCURVE",
"630.87 190 OFFCURVE",
"399.87 190 CURVE SMOOTH"
);
}
);
width = 718;
}
);
note = uni0189;
unicode = 0189;
},
{
glyphname = Eth;
layers = (
{
layerId = "4FCB07EB-01E7-4D87-AA20-FCB2BF85BBFF";
paths = (
{
closed = 1;
nodes = (
"355.3 729 LINE",
"264.65 423 LINE",
"186.65 423 LINE",
"159.64 332 LINE",
"237.64 332 LINE",
"137.99 0 LINE",
"323.99 0 LINE SMOOTH",
"582.99 0 OFFCURVE",
"698.99 0 OFFCURVE",
"808.26 365 CURVE SMOOTH",
"882.98 615 OFFCURVE",
"800.3 729 OFFCURVE",
"541.3 729 CURVE SMOOTH"
);
},
{
closed = 1;
nodes = (
"289.86 190 LINE",
"331.64 332 LINE",
"517.64 332 LINE",
"545.65 423 LINE",
"359.65 423 LINE",
"430.14 659 LINE",
"539.14 659 LINE SMOOTH",
"723.14 659 OFFCURVE",
"797.28 573 OFFCURVE",
"743.73 393 CURVE SMOOTH",
"707.56 271 OFFCURVE",
"629.86 190 OFFCURVE",
"398.86 190 CURVE SMOOTH"
);
}
);
width = 717;
}
);
note = Eth;
unicode = 00D0;
},
{
glyphname = Dcaron;
layers = (
{
layerId = "4FCB07EB-01E7-4D87-AA20-FCB2BF85BBFF";
paths = (
{
closed = 1;
nodes = (
"625.85 779 LINE",
"670.85 779 LINE",
"724.63 843 LINE",
"884.87 974 LINE",
"834.87 974 LINE",
"673.01 875 LINE",
"571.87 974 LINE",
"521.87 974 LINE",
"604.63 843 LINE"
);
},
{
closed = 1;
nodes = (
"158.01 0 LINE",
"343.01 0 LINE SMOOTH",
"602.01 0 OFFCURVE",
"719.01 0 OFFCURVE",
"828.28 365 CURVE SMOOTH",
"903 615 OFFCURVE",
"820.32 729 OFFCURVE",
"561.32 729 CURVE SMOOTH",
"375.32 729 LINE"
);
},
{
closed = 1;
nodes = (
"558.16 659 LINE SMOOTH",
"742.16 659 OFFCURVE",
"816.3 573 OFFCURVE",
"762.75 393 CURVE SMOOTH",
"726.58 271 OFFCURVE",
"649.88 190 OFFCURVE",
"418.88 190 CURVE SMOOTH",
"308.88 190 LINE",
"449.16 659 LINE"
);
}
);
width = 717;
}
);
note = Dcaron;
unicode = 010E;
},
{
glyphname = Dcircumflexbelow;
layers = (
{
layerId = "4FCB07EB-01E7-4D87-AA20-FCB2BF85BBFF";
paths = (
{
closed = 1;
nodes = (
"114 0 LINE",
"300 0 LINE SMOOTH",
"559 0 OFFCURVE",
"674 0 OFFCURVE",
"783.27 365 CURVE SMOOTH",
"857.99 615 OFFCURVE",
"775.31 729 OFFCURVE",
"516.31 729 CURVE SMOOTH",
"330.31 729 LINE"
);
},
{
closed = 1;
nodes = (
"514.15 659 LINE SMOOTH",
"698.15 659 OFFCURVE",
"771.29 573 OFFCURVE",
"717.74 393 CURVE SMOOTH",
"681.57 271 OFFCURVE",
"604.87 190 OFFCURVE",
"373.87 190 CURVE SMOOTH",
"265.87 190 LINE",
"405.15 659 LINE"
);
},
{
closed = 1;
nodes = (
"343.92 -113 LINE",
"285.14 -177 LINE",
"123.9 -308 LINE",
"173.9 -308 LINE",
"333.76 -209 LINE",
"436.9 -308 LINE",
"486.9 -308 LINE",
"405.14 -177 LINE",
"388.92 -113 LINE"
);
}
);
width = 717;
}
);
note = uni1E12;
unicode = 1E12;
},
{
glyphname = Dcroat;
layers = (
{
layerId = "4FCB07EB-01E7-4D87-AA20-FCB2BF85BBFF";
paths = (
{
closed = 1;
nodes = (
"355.3 729 LINE",
"264.65 423 LINE",
"186.65 423 LINE",
"159.64 332 LINE",
"237.64 332 LINE",
"137.99 0 LINE",
"323.99 0 LINE SMOOTH",
"582.99 0 OFFCURVE",
"698.99 0 OFFCURVE",
"808.26 365 CURVE SMOOTH",
"882.98 615 OFFCURVE",
"800.3 729 OFFCURVE",
"541.3 729 CURVE SMOOTH"
);
},
{
closed = 1;
nodes = (
"289.86 190 LINE",
"331.64 332 LINE",
"517.64 332 LINE",
"545.65 423 LINE",
"359.65 423 LINE",
"430.14 659 LINE",
"539.14 659 LINE SMOOTH",
"723.14 659 OFFCURVE",
"797.28 573 OFFCURVE",
"743.73 393 CURVE SMOOTH",
"707.56 271 OFFCURVE",
"629.86 190 OFFCURVE",
"398.86 190 CURVE SMOOTH"
);
}
);
width = 717;
}
);
note = Dcroat;
unicode = 0110;
},
{
glyphname = Ddotaccent;
layers = (
{
layerId = "4FCB07EB-01E7-4D87-AA20-FCB2BF85BBFF";
paths = (
{
closed = 1;
nodes = (
"631.32 911 LINE",
"601 810 LINE",
"693 810 LINE",
"723.32 911 LINE"
);
},
{
closed = 1;
nodes = (
"153 0 LINE",
"339 0 LINE SMOOTH",
"598 0 OFFCURVE",
"713 0 OFFCURVE",
"822.27 365 CURVE SMOOTH",
"896.99 615 OFFCURVE",
"814.31 729 OFFCURVE",
"555.31 729 CURVE SMOOTH",
"369.31 729 LINE"
);
},
{
closed = 1;
nodes = (
"553.15 659 LINE SMOOTH",
"737.15 659 OFFCURVE",
"812.29 573 OFFCURVE",
"758.74 393 CURVE SMOOTH",
"722.57 271 OFFCURVE",
"644.87 190 OFFCURVE",
"413.87 190 CURVE SMOOTH",
"304.87 190 LINE",
"444.15 659 LINE"
);
}
);
width = 717;
}
);
note = uni1E0A;
unicode = 1E0A;
},
{
glyphname = Ddotbelow;
layers = (
{
layerId = "4FCB07EB-01E7-4D87-AA20-FCB2BF85BBFF";
paths = (
{
closed = 1;
nodes = (
"125 0 LINE",
"311 0 LINE SMOOTH",
"570 0 OFFCURVE",
"686 0 OFFCURVE",
"795.27 365 CURVE SMOOTH",
"869.99 615 OFFCURVE",
"787.31 729 OFFCURVE",
"528.31 729 CURVE SMOOTH",
"342.31 729 LINE"
);
},
{
closed = 1;
nodes = (
"525.15 659 LINE SMOOTH",
"709.15 659 OFFCURVE",
"783.29 573 OFFCURVE",
"729.74 393 CURVE SMOOTH",
"693.57 271 OFFCURVE",
"616.87 190 OFFCURVE",
"385.87 190 CURVE SMOOTH",
"276.87 190 LINE",
"417.15 659 LINE"
);
},
{
closed = 1;
nodes = (
"341.39 -59 LINE",
"312.07 -160 LINE",
"405.07 -160 LINE",
"434.39 -59 LINE"
);
}
);
width = 717;
}
);
note = uni1E0C;
unicode = 1E0C;
},
{
glyphname = Dhook;
layers = (
{
layerId = "4FCB07EB-01E7-4D87-AA20-FCB2BF85BBFF";
paths = (
{
closed = 1;
nodes = (
"364.3 729 LINE",
"364.53 730 LINE",
"245.53 730 OFFCURVE",
"156.21 616 OFFCURVE",
"129.2 525 CURVE SMOOTH",
"108.73 458 LINE",
"138.87 359 LINE",
"150.18 395 OFFCURVE",
"170.34 465 OFFCURVE",
"186.65 501 CURVE SMOOTH",
"211.12 555 OFFCURVE",
"254.74 601 OFFCURVE",
"317.74 601 CURVE",
"318.43 604 OFFCURVE",
"321.12 607 OFFCURVE",
"321.82 610 CURVE",
"139.99 0 LINE",
"325.99 0 LINE SMOOTH",
"584.99 0 OFFCURVE",
"700.99 0 OFFCURVE",
"810.26 365 CURVE SMOOTH",
"884.98 615 OFFCURVE",
"802.3 729 OFFCURVE",
"543.3 729 CURVE SMOOTH"
);
},
{
closed = 1;
nodes = (
"291.86 190 LINE",
"431.14 659 LINE",
"540.14 659 LINE SMOOTH",
"724.14 659 OFFCURVE",
"798.28 573 OFFCURVE",
"744.73 393 CURVE SMOOTH",
"708.56 271 OFFCURVE",
"631.86 190 OFFCURVE",
"400.86 190 CURVE SMOOTH"
);
}
);
width = 720;
}
);
note = uni018A;
unicode = 018A;
},
{
glyphname = Dlinebelow;
layers = (
{
layerId = "4FCB07EB-01E7-4D87-AA20-FCB2BF85BBFF";
paths = (
{
closed = 1;
nodes = (
"129 0 LINE",
"315 0 LINE SMOOTH",
"574 0 OFFCURVE",
"691 0 OFFCURVE",
"800.27 365 CURVE SMOOTH",
"874.99 615 OFFCURVE",
"791.31 729 OFFCURVE",
"532.31 729 CURVE SMOOTH",
"346.31 729 LINE"
);
},
{
closed = 1;
nodes = (
"530.15 659 LINE SMOOTH",
"714.15 659 OFFCURVE",
"788.29 573 OFFCURVE",
"734.74 393 CURVE SMOOTH",
"698.57 271 OFFCURVE",
"621.87 190 OFFCURVE",
"390.87 190 CURVE SMOOTH",
"280.87 190 LINE",
"421.15 659 LINE"
);
},
{
closed = 1;
nodes = (
"254.08 -56 LINE",
"216.08 -108 LINE",
"545.08 -95 LINE",
"540.24 -38 LINE"
);
}
);
width = 717;
}
);
note = uni1E0E;
unicode = 1E0E;
},
{
glyphname = Dz;
layers = (
{
layerId = "4FCB07EB-01E7-4D87-AA20-FCB2BF85BBFF";
paths = (
{
closed = 1;
nodes = (
"143 0 LINE",
"329 0 LINE SMOOTH",
"588 0 OFFCURVE",
"703 0 OFFCURVE",
"812.27 365 CURVE SMOOTH",
"886.99 615 OFFCURVE",
"804.31 729 OFFCURVE",
"545.31 729 CURVE SMOOTH",
"359.31 729 LINE"
);
},
{
closed = 1;
nodes = (
"543.15 659 LINE SMOOTH",
"727.15 659 OFFCURVE",
"802.29 573 OFFCURVE",
"748.74 393 CURVE SMOOTH",
"712.57 271 OFFCURVE",
"634.87 190 OFFCURVE",
"403.87 190 CURVE SMOOTH",
"294.87 190 LINE",
"434.15 659 LINE"
);
},
{
closed = 1;
nodes = (
"1076.29 482 LINE",
"1362.29 482 LINE",
"912.26 131 LINE",
"850.02 0 LINE",
"1310.02 0 LINE",
"1292.95 121 LINE",
"1032.95 121 LINE",
"1462.29 482 LINE",
"1470.76 549 LINE",
"1095.76 549 LINE"
);
}
);
width = 1341;
}
);
note = uni01F2;
unicode = 01F2;
},
{
glyphname = Dzcaron;
layers = (
{
layerId = "4FCB07EB-01E7-4D87-AA20-FCB2BF85BBFF";
paths = (
{
closed = 1;
nodes = (
"1258.83 597 LINE",
"1302.83 597 LINE",
"1357.61 661 LINE",
"1516.85 792 LINE",
"1467.85 792 LINE",
"1305.99 693 LINE",
"1203.85 792 LINE",
"1154.85 792 LINE",
"1237.61 661 LINE"
);
},
{
closed = 1;
nodes = (
"148.01 0 LINE",
"333.01 0 LINE SMOOTH",
"592.01 0 OFFCURVE",
"709.01 0 OFFCURVE",
"818.28 365 CURVE SMOOTH",
"893 615 OFFCURVE",
"810.32 729 OFFCURVE",
"551.32 729 CURVE SMOOTH",
"365.32 729 LINE"
);
},
{
closed = 1;
nodes = (
"548.16 659 LINE SMOOTH",
"732.16 659 OFFCURVE",
"806.3 573 OFFCURVE",
"752.75 393 CURVE SMOOTH",
"716.58 271 OFFCURVE",
"639.88 190 OFFCURVE",
"408.88 190 CURVE SMOOTH",
"298.88 190 LINE",
"439.16 659 LINE"
);
},
{
closed = 1;
nodes = (
"1080.3 482 LINE",
"1367.3 482 LINE",
"916.27 131 LINE",
"856.03 0 LINE",
"1314.03 0 LINE",
"1298.96 121 LINE",
"1036.96 121 LINE",
"1467.3 482 LINE",
"1474.77 549 LINE",
"1100.77 549 LINE"
);
}
);
width = 1341;
}
);
note = uni01C5;
unicode = 01C5;
},
{
glyphname = E;
layers = (
{
layerId = "4FCB07EB-01E7-4D87-AA20-FCB2BF85BBFF";
paths = (
{
closed = 1;
nodes = (
"137 0 LINE",
"579 0 LINE",
"592.86 151 LINE",
"288.86 151 LINE",
"342.42 331 LINE",
"571.11 347 LINE",
"596.27 430 LINE",
"368.73 419 LINE",
"434.06 637 LINE",
"740.45 656 LINE",
"782.3 729 LINE",
"371.84 714 LINE"
);
}
);
width = 596;
}
);
note = E;
unicode = 0045;
},
{
glyphname = Eacute;
layers = (
{
layerId = "4FCB07EB-01E7-4D87-AA20-FCB2BF85BBFF";
paths = (
{
closed = 1;
nodes = (
"698.87 1000 LINE",
"583.32 846 LINE",
"653.32 846 LINE",
"745.87 1000 LINE"
);
},
{
closed = 1;
nodes = (
"159 0 LINE",
"600 0 LINE",
"614.86 151 LINE",
"309.86 151 LINE",
"364.42 331 LINE",
"593.11 347 LINE",
"618.27 430 LINE",
"389.73 419 LINE",
"455.06 637 LINE",
"762.45 656 LINE",
"804.3 729 LINE",
"392.84 714 LINE"
);
}
);
width = 596;
}
);
note = Eacute;
unicode = 00C9;
},
{
glyphname = Ebreve;
layers = (
{
layerId = "4FCB07EB-01E7-4D87-AA20-FCB2BF85BBFF";
paths = (
{
closed = 1;
nodes = (
"717.54 795 OFFCURVE",
"826.62 869 OFFCURVE",
"863.02 992 CURVE",
"804.02 992 LINE",
"777.93 905 OFFCURVE",
"734.47 890 OFFCURVE",
"648.47 890 CURVE SMOOTH",
"575.47 890 OFFCURVE",
"537.7 904 OFFCURVE",
"563.02 992 CURVE",
"504.02 992 LINE",
"467.62 869 OFFCURVE",
"522.54 795 OFFCURVE",
"620.54 795 CURVE SMOOTH"
);
},
{
closed = 1;
nodes = (
"615.86 151 LINE",
"310.86 151 LINE",
"363.42 331 LINE",
"592.11 347 LINE",
"618.27 430 LINE",
"389.73 419 LINE",
"455.06 637 LINE",
"763.45 656 LINE",
"803.3 729 LINE",
"392.84 714 LINE",
"158 0 LINE",
"601 0 LINE"
);
}
);
width = 597;
}
);
note = Ebreve;
unicode = 0114;
},
{
glyphname = Ecaron;
layers = (
{
layerId = "4FCB07EB-01E7-4D87-AA20-FCB2BF85BBFF";
paths = (
{
closed = 1;
nodes = (
"612.39 816 LINE",
"656.39 816 LINE",
"711.17 880 LINE",
"871.41 1011 LINE",
"822.41 1011 LINE",
"659.55 912 LINE",
"558.41 1011 LINE",
"508.41 1011 LINE",
"591.17 880 LINE"
);
},
{
closed = 1;
nodes = (
"160.01 0 LINE",
"602.01 0 LINE",
"616.87 151 LINE",
"311.87 151 LINE",
"365.43 331 LINE",
"594.12 347 LINE",
"619.28 430 LINE",
"391.74 419 LINE",
"457.07 637 LINE",
"764.46 656 LINE",
"805.31 729 LINE",
"393.85 714 LINE"
);
}
);
width = 597;
}
);
note = Ecaron;
unicode = 011A;
},
{
glyphname = Ecedilla;
layers = (
{
layerId = "4FCB07EB-01E7-4D87-AA20-FCB2BF85BBFF";
paths = (
{
closed = 1;
nodes = (
"305.53 -80 LINE",
"356 0 LINE",
"560 0 LINE",
"574.86 151 LINE",
"269.86 151 LINE",
"323.42 331 LINE",
"553.11 347 LINE",
"577.27 430 LINE",
"349.73 419 LINE",
"414.06 637 LINE",
"722.45 656 LINE",
"764.3 729 LINE",
"352.84 714 LINE",
"118 0 LINE",
"327 0 LINE",
"260.6 -110 LINE",
"283.29 -107 OFFCURVE",
"301.75 -105 OFFCURVE",
"317.75 -105 CURVE SMOOTH",
"340.75 -105 OFFCURVE",
"374.29 -107 OFFCURVE",
"361.13 -151 CURVE SMOOTH",
"356.44 -167 OFFCURVE",
"324.05 -186 OFFCURVE",
"291.05 -186 CURVE SMOOTH",
"271.05 -186 OFFCURVE",
"264.05 -186 OFFCURVE",
"244.2 -181 CURVE",
"218.96 -234 LINE",
"275.96 -234 LINE SMOOTH",
"327.96 -234 OFFCURVE",
"371.66 -205 OFFCURVE",
"392.97 -156 CURVE SMOOTH",
"419.82 -96 OFFCURVE",
"368.52 -80 OFFCURVE",
"333.52 -80 CURVE SMOOTH"
);
}
);
width = 596;
}
);
note = uni0228;
unicode = 0228;
},
{
glyphname = Ecircumflex;
layers = (
{
layerId = "4FCB07EB-01E7-4D87-AA20-FCB2BF85BBFF";
paths = (
{
closed = 1;
nodes = (
"651.25 954 LINE",
"591.47 890 LINE",
"431.23 759 LINE",
"480.23 759 LINE",
"641.09 858 LINE",
"744.23 759 LINE",
"793.23 759 LINE",
"711.47 890 LINE",
"695.25 954 LINE"
);
},
{
closed = 1;
nodes = (
"155 0 LINE",
"597 0 LINE",
"611.86 151 LINE",
"306.86 151 LINE",
"360.42 331 LINE",
"589.11 347 LINE",
"614.27 430 LINE",
"386.73 419 LINE",
"452.06 637 LINE",
"759.45 656 LINE",
"800.3 729 LINE",
"388.84 714 LINE"
);
}
);
width = 596;
}
);
note = Ecircumflex;
unicode = 00CA;
},
{
glyphname = Ecircumflexacute;
layers = (
{
layerId = "4FCB07EB-01E7-4D87-AA20-FCB2BF85BBFF";
paths = (
{
closed = 1;
nodes = (
"914.87 1026 LINE",
"800.32 872 LINE",
"869.32 872 LINE",
"961.87 1026 LINE"
);
},
{
closed = 1;
nodes = (
"666.71 995 LINE",
"606.93 931 LINE",
"445.69 800 LINE",
"495.69 800 LINE",
"655.55 899 LINE",
"759.69 800 LINE",
"808.69 800 LINE",
"726.93 931 LINE",
"709.71 995 LINE"
);
},
{
closed = 1;
nodes = (
"161 0 LINE",
"603 0 LINE",
"617.86 151 LINE",
"312.86 151 LINE",
"366.42 331 LINE",
"596.11 347 LINE",
"620.27 430 LINE",
"392.73 419 LINE",
"457.06 637 LINE",
"765.45 656 LINE",
"806.3 729 LINE",
"394.84 714 LINE"
);
}
);
width = 596;
}
);
note = uni1EBE;
unicode = 1EBE;
},
{
glyphname = Ecircumflexdotbelow;
layers = (
{
layerId = "4FCB07EB-01E7-4D87-AA20-FCB2BF85BBFF";
paths = (
{
closed = 1;
nodes = (
"633.71 969 LINE",
"573.93 905 LINE",
"412.69 774 LINE",
"462.69 774 LINE",
"622.55 873 LINE",
"726.69 774 LINE",
"775.69 774 LINE",
"693.93 905 LINE",
"676.71 969 LINE"
);
},
{
closed = 1;
nodes = (
"143 0 LINE",
"586 0 LINE",
"600.86 151 LINE",
"295.86 151 LINE",
"349.42 331 LINE",
"578.11 347 LINE",
"603.27 430 LINE",
"374.73 419 LINE",
"440.06 637 LINE",
"748.45 656 LINE",
"788.3 729 LINE",
"377.84 714 LINE"
);
},
{
closed = 1;
nodes = (
"308.38 -59 LINE",
"278.06 -160 LINE",
"371.06 -160 LINE",
"401.38 -59 LINE"
);
}
);
width = 596;
}
);
note = uni1EC6;
unicode = 1EC6;
},
{
glyphname = Ecircumflexgrave;
layers = (
{
layerId = "4FCB07EB-01E7-4D87-AA20-FCB2BF85BBFF";
paths = (
{
closed = 1;
nodes = (
"868.55 912 LINE",
"986.09 897 LINE",
"868.41 1024 LINE",
"796.41 1024 LINE"
);
},
{
closed = 1;
nodes = (
"666.71 995 LINE",
"606.93 931 LINE",
"445.69 800 LINE",
"495.69 800 LINE",
"656.55 899 LINE",
"759.69 800 LINE",
"808.69 800 LINE",
"726.93 931 LINE",
"709.71 995 LINE"
);
},
{
closed = 1;
nodes = (
"161 0 LINE",
"604 0 LINE",
"617.86 151 LINE",
"313.86 151 LINE",
"367.42 331 LINE",
"596.11 347 LINE",
"621.27 430 LINE",
"392.73 419 LINE",
"458.06 637 LINE",
"765.45 656 LINE",
"806.3 729 LINE",
"394.84 714 LINE"
);
}
);
width = 596;
}
);
note = uni1EC0;
unicode = 1EC0;
},
{
glyphname = Ecircumflexhookabove;
layers = (
{
layerId = "4FCB07EB-01E7-4D87-AA20-FCB2BF85BBFF";
paths = (
{
closed = 1;
nodes = (
"778.64 1038 LINE",
"797.49 1046 OFFCURVE",
"814.41 1050 OFFCURVE",
"829.41 1050 CURVE SMOOTH",
"845.41 1050 OFFCURVE",
"855.49 1046 OFFCURVE",
"863.1 1040 CURVE SMOOTH",
"870.72 1034 OFFCURVE",
"872.41 1024 OFFCURVE",
"870.1 1014 CURVE SMOOTH",
"867.79 1004 OFFCURVE",
"857.25 993 OFFCURVE",
"840.94 983 CURVE SMOOTH",
"829.32 976 LINE SMOOTH",
"822.4 972 OFFCURVE",
"819.7 969 OFFCURVE",
"818.47 968 CURVE",
"816.78 965 OFFCURVE",
"814.85 961 OFFCURVE",
"813.7 956 CURVE",
"787.7 956 LINE",
"788.39 959 LINE SMOOTH",
"789.78 965 OFFCURVE",
"793.16 971 OFFCURVE",
"796.08 975 CURVE",
"800.23 980 OFFCURVE",
"806.16 984 OFFCURVE",
"815.54 990 CURVE",
"827.62 999 LINE",
"835.77 1004 OFFCURVE",
"842.16 1010 OFFCURVE",
"843.54 1016 CURVE SMOOTH",
"844.92 1022 OFFCURVE",
"838.77 1030 OFFCURVE",
"817.77 1030 CURVE SMOOTH",
"803.77 1030 OFFCURVE",
"789.62 1025 OFFCURVE",
"772.77 1017 CURVE"
);
},
{
closed = 1;
nodes = (
"666.69 995 LINE",
"607.91 931 LINE",
"446.67 800 LINE",
"496.67 800 LINE",
"657.53 899 LINE",
"760.67 800 LINE",
"809.67 800 LINE",
"727.91 931 LINE",
"711.69 995 LINE"
);
},
{
closed = 1;
nodes = (
"161.98 0 LINE",
"604.98 0 LINE",
"619.84 151 LINE",
"314.84 151 LINE",
"368.4 331 LINE",
"598.09 347 LINE",
"622.25 430 LINE",
"394.71 419 LINE",
"459.04 637 LINE",
"767.43 656 LINE",
"808.28 729 LINE",
"396.82 714 LINE"
);
}
);
width = 596;
}
);
note = uni1EC2;
unicode = 1EC2;
},
{
glyphname = Ecircumflextilde;
layers = (
{
layerId = "4FCB07EB-01E7-4D87-AA20-FCB2BF85BBFF";
paths = (
{
closed = 1;
nodes = (
"636.8 1043 LINE",
"648.73 1086 OFFCURVE",
"668.27 1149 OFFCURVE",
"704.04 1148 CURVE SMOOTH",
"737.81 1147 OFFCURVE",
"725.03 1044 OFFCURVE",
"790.8 1043 CURVE SMOOTH",
"839.57 1042 OFFCURVE",
"868.72 1047 OFFCURVE",
"913.43 1193 CURVE",
"871.43 1193 LINE",
"855.12 1144 OFFCURVE",
"850.34 1093 OFFCURVE",
"804.34 1093 CURVE SMOOTH",
"764.34 1093 OFFCURVE",
"777.43 1193 OFFCURVE",
"717.43 1193 CURVE SMOOTH",
"652.43 1193 OFFCURVE",
"628.81 1160 OFFCURVE",
"586.8 1043 CURVE"
);
},
{
closed = 1;
nodes = (
"685.72 1008 LINE",
"626.94 944 LINE",
"465.7 813 LINE",
"514.7 813 LINE",
"675.56 912 LINE",
"778.7 813 LINE",
"828.7 813 LINE",
"746.94 944 LINE",
"729.72 1008 LINE"
);
},
{
closed = 1;
nodes = (
"174.01 0 LINE",
"617.01 0 LINE",
"630.87 151 LINE",
"325.87 151 LINE",
"379.43 331 LINE",
"609.12 347 LINE",
"634.28 430 LINE",
"405.74 419 LINE",
"471.07 637 LINE",
"778.46 656 LINE",
"819.31 729 LINE",
"407.85 714 LINE"
);
}
);
width = 596;
}
);
note = uni1EC4;
unicode = 1EC4;
},
{
glyphname = Edieresis;
layers = (
{
layerId = "4FCB07EB-01E7-4D87-AA20-FCB2BF85BBFF";
paths = (
{
closed = 1;
nodes = (
"482.63 908 LINE",
"451.31 807 LINE",
"544.31 807 LINE",
"574.63 908 LINE"
);
},
{
closed = 1;
nodes = (
"730.63 908 LINE",
"700.31 807 LINE",
"793.31 807 LINE",
"823.63 908 LINE"
);
},
{
closed = 1;
nodes = (
"151 0 LINE",
"593 0 LINE",
"607.86 151 LINE",
"302.86 151 LINE",
"357.42 331 LINE",
"586.11 347 LINE",
"610.27 430 LINE",
"382.73 419 LINE",
"448.06 637 LINE",
"755.45 656 LINE",
"796.3 729 LINE",
"384.84 714 LINE"
);
}
);
width = 596;
}
);
note = Edieresis;
unicode = 00CB;
},
{
glyphname = Edotaccent;
layers = (
{
layerId = "4FCB07EB-01E7-4D87-AA20-FCB2BF85BBFF";
paths = (
{
closed = 1;
nodes = (
"616.86 948 LINE",
"586.54 847 LINE",
"678.54 847 LINE",
"709.86 948 LINE"
);
},
{
closed = 1;
nodes = (
"154 0 LINE",
"597 0 LINE",
"611.86 151 LINE",
"306.86 151 LINE",
"359.42 331 LINE",
"589.11 347 LINE",
"614.27 430 LINE",
"386.73 419 LINE",
"451.06 637 LINE",
"759.45 656 LINE",
"800.3 729 LINE",
"388.84 714 LINE"
);
}
);
width = 596;
}
);
note = Edotaccent;
unicode = 0116;
},
{
glyphname = Edotbelow;
layers = (
{
layerId = "4FCB07EB-01E7-4D87-AA20-FCB2BF85BBFF";
paths = (
{
closed = 1;
nodes = (
"124 0 LINE",
"566 0 LINE",
"580.86 151 LINE",
"275.86 151 LINE",
"329.42 331 LINE",
"558.11 347 LINE",
"584.27 430 LINE",
"355.73 419 LINE",
"421.06 637 LINE",
"728.45 656 LINE",
"769.3 729 LINE",
"357.84 714 LINE"
);
},
{
closed = 1;
nodes = (
"289.38 -59 LINE",
"259.06 -160 LINE",
"351.06 -160 LINE",
"382.38 -59 LINE"
);
}
);
width = 596;
}
);
note = uni1EB8;
unicode = 1EB8;
},
{
glyphname = Egrave;
layers = (
{
layerId = "4FCB07EB-01E7-4D87-AA20-FCB2BF85BBFF";
paths = (
{
closed = 1;
nodes = (
"580 823 LINE",
"698.54 808 LINE",
"578.86 935 LINE",
"506.86 935 LINE"
);
},
{
closed = 1;
nodes = (
"153 0 LINE",
"596 0 LINE",
"610.86 151 LINE",
"305.86 151 LINE",
"359.42 331 LINE",
"588.11 347 LINE",
"613.27 430 LINE",
"384.73 419 LINE",
"450.06 637 LINE",
"758.45 656 LINE",
"798.3 729 LINE",
"387.84 714 LINE"
);
}
);
width = 596;
}
);
note = Egrave;
unicode = 00C8;
},
{
glyphname = Ehookabove;
layers = (
{
layerId = "4FCB07EB-01E7-4D87-AA20-FCB2BF85BBFF";
paths = (
{
closed = 1;
nodes = (
"581.85 844 LINE",
"600.7 852 OFFCURVE",
"617.62 856 OFFCURVE",
"632.62 856 CURVE SMOOTH",
"648.62 856 OFFCURVE",
"658.7 852 OFFCURVE",
"666.31 846 CURVE SMOOTH",
"673.93 840 OFFCURVE",
"675.62 830 OFFCURVE",
"673.31 820 CURVE SMOOTH",
"671 810 OFFCURVE",
"661.46 799 OFFCURVE",
"645.15 789 CURVE",
"632.53 782 LINE SMOOTH",
"625.61 778 OFFCURVE",
"623.91 775 OFFCURVE",
"622.68 774 CURVE",
"620.99 771 OFFCURVE",
"618.06 767 OFFCURVE",
"616.91 762 CURVE",
"590.91 762 LINE",
"591.6 765 LINE SMOOTH",
"592.98 771 OFFCURVE",
"596.37 777 OFFCURVE",
"599.29 781 CURVE",
"603.44 786 OFFCURVE",
"609.37 790 OFFCURVE",
"618.75 796 CURVE",
"630.83 805 LINE",
"638.98 810 OFFCURVE",
"644.37 816 OFFCURVE",
"645.75 822 CURVE SMOOTH",
"647.14 828 OFFCURVE",
"641.98 836 OFFCURVE",
"620.98 836 CURVE SMOOTH",
"606.98 836 OFFCURVE",
"592.83 831 OFFCURVE",
"575.98 823 CURVE"
);
},
{
closed = 1;
nodes = (
"146.98 0 LINE",
"588.98 0 LINE",
"603.84 151 LINE",
"298.84 151 LINE",
"352.4 331 LINE",
"581.09 347 LINE",
"606.25 430 LINE",
"378.71 419 LINE",
"444.04 637 LINE",
"751.43 656 LINE",
"792.28 729 LINE",
"381.82 714 LINE"
);
}
);
width = 596;
}
);
note = uni1EBA;
unicode = 1EBA;
},
{
glyphname = Emacron;
layers = (
{
layerId = "4FCB07EB-01E7-4D87-AA20-FCB2BF85BBFF";
paths = (
{
closed = 1;
nodes = (
"476.32 898 LINE",
"427.16 828 LINE",
"840.08 845 LINE",
"836.86 922 LINE"
);
},
{
closed = 1;
nodes = (
"152 0 LINE",
"595 0 LINE",
"608.86 151 LINE",
"304.86 151 LINE",
"358.42 331 LINE",
"587.11 347 LINE",
"612.27 430 LINE",
"383.73 419 LINE",
"449.06 637 LINE",
"756.45 656 LINE",
"798.3 729 LINE",
"386.84 714 LINE"
);
}
);
width = 596;
}
);
note = Emacron;
unicode = 0112;
},
{
glyphname = Eogonek;
layers = (
{
layerId = "4FCB07EB-01E7-4D87-AA20-FCB2BF85BBFF";
paths = (
{
closed = 1;
nodes = (
"494.83 -148 OFFCURVE",
"477.37 -150 OFFCURVE",
"463.37 -150 CURVE SMOOTH",
"426.37 -150 OFFCURVE",
"409.91 -139 OFFCURVE",
"415.53 -119 CURVE SMOOTH",
"423.07 -95 OFFCURVE",
"463.31 -55 OFFCURVE",
"533 0 CURVE",
"562 0 LINE",
"576.86 151 LINE",
"271.86 151 LINE",
"325.42 331 LINE",
"554.11 347 LINE",
"579.27 430 LINE",
"350.73 419 LINE",
"416.06 637 LINE",
"724.45 656 LINE",
"764.3 729 LINE",
"353.84 714 LINE",
"119 0 LINE",
"479 0 LINE",
"410.46 -50 OFFCURVE",
"373.3 -94 OFFCURVE",
"362.22 -129 CURVE SMOOTH",
"345.29 -185 OFFCURVE",
"396.9 -217 OFFCURVE",
"503.37 -215 CURVE",
"505.29 -198 OFFCURVE",
"510.91 -165 OFFCURVE",
"514.53 -145 CURVE"
);
}
);
width = 558;
}
);
note = Eogonek;
unicode = 0118;
},
{
glyphname = Eopen;
layers = (
{
layerId = "4FCB07EB-01E7-4D87-AA20-FCB2BF85BBFF";
paths = (
{
closed = 1;
nodes = (
"333.5 405 OFFCURVE",
"311.89 450 OFFCURVE",
"334.66 527 CURVE SMOOTH",
"367.52 639 OFFCURVE",
"470.45 708 OFFCURVE",
"603.45 708 CURVE SMOOTH",
"654.45 708 OFFCURVE",
"756.6 674 OFFCURVE",
"719.97 550 CURVE",
"657.97 537 LINE",
"683.13 620 OFFCURVE",
"640.13 646 OFFCURVE",
"594.13 646 CURVE SMOOTH",
"505.13 646 OFFCURVE",
"421.82 610 OFFCURVE",
"399.27 534 CURVE SMOOTH",
"372.72 445 OFFCURVE",
"424.49 418 OFFCURVE",
"510.49 418 CURVE SMOOTH",
"541.49 418 LINE",
"535.17 343 LINE",
"505.17 343 LINE SMOOTH",
"409.4 344 OFFCURVE",
"344.55 297 OFFCURVE",
"326.01 234 CURVE SMOOTH",
"306.23 170 OFFCURVE",
"324.07 113 OFFCURVE",
"411.84 112 CURVE SMOOTH",
"475.38 110 OFFCURVE",
"541.84 112 OFFCURVE",
"551.55 258 CURVE",
"658.86 268 LINE",
"661.53 24 OFFCURVE",
"438.06 -17 OFFCURVE",
"383.06 -17 CURVE SMOOTH",
"264.06 -17 OFFCURVE",
"180.14 57 OFFCURVE",
"225.01 208 CURVE SMOOTH",
"251.56 297 OFFCURVE",
"300.41 357 OFFCURVE",
"407.1 373 CURVE"
);
}
);
width = 644;
}
);
note = uni0190;
unicode = 0190;
},
{
glyphname = Ereversed;
layers = (
{
layerId = "4FCB07EB-01E7-4D87-AA20-FCB2BF85BBFF";
paths = (
{
closed = 1;
nodes = (
"580 0 LINE",
"769.84 714 LINE",
"367.3 729 LINE",
"365.45 656 LINE",
"662.06 637 LINE",
"596.73 419 LINE",
"375.27 430 LINE",
"351.11 347 LINE",
"570.42 331 LINE",
"516.86 151 LINE",
"211.86 151 LINE",
"137 0 LINE"
);
}
);
width = 596;
}
);
note = uni018E;
unicode = 018E;
},
{
glyphname = Esh;
layers = (
{
layerId = "4FCB07EB-01E7-4D87-AA20-FCB2BF85BBFF";
paths = (
{
closed = 1;
nodes = (
"723.22 629 LINE",
"743.61 700 LINE",
"342.61 700 LINE",
"321.22 629 LINE",
"322.22 629 LINE",
"321.76 627 LINE",
"483.58 349 LINE",
"164.79 103 LINE",
"132.39 -7 LINE",
"132.62 -6 LINE",
"534.62 -6 LINE",
"566.78 103 LINE",
"261.78 103 LINE",
"505.8 311 LINE",
"506.34 309 LINE",
"527.96 381 LINE",
"526.19 382 LINE",
"527.42 383 LINE",
"383.21 629 LINE"
);
}
);
width = 556;
}
);
note = uni01A9;
unicode = 01A9;
},
{
glyphname = Etilde;
layers = (
{
layerId = "4FCB07EB-01E7-4D87-AA20-FCB2BF85BBFF";
paths = (
{
closed = 1;
nodes = (
"521.62 778 LINE",
"533.55 821 OFFCURVE",
"553.09 884 OFFCURVE",
"588.86 883 CURVE SMOOTH",
"622.63 882 OFFCURVE",
"608.85 779 OFFCURVE",
"674.62 778 CURVE SMOOTH",
"723.39 777 OFFCURVE",
"753.54 782 OFFCURVE",
"798.25 928 CURVE",
"755.25 928 LINE",
"738.94 879 OFFCURVE",
"735.16 828 OFFCURVE",
"689.16 828 CURVE SMOOTH",
"649.16 828 OFFCURVE",
"662.25 928 OFFCURVE",
"602.25 928 CURVE SMOOTH",
"537.25 928 OFFCURVE",
"513.63 895 OFFCURVE",
"471.62 778 CURVE"
);
},
{
closed = 1;
nodes = (
"152 0 LINE",
"595 0 LINE",
"609.86 151 LINE",
"304.86 151 LINE",
"358.42 331 LINE",
"588.11 347 LINE",
"612.27 430 LINE",
"384.73 419 LINE",
"449.06 637 LINE",
"757.45 656 LINE",
"798.3 729 LINE",
"386.84 714 LINE"
);
}
);
width = 596;
}
);
note = uni1EBC;
unicode = 1EBC;
},
{
glyphname = Ezh;
layers = (
{
layerId = "4FCB07EB-01E7-4D87-AA20-FCB2BF85BBFF";
paths = (
{
closed = 1;
nodes = (
"585.73 406 OFFCURVE",
"615.58 427 OFFCURVE",
"727.67 527 CURVE",
"742.06 598 OFFCURVE",
"742.06 598 OFFCURVE",
"751.99 667 CURVE",
"679.91 671 OFFCURVE",
"407.99 667 OFFCURVE",
"317.99 667 CURVE",
"289.29 573 LINE",
"424.06 572 OFFCURVE",
"548.06 572 OFFCURVE",
"651.29 573 CURVE",
"534.05 468 OFFCURVE",
"473.28 430 OFFCURVE",
"339.04 325 CURVE",
"310.57 232 LINE",
"442.57 245 OFFCURVE",
"535.34 205 OFFCURVE",
"518.1 126 CURVE",
"476.7 -23 OFFCURVE",
"329.38 -111 OFFCURVE",
"241.24 27 CURVE",
"93.23 -77 LINE",
"172.37 -202 OFFCURVE",
"287.83 -200 OFFCURVE",
"317.83 -200 CURVE SMOOTH",
"513.83 -200 OFFCURVE",
"591.84 -57 OFFCURVE",
"627.71 107 CURVE SMOOTH",
"648.87 203 OFFCURVE",
"582.42 305 OFFCURVE",
"474.5 314 CURVE"
);
}
);
width = 636;
}
);
note = uni01B7;
unicode = 01B7;
},
{
glyphname = Ezhcaron;
layers = (
{
layerId = "4FCB07EB-01E7-4D87-AA20-FCB2BF85BBFF";
paths = (
{
closed = 1;
nodes = (
"572.54 743 LINE",
"617.54 743 LINE",
"672.32 807 LINE",
"832.56 938 LINE",
"782.56 938 LINE",
"619.7 839 LINE",
"518.56 938 LINE",
"469.56 938 LINE",
"552.32 807 LINE"
);
},
{
closed = 1;
nodes = (
"606.74 406 OFFCURVE",
"637.59 427 OFFCURVE",
"749.68 527 CURVE",
"764.07 598 OFFCURVE",
"764.07 598 OFFCURVE",
"774 667 CURVE",
"701.92 671 OFFCURVE",
"429 667 OFFCURVE",
"339 667 CURVE",
"311.3 573 LINE",
"446.07 572 OFFCURVE",
"570.07 572 OFFCURVE",
"673.3 573 CURVE",
"556.06 468 OFFCURVE",
"494.29 430 OFFCURVE",
"360.05 325 CURVE",
"332.58 232 LINE",
"464.58 245 OFFCURVE",
"557.35 205 OFFCURVE",
"540.11 126 CURVE",
"498.71 -23 OFFCURVE",
"350.39 -111 OFFCURVE",
"262.25 27 CURVE",
"115.24 -77 LINE",
"194.38 -202 OFFCURVE",
"309.84 -200 OFFCURVE",
"339.84 -200 CURVE SMOOTH",
"535.84 -200 OFFCURVE",
"612.85 -57 OFFCURVE",
"648.72 107 CURVE SMOOTH",
"669.88 203 OFFCURVE",
"603.43 305 OFFCURVE",
"495.51 314 CURVE"
);
}
);
width = 636;
}
);
note = uni01EE;
unicode = 01EE;
},
{
glyphname = F;
layers = (
{
layerId = "4FCB07EB-01E7-4D87-AA20-FCB2BF85BBFF";
paths = (
{
closed = 1;
nodes = (
"136 0 LINE",
"256 0 LINE",
"343.34 348 LINE",
"590.5 366 LINE",
"620.05 468 LINE",
"368.89 450 LINE",
"450.14 646 LINE",
"721.06 663 LINE",
"741.3 729 LINE",
"384.53 717 LINE"
);
}
);
width = 538;
}
);
note = F;
unicode = 0046;
},
{
glyphname = Fdotaccent;
layers = (
{
layerId = "4FCB07EB-01E7-4D87-AA20-FCB2BF85BBFF";
paths = (
{
closed = 1;
nodes = (
"554.63 882 LINE",
"524.31 781 LINE",
"616.31 781 LINE",
"647.63 882 LINE"
);
},
{
closed = 1;
nodes = (
"148 0 LINE",
"268 0 LINE",
"356.34 348 LINE",
"602.5 366 LINE",
"633.05 468 LINE",
"381.89 450 LINE",
"462.14 646 LINE",
"733.06 663 LINE",
"752.3 729 LINE",
"397.53 717 LINE"
);
}
);
width = 538;
}
);
note = uni1E1E;
unicode = 1E1E;
},
{
glyphname = Fhook;
layers = (
{
layerId = "4FCB07EB-01E7-4D87-AA20-FCB2BF85BBFF";
paths = (
{
closed = 1;
nodes = (
"705.07 663 LINE",
"724.31 729 LINE",
"369.54 717 LINE",
"125.93 17 LINE",
"99.77 -27 OFFCURVE",
"60.92 -61 OFFCURVE",
"5.92 -61 CURVE",
"-15.08 -113 OFFCURVE",
"-23.63 -137 OFFCURVE",
"-40.86 -190 CURVE",
"78.14 -190 OFFCURVE",
"225.84 -109 OFFCURVE",
"249.31 -29 CURVE",
"251.62 -19 OFFCURVE",
"248.54 -2 OFFCURVE",
"243.93 17 CURVE",
"328.35 348 LINE",
"574.51 366 LINE",
"605.06 468 LINE",
"353.9 450 LINE",
"434.15 646 LINE"
);
}
);
width = 538;
}
);
note = uni0191;
unicode = 0191;
},
{
glyphname = G;
layers = (
{
layerId = "4FCB07EB-01E7-4D87-AA20-FCB2BF85BBFF";
paths = (
{
closed = 1;
nodes = (
"672.02 182 LINE",
"643.25 157 OFFCURVE",
"585.48 145 OFFCURVE",
"521.48 145 CURVE SMOOTH",
"358.48 145 OFFCURVE",
"296.79 194 OFFCURVE",
"343.35 374 CURVE",
"426.99 654 OFFCURVE",
"512.53 665 OFFCURVE",
"675.53 665 CURVE SMOOTH",
"720.53 665 OFFCURVE",
"789.61 661 OFFCURVE",
"854.68 644 CURVE",
"867.69 722 LINE",
"847.61 726 OFFCURVE",
"776.92 736 OFFCURVE",
"689.92 736 CURVE SMOOTH",
"480.92 736 OFFCURVE",
"341.15 685 OFFCURVE",
"246.04 364 CURVE SMOOTH",
"175.09 126 OFFCURVE",
"257.77 -14 OFFCURVE",
"466.77 -14 CURVE SMOOTH",
"561.77 -14 OFFCURVE",
"627.77 -14 OFFCURVE",
"718.24 40 CURVE",
"769.8 246 LINE",
"831.57 245 LINE",
"844.73 341 LINE",
"596.12 373 LINE",
"577.42 279 LINE",
"695.26 261 LINE"
);
}
);
width = 777;
}
);
note = G;
unicode = 0047;
},
{
glyphname = Gacute;
layers = (
{
layerId = "4FCB07EB-01E7-4D87-AA20-FCB2BF85BBFF";
paths = (
{
closed = 1;
nodes = (
"776.48 929 LINE",
"661.93 775 LINE",
"730.93 775 LINE",
"823.48 929 LINE"
);
},
{
closed = 1;
nodes = (
"688.02 182 LINE",
"659.25 157 OFFCURVE",
"600.48 145 OFFCURVE",
"536.48 145 CURVE SMOOTH",
"373.48 145 OFFCURVE",
"311.79 194 OFFCURVE",
"358.35 374 CURVE",
"441.99 654 OFFCURVE",
"528.53 665 OFFCURVE",
"691.53 665 CURVE SMOOTH",
"736.53 665 OFFCURVE",
"805.61 661 OFFCURVE",
"870.68 644 CURVE",
"882.69 722 LINE",
"862.61 726 OFFCURVE",
"792.92 736 OFFCURVE",
"705.92 736 CURVE SMOOTH",
"496.92 736 OFFCURVE",
"356.15 685 OFFCURVE",
"261.04 364 CURVE SMOOTH",
"190.09 126 OFFCURVE",
"272.77 -14 OFFCURVE",
"481.77 -14 CURVE SMOOTH",
"576.77 -14 OFFCURVE",
"642.77 -14 OFFCURVE",
"733.24 40 CURVE",
"784.8 246 LINE",
"846.57 245 LINE",
"860.73 341 LINE",
"611.12 373 LINE",
"593.42 279 LINE",
"711.26 261 LINE"
);
}
);
width = 777;
}
);
note = uni01F4;
unicode = 01F4;
},
{
glyphname = Gbreve;
layers = (
{
layerId = "4FCB07EB-01E7-4D87-AA20-FCB2BF85BBFF";
paths = (
{
closed = 1;
nodes = (
"798 745 OFFCURVE",
"907.08 819 OFFCURVE",
"943.48 942 CURVE",
"884.48 942 LINE",
"858.4 855 OFFCURVE",
"814.93 840 OFFCURVE",
"728.93 840 CURVE SMOOTH",
"655.93 840 OFFCURVE",
"618.16 854 OFFCURVE",
"643.48 942 CURVE",
"583.48 942 LINE",
"547.08 819 OFFCURVE",
"603 745 OFFCURVE",
"701 745 CURVE SMOOTH"
);
},
{
closed = 1;
nodes = (
"847.57 245 LINE",
"861.73 341 LINE",
"612.12 373 LINE",
"593.42 279 LINE",
"712.26 261 LINE",
"689.02 182 LINE",
"660.25 157 OFFCURVE",
"601.48 145 OFFCURVE",
"537.48 145 CURVE SMOOTH",
"374.48 145 OFFCURVE",
"312.79 194 OFFCURVE",
"359.35 374 CURVE",
"442.99 654 OFFCURVE",
"529.53 665 OFFCURVE",
"692.53 665 CURVE SMOOTH",
"737.53 665 OFFCURVE",
"806.61 661 OFFCURVE",
"871.68 644 CURVE",
"883.69 722 LINE",
"863.61 726 OFFCURVE",
"792.92 736 OFFCURVE",
"705.92 736 CURVE SMOOTH",
"496.92 736 OFFCURVE",
"357.15 685 OFFCURVE",
"262.04 364 CURVE SMOOTH",
"191.09 126 OFFCURVE",
"273.77 -14 OFFCURVE",
"482.77 -14 CURVE SMOOTH",
"577.77 -14 OFFCURVE",
"643.77 -14 OFFCURVE",
"734.24 40 CURVE",
"785.8 246 LINE"
);
}
);
width = 777;
}
);
note = Gbreve;
unicode = 011E;
},
{
glyphname = Gcaron;
layers = (
{
layerId = "4FCB07EB-01E7-4D87-AA20-FCB2BF85BBFF";
paths = (
{
closed = 1;
nodes = (
"691.84 766 LINE",
"736.84 766 LINE",
"791.62 830 LINE",
"951.86 961 LINE",
"901.86 961 LINE",
"739 862 LINE",
"637.86 961 LINE",
"588.86 961 LINE",
"671.62 830 LINE"
);
},
{
closed = 1;
nodes = (
"690.02 182 LINE",
"661.25 157 OFFCURVE",
"602.48 145 OFFCURVE",
"538.48 145 CURVE SMOOTH",
"375.48 145 OFFCURVE",
"314.79 194 OFFCURVE",
"361.35 374 CURVE",
"444.99 654 OFFCURVE",
"530.53 665 OFFCURVE",
"693.53 665 CURVE SMOOTH",
"738.53 665 OFFCURVE",
"806.61 661 OFFCURVE",
"871.68 644 CURVE",
"885.69 722 LINE",
"865.61 726 OFFCURVE",
"793.92 736 OFFCURVE",
"706.92 736 CURVE SMOOTH",
"497.92 736 OFFCURVE",
"358.15 685 OFFCURVE",
"263.04 364 CURVE SMOOTH",
"192.09 126 OFFCURVE",
"275.77 -14 OFFCURVE",
"484.77 -14 CURVE SMOOTH",
"579.77 -14 OFFCURVE",
"645.77 -14 OFFCURVE",
"736.24 40 CURVE",
"787.8 246 LINE",
"849.57 245 LINE",
"862.73 341 LINE",
"614.12 373 LINE",
"595.42 279 LINE",
"714.26 261 LINE"
);
}
);
width = 777;
}
);
note = Gcaron;
unicode = 01E6;
},
{
glyphname = Gcommaaccent;
layers = (
{
layerId = "4FCB07EB-01E7-4D87-AA20-FCB2BF85BBFF";
paths = (
{
closed = 1;
nodes = (
"738.69 761 LINE",
"868.48 994 LINE",
"767.48 994 LINE",
"740.39 907 LINE",
"743.39 907 LINE",
"651.68 761 LINE"
);
},
{
closed = 1;
nodes = (
"852.55 245 LINE",
"864.71 341 LINE",
"617.1 373 LINE",
"597.4 279 LINE",
"716.24 261 LINE",
"692 182 LINE",
"663.23 157 OFFCURVE",
"605.46 145 OFFCURVE",
"541.46 145 CURVE SMOOTH",
"378.46 145 OFFCURVE",
"317.77 194 OFFCURVE",
"364.33 374 CURVE",
"447.97 654 OFFCURVE",
"533.51 665 OFFCURVE",
"696.51 665 CURVE SMOOTH",
"741.51 665 OFFCURVE",
"809.59 661 OFFCURVE",
"874.66 644 CURVE",
"888.67 722 LINE",
"868.59 726 OFFCURVE",
"796.9 736 OFFCURVE",
"709.9 736 CURVE SMOOTH",
"500.9 736 OFFCURVE",
"361.13 685 OFFCURVE",
"266.02 364 CURVE SMOOTH",
"195.07 126 OFFCURVE",
"277.75 -14 OFFCURVE",
"486.75 -14 CURVE SMOOTH",
"581.75 -14 OFFCURVE",
"648.75 -14 OFFCURVE",
"739.22 40 CURVE",
"790.78 246 LINE"
);
}
);
width = 777;
}
);
note = uni0122;
unicode = 0122;
},
{
glyphname = Gdotaccent;
layers = (
{
layerId = "4FCB07EB-01E7-4D87-AA20-FCB2BF85BBFF";
paths = (
{
closed = 1;
nodes = (
"697.32 898 LINE",
"668 797 LINE",
"760 797 LINE",
"790.32 898 LINE"
);
},
{
closed = 1;
nodes = (
"685.02 182 LINE",
"656.25 157 OFFCURVE",
"597.48 145 OFFCURVE",
"533.48 145 CURVE SMOOTH",
"370.48 145 OFFCURVE",
"310.79 194 OFFCURVE",
"357.35 374 CURVE",
"440.99 654 OFFCURVE",
"525.53 665 OFFCURVE",
"688.53 665 CURVE SMOOTH",
"733.53 665 OFFCURVE",
"802.61 661 OFFCURVE",
"867.68 644 CURVE",
"880.69 722 LINE",
"860.61 726 OFFCURVE",
"789.92 736 OFFCURVE",
"702.92 736 CURVE SMOOTH",
"493.92 736 OFFCURVE",
"353.15 685 OFFCURVE",
"258.04 364 CURVE SMOOTH",
"187.09 126 OFFCURVE",
"269.77 -14 OFFCURVE",
"478.77 -14 CURVE SMOOTH",
"573.77 -14 OFFCURVE",
"641.77 -14 OFFCURVE",
"732.24 40 CURVE",
"782.8 246 LINE",
"845.57 245 LINE",
"857.73 341 LINE",
"609.12 373 LINE",
"590.42 279 LINE",
"708.26 261 LINE"
);
}
);
width = 777;
}
);
note = Gdotaccent;
unicode = 0120;
},
{
glyphname = Ghook;
layers = (
{
layerId = "4FCB07EB-01E7-4D87-AA20-FCB2BF85BBFF";
paths = (
{
closed = 1;
nodes = (
"850.56 245 LINE",
"864.72 341 LINE",
"615.11 373 LINE",
"596.41 279 LINE",
"715.25 261 LINE",
"691.01 182 LINE",
"662.24 157 OFFCURVE",
"604.47 145 OFFCURVE",
"540.47 145 CURVE SMOOTH",
"377.47 145 OFFCURVE",
"315.78 194 OFFCURVE",
"362.34 374 CURVE",
"445.98 654 OFFCURVE",
"531.52 665 OFFCURVE",
"694.52 665 CURVE SMOOTH",
"739.52 665 OFFCURVE",
"808.6 661 OFFCURVE",
"873.67 644 CURVE",
"877.75 666 LINE",
"878.75 666 LINE",
"935.15 854 LINE SMOOTH",
"938.69 865 OFFCURVE",
"941.77 874 OFFCURVE",
"943.85 883 CURVE",
"948.77 900 LINE SMOOTH",
"957 927 OFFCURVE",
"959.23 928 OFFCURVE",
"1009.23 928 CURVE",
"1022.08 975 LINE",
"928.31 976 OFFCURVE",
"911.39 972 OFFCURVE",
"889.3 911 CURVE SMOOTH",
"883.61 895 OFFCURVE",
"882.68 891 OFFCURVE",
"879.84 883 CURVE",
"871.61 856 LINE",
"871.15 854 LINE",
"834.29 729 LINE",
"802.21 733 OFFCURVE",
"757.91 736 OFFCURVE",
"708.91 736 CURVE SMOOTH",
"499.91 736 OFFCURVE",
"360.14 685 OFFCURVE",
"265.03 364 CURVE SMOOTH",
"194.08 126 OFFCURVE",
"276.76 -14 OFFCURVE",
"485.76 -14 CURVE SMOOTH",
"580.76 -14 OFFCURVE",
"646.76 -14 OFFCURVE",
"737.23 40 CURVE",
"788.79 246 LINE"
);
}
);
width = 777;
}
);
note = uni0193;
unicode = 0193;
},
{
glyphname = H;
layers = (
{
layerId = "4FCB07EB-01E7-4D87-AA20-FCB2BF85BBFF";
paths = (
{
closed = 1;
nodes = (
"698 0 LINE",
"886.3 729 LINE",
"790.3 729 LINE",
"660.65 332 LINE",
"363.65 332 LINE",
"468.3 729 LINE",
"373.3 729 LINE",
"138 0 LINE",
"277 0 LINE",
"326.17 187 LINE",
"613.17 187 LINE",
"552 0 LINE"
);
}
);
width = 715;
}
);
note = H;
unicode = 0048;
},
{
glyphname = Hbar;
layers = (
{
layerId = "4FCB07EB-01E7-4D87-AA20-FCB2BF85BBFF";
paths = (
{
closed = 1;
nodes = (
"942.6 583 LINE",
"849.6 583 LINE",
"887.31 729 LINE",
"792.31 729 LINE",
"744.83 584 LINE",
"431.83 584 LINE",
"469.31 729 LINE",
"374.31 729 LINE",
"327.06 585 LINE",
"245.06 585 LINE",
"212.05 494 LINE",
"299.05 494 LINE",
"139 0 LINE",
"279 0 LINE",
"328.17 187 LINE",
"614.17 187 LINE",
"553 0 LINE",
"699 0 LINE",
"825.59 492 LINE",
"907.59 492 LINE"
);
},
{
closed = 1;
nodes = (
"661.65 332 LINE",
"364.65 332 LINE",
"407.82 493 LINE",
"714.82 493 LINE"
);
}
);
width = 717;
}
);
note = Hbar;
unicode = 0126;
},
{
glyphname = Hdotbelow;
layers = (
{
layerId = "4FCB07EB-01E7-4D87-AA20-FCB2BF85BBFF";
paths = (
{
closed = 1;
nodes = (
"685 0 LINE",
"872.3 729 LINE",
"778.3 729 LINE",
"647.65 332 LINE",
"350.65 332 LINE",
"455.3 729 LINE",
"360.3 729 LINE",
"125 0 LINE",
"264 0 LINE",
"314.17 187 LINE",
"600.17 187 LINE",
"539 0 LINE"
);
},
{
closed = 1;
nodes = (
"311.06 -160 LINE",
"404.06 -160 LINE",
"433.38 -59 LINE",
"340.38 -59 LINE"
);
}
);
width = 715;
}
);
note = uni1E24;
unicode = 1E24;
},
{
glyphname = Hhook;
layers = (
{
layerId = "4FCB07EB-01E7-4D87-AA20-FCB2BF85BBFF";
paths = (
{
closed = 1;
nodes = (
"699 0 LINE",
"888.3 729 LINE",
"792.3 729 LINE",
"662.65 332 LINE",
"365.65 332 LINE",
"470.3 729 LINE",
"400.3 729 LINE",
"400.99 732 LINE",
"281.99 732 OFFCURVE",
"191.67 618 OFFCURVE",
"164.66 527 CURVE SMOOTH",
"145.19 460 LINE",
"176.33 361 LINE",
"187.64 397 OFFCURVE",
"206.8 467 OFFCURVE",
"223.11 503 CURVE SMOOTH",
"244.19 551 OFFCURVE",
"280.66 592 OFFCURVE",
"332.74 601 CURVE",
"138.99 0 LINE",
"278.99 0 LINE",
"328.16 187 LINE",
"614.16 187 LINE",
"552.99 0 LINE"
);
}
);
width = 718;
}
);
note = uniA7AA;
unicode = A7AA;
},
{
glyphname = Hturned;
layers = (
{
layerId = "4FCB07EB-01E7-4D87-AA20-FCB2BF85BBFF";
paths = (
{
closed = 1;
nodes = (
"265.27 430 LINE SMOOTH",
"242.95 355 OFFCURVE",
"240.56 297 OFFCURVE",
"261.1 256 CURVE SMOOTH",
"281.86 216 OFFCURVE",
"320.25 196 OFFCURVE",
"378.25 196 CURVE SMOOTH",
"460.25 196 OFFCURVE",
"523.48 223 OFFCURVE",
"572.18 278 CURVE",
"483 0 LINE",
"598 0 LINE",
"796.53 730 LINE",
"720.53 730 LINE",
"634.12 477 LINE SMOOTH",
"616.88 424 OFFCURVE",
"592.42 383 OFFCURVE",
"557.72 354 CURVE SMOOTH",
"523.26 326 OFFCURVE",
"484.02 312 OFFCURVE",
"440.02 312 CURVE SMOOTH",
"401.02 312 OFFCURVE",
"374.1 321 OFFCURVE",
"359.25 339 CURVE SMOOTH",
"340.56 362 OFFCURVE",
"340.79 402 OFFCURVE",
"356.95 459 CURVE SMOOTH",
"432.52 730 LINE",
"358.52 730 LINE"
);
}
);
width = 615;
}
);
note = uniA78D;
unicode = A78D;
},
{
glyphname = I;
layers = (
{
layerId = "4FCB07EB-01E7-4D87-AA20-FCB2BF85BBFF";
paths = (
{
closed = 1;
nodes = (
"263 0 LINE",
"312.1 243 OFFCURVE",
"376.59 492 OFFCURVE",
"456.3 729 CURVE",
"356.3 729 LINE",
"336.91 632 OFFCURVE",
"249.41 292 OFFCURVE",
"134 0 CURVE"
);
}
);
width = 278;
}
);
note = I;
unicode = 0049;
},
{
glyphname = Iacute;
layers = (
{
layerId = "4FCB07EB-01E7-4D87-AA20-FCB2BF85BBFF";
paths = (
{
closed = 1;
nodes = (
"530.87 1013 LINE",
"415.32 859 LINE",
"484.32 859 LINE",
"576.87 1013 LINE"
);
},
{
closed = 1;
nodes = (
"286 0 LINE",
"335.1 243 OFFCURVE",
"399.59 492 OFFCURVE",
"479.3 729 CURVE",
"380.3 729 LINE",
"360.91 632 OFFCURVE",
"273.41 292 OFFCURVE",
"158 0 CURVE"
);
}
);
width = 278;
}
);
note = Iacute;
unicode = 00CD;
},
{
glyphname = Icaron;
layers = (
{
layerId = "4FCB07EB-01E7-4D87-AA20-FCB2BF85BBFF";
paths = (
{
closed = 1;
nodes = (
"446.39 829 LINE",
"490.39 829 LINE",
"545.17 893 LINE",
"705.41 1024 LINE",
"656.41 1024 LINE",
"493.55 925 LINE",
"392.41 1024 LINE",
"342.41 1024 LINE",
"425.17 893 LINE"
);
},
{
closed = 1;
nodes = (
"290 0 LINE",
"339.1 243 OFFCURVE",
"403.59 492 OFFCURVE",
"483.3 729 CURVE",
"384.3 729 LINE",
"364.91 632 OFFCURVE",
"277.41 292 OFFCURVE",
"162 0 CURVE"
);
}
);
width = 282;
}
);
note = uni01CF;
unicode = 01CF;
},
{
glyphname = Icircumflex;
layers = (
{
layerId = "4FCB07EB-01E7-4D87-AA20-FCB2BF85BBFF";
paths = (
{
closed = 1;
nodes = (
"485.25 967 LINE",
"425.47 903 LINE",
"264.23 772 LINE",
"314.23 772 LINE",
"475.09 871 LINE",
"578.23 772 LINE",
"627.23 772 LINE",
"545.47 903 LINE",
"528.25 967 LINE"
);
},
{
closed = 1;
nodes = (
"285 0 LINE",
"334.1 243 OFFCURVE",
"398.59 492 OFFCURVE",
"478.3 729 CURVE",
"378.3 729 LINE",
"358.91 632 OFFCURVE",
"271.41 292 OFFCURVE",
"156 0 CURVE"
);
}
);
width = 281;
}
);
note = Icircumflex;
unicode = 00CE;
},
{
glyphname = Idieresis;
layers = (
{
layerId = "4FCB07EB-01E7-4D87-AA20-FCB2BF85BBFF";
paths = (
{
closed = 1;
nodes = (
"315.63 921 LINE",
"285.31 820 LINE",
"378.31 820 LINE",
"407.63 921 LINE"
);
},
{
closed = 1;
nodes = (
"565.63 921 LINE",
"534.31 820 LINE",
"627.31 820 LINE",
"657.63 921 LINE"
);
},
{
closed = 1;
nodes = (
"281 0 LINE",
"330.1 243 OFFCURVE",
"394.59 492 OFFCURVE",
"474.3 729 CURVE",
"375.3 729 LINE",
"355.91 632 OFFCURVE",
"268.41 292 OFFCURVE",
"153 0 CURVE"
);
}
);
width = 281;
}
);
note = Idieresis;
unicode = 00CF;
},
{
glyphname = Idieresisacute;
layers = (
{
layerId = "4FCB07EB-01E7-4D87-AA20-FCB2BF85BBFF";
paths = (
{
closed = 1;
nodes = (
"566.26 1084 LINE",
"450.71 930 LINE",
"520.71 930 LINE",
"613.26 1084 LINE"
);
},
{
closed = 1;
nodes = (
"307.47 851 LINE",
"277.15 750 LINE",
"370.15 750 LINE",
"400.47 851 LINE"
);
},
{
closed = 1;
nodes = (
"556.47 851 LINE",
"527.15 750 LINE",
"619.15 750 LINE",
"649.47 851 LINE"
);
},
{
closed = 1;
nodes = (
"294 0 LINE",
"343.1 243 OFFCURVE",
"407.59 492 OFFCURVE",
"487.3 729 CURVE",
"387.3 729 LINE",
"367.91 632 OFFCURVE",
"281.41 292 OFFCURVE",
"166 0 CURVE"
);
}
);
width = 281;
}
);
note = uni1E2E;
unicode = 1E2E;
},
{
glyphname = Idotaccent;
layers = (
{
layerId = "4FCB07EB-01E7-4D87-AA20-FCB2BF85BBFF";
paths = (
{
closed = 1;
nodes = (
"447.86 961 LINE",
"418.54 860 LINE",
"510.54 860 LINE",
"540.86 961 LINE"
);
},
{
closed = 1;
nodes = (
"283 0 LINE",
"332.1 243 OFFCURVE",
"396.59 492 OFFCURVE",
"476.3 729 CURVE",
"375.3 729 LINE",
"355.91 632 OFFCURVE",
"269.41 292 OFFCURVE",
"154 0 CURVE"
);
}
);
width = 278;
}
);
note = Idotaccent;
unicode = 0130;
},
{
glyphname = Idotbelow;
layers = (
{
layerId = "4FCB07EB-01E7-4D87-AA20-FCB2BF85BBFF";
paths = (
{
closed = 1;
nodes = (
"250 0 LINE",
"299.1 243 OFFCURVE",
"363.59 492 OFFCURVE",
"443.3 729 CURVE",
"344.3 729 LINE",
"324.91 632 OFFCURVE",
"238.41 292 OFFCURVE",
"123 0 CURVE"
);
},
{
closed = 1;
nodes = (
"128.3 -55 LINE",
"97.98 -156 LINE",
"189.98 -156 LINE",
"220.3 -55 LINE"
);
}
);
width = 278;
}
);
note = uni1ECA;
unicode = 1ECA;
},
{
glyphname = Igrave;
layers = (
{
layerId = "4FCB07EB-01E7-4D87-AA20-FCB2BF85BBFF";
paths = (
{
closed = 1;
nodes = (
"412.01 836 LINE",
"530.55 821 LINE",
"411.87 948 LINE",
"339.87 948 LINE"
);
},
{
closed = 1;
nodes = (
"283.01 0 LINE",
"332.11 243 OFFCURVE",
"396.6 492 OFFCURVE",
"476.31 729 CURVE",
"376.31 729 LINE",
"356.92 632 OFFCURVE",
"270.42 292 OFFCURVE",
"155.01 0 CURVE"
);
}
);
width = 281;
}
);
note = Igrave;
unicode = 00CC;
},
{
glyphname = Ihookabove;
layers = (
{
layerId = "4FCB07EB-01E7-4D87-AA20-FCB2BF85BBFF";
paths = (
{
closed = 1;
nodes = (
"412.85 857 LINE",
"431.7 865 OFFCURVE",
"448.62 869 OFFCURVE",
"463.62 869 CURVE SMOOTH",
"479.62 869 OFFCURVE",
"489.7 865 OFFCURVE",
"497.31 859 CURVE SMOOTH",
"504.93 853 OFFCURVE",
"506.62 843 OFFCURVE",
"504.31 833 CURVE SMOOTH",
"502 823 OFFCURVE",
"492.46 812 OFFCURVE",
"476.15 802 CURVE",
"463.53 795 LINE SMOOTH",
"456.61 791 OFFCURVE",
"454.91 788 OFFCURVE",
"453.68 787 CURVE",
"451.99 784 OFFCURVE",
"449.06 780 OFFCURVE",
"447.91 775 CURVE",
"421.91 775 LINE",
"422.6 778 LINE SMOOTH",
"423.99 784 OFFCURVE",
"427.37 790 OFFCURVE",
"430.29 794 CURVE",
"434.44 799 OFFCURVE",
"440.37 803 OFFCURVE",
"449.75 809 CURVE",
"461.83 818 LINE",
"469.98 823 OFFCURVE",
"475.37 829 OFFCURVE",
"476.75 835 CURVE SMOOTH",
"478.13 841 OFFCURVE",
"472.98 849 OFFCURVE",
"451.98 849 CURVE SMOOTH",
"437.98 849 OFFCURVE",
"423.83 844 OFFCURVE",
"406.98 836 CURVE"
);
},
{
closed = 1;
nodes = (
"274.97 0 LINE",
"324.07 243 OFFCURVE",
"387.56 492 OFFCURVE",
"467.27 729 CURVE",
"368.27 729 LINE",
"348.88 632 OFFCURVE",
"262.38 292 OFFCURVE",
"146.97 0 CURVE"
);
}
);
width = 278;
}
);
note = uni1EC8;
unicode = 1EC8;
},
{
glyphname = Imacron;
layers = (
{
layerId = "4FCB07EB-01E7-4D87-AA20-FCB2BF85BBFF";
paths = (
{
closed = 1;
nodes = (
"310.32 911 LINE",
"261.16 841 LINE",
"674.08 858 LINE",
"670.86 935 LINE"
);
},
{
closed = 1;
nodes = (
"283 0 LINE",
"332.1 243 OFFCURVE",
"396.59 492 OFFCURVE",
"476.3 729 CURVE",
"376.3 729 LINE",
"356.91 632 OFFCURVE",
"269.41 292 OFFCURVE",
"154 0 CURVE"
);
}
);
width = 281;
}
);
note = Imacron;
unicode = 012A;
},
{
glyphname = Iogonek;
layers = (
{
layerId = "4FCB07EB-01E7-4D87-AA20-FCB2BF85BBFF";
paths = (
{
closed = 1;
nodes = (
"97.22 -129 OFFCURVE",
"80.76 -118 OFFCURVE",
"86.38 -98 CURVE SMOOTH",
"92.23 -77 OFFCURVE",
"123.85 -44 OFFCURVE",
"178.01 0 CURVE",
"247.01 0 LINE",
"296.11 243 OFFCURVE",
"360.6 492 OFFCURVE",
"440.31 729 CURVE",
"340.31 729 LINE",
"320.92 632 OFFCURVE",
"234.42 292 OFFCURVE",
"119.01 0 CURVE",
"123.01 0 LINE",
"71.54 -41 OFFCURVE",
"42 -78 OFFCURVE",
"33.08 -108 CURVE SMOOTH",
"16.15 -164 OFFCURVE",
"67.76 -196 OFFCURVE",
"174.23 -194 CURVE",
"176.15 -177 OFFCURVE",
"181.77 -144 OFFCURVE",
"185.39 -124 CURVE",
"165.7 -127 OFFCURVE",
"148.24 -129 OFFCURVE",
"134.24 -129 CURVE SMOOTH"
);
}
);
width = 551;
}
);
note = Iogonek;
unicode = 012E;
},
{
glyphname = Iotaafrican;
layers = (
{
layerId = "4FCB07EB-01E7-4D87-AA20-FCB2BF85BBFF";
paths = (
{
closed = 1;
nodes = (
"291.63 137 LINE",
"332.27 365 OFFCURVE",
"383.9 541 OFFCURVE",
"448.15 737 CURVE",
"376.15 737 LINE",
"299.12 477 OFFCURVE",
"259.73 367 OFFCURVE",
"180.78 142 CURVE",
"170.01 104 LINE SMOOTH",
"152.16 44 OFFCURVE",
"146.38 -7 OFFCURVE",
"195.38 -7 CURVE SMOOTH",
"317.38 -7 LINE",
"342.77 77 LINE",
"310.85 73 OFFCURVE",
"276.69 68 OFFCURVE",
"289.62 137 CURVE"
);
}
);
width = 331;
}
);
note = uni0196;
unicode = 0196;
},
{
glyphname = Istroke;
layers = (
{
layerId = "4FCB07EB-01E7-4D87-AA20-FCB2BF85BBFF";
paths = (
{
closed = 1;
nodes = (
"423.65 397 LINE",
"355.65 397 LINE",
"385.51 509 OFFCURVE",
"419.13 620 OFFCURVE",
"456.3 729 CURVE",
"356.3 729 LINE",
"345.06 676 OFFCURVE",
"314.74 549 OFFCURVE",
"269.65 397 CURVE",
"205.65 397 LINE",
"178.64 306 LINE",
"241.64 306 LINE",
"211.55 206 OFFCURVE",
"174.08 100 OFFCURVE",
"133.99 0 CURVE",
"262.99 0 LINE",
"282.31 101 OFFCURVE",
"307.09 204 OFFCURVE",
"332.64 306 CURVE",
"397.64 306 LINE"
);
}
);
width = 278;
}
);
note = uni0197;
unicode = 0197;
},
{
glyphname = Itilde;
layers = (
{
layerId = "4FCB07EB-01E7-4D87-AA20-FCB2BF85BBFF";
paths = (
{
closed = 1;
nodes = (
"354.62 791 LINE",
"366.55 834 OFFCURVE",
"386.09 897 OFFCURVE",
"421.86 896 CURVE SMOOTH",
"455.63 895 OFFCURVE",
"440.85 792 OFFCURVE",
"506.62 791 CURVE SMOOTH",
"555.39 790 OFFCURVE",
"586.54 795 OFFCURVE",
"631.25 941 CURVE",
"588.25 941 LINE",
"571.94 892 OFFCURVE",
"568.16 841 OFFCURVE",
"522.16 841 CURVE SMOOTH",
"482.16 841 OFFCURVE",
"495.25 941 OFFCURVE",
"435.25 941 CURVE SMOOTH",
"370.25 941 OFFCURVE",
"346.63 908 OFFCURVE",
"304.62 791 CURVE"
);
},
{
closed = 1;
nodes = (
"282 0 LINE",
"331.1 243 OFFCURVE",
"395.59 492 OFFCURVE",
"475.3 729 CURVE",
"375.3 729 LINE",
"355.91 632 OFFCURVE",
"269.41 292 OFFCURVE",
"154 0 CURVE"
);
}
);
width = 280;
}
);
note = Itilde;
unicode = 0128;
},
{
glyphname = J;
layers = (
{
layerId = "4FCB07EB-01E7-4D87-AA20-FCB2BF85BBFF";
paths = (
{
closed = 1;
nodes = (
"521.84 727 LINE",
"626.84 727 LINE",
"388.16 31 LINE SMOOTH",
"327.53 -145 OFFCURVE",
"256.75 -209 OFFCURVE",
"113.29 -211 CURVE",
"54.67 -205 LINE",
"109.84 -44 LINE",
"152.3 -55 LINE SMOOTH",
"224.91 -74 OFFCURVE",
"277.3 -16 OFFCURVE",
"295.54 37 CURVE SMOOTH"
);
}
);
width = 443;
}
);
note = J;
unicode = 004A;
},
{
glyphname = K;
layers = (
{
layerId = "4FCB07EB-01E7-4D87-AA20-FCB2BF85BBFF";
paths = (
{
closed = 1;
nodes = (
"137 0 LINE",
"254 0 LINE",
"351.72 289 LINE",
"445 0 LINE",
"659 0 LINE",
"445.49 327 LINE",
"788.3 729 LINE",
"672.3 729 LINE",
"371.88 359 LINE",
"494.3 729 LINE",
"413.3 729 LINE"
);
}
);
width = 676;
}
);
note = K;
unicode = 004B;
},
{
glyphname = Kcommaaccent;
layers = (
{
layerId = "4FCB07EB-01E7-4D87-AA20-FCB2BF85BBFF";
paths = (
{
closed = 1;
nodes = (
"678.69 774 LINE",
"808.48 1007 LINE",
"707.48 1007 LINE",
"681.39 920 LINE",
"684.39 920 LINE",
"591.68 774 LINE"
);
},
{
closed = 1;
nodes = (
"468.48 327 LINE",
"810.29 729 LINE",
"694.29 729 LINE",
"393.87 359 LINE",
"515.29 729 LINE",
"435.29 729 LINE",
"158.99 0 LINE",
"275.99 0 LINE",
"372.71 289 LINE",
"466.99 0 LINE",
"679.99 0 LINE"
);
}
);
width = 676;
}
);
note = uni0136;
unicode = 0136;
},
{
glyphname = Khook;
layers = (
{
layerId = "4FCB07EB-01E7-4D87-AA20-FCB2BF85BBFF";
paths = (
{
closed = 1;
nodes = (
"449.49 327 LINE",
"708.67 631 LINE",
"732.75 614 OFFCURVE",
"738.13 581 OFFCURVE",
"732.82 545 CURVE SMOOTH",
"727.51 509 OFFCURVE",
"707.35 439 OFFCURVE",
"696.04 403 CURVE",
"784.9 502 LINE",
"805.37 569 LINE SMOOTH",
"820.84 623 OFFCURVE",
"820.38 686 OFFCURVE",
"790.85 727 CURVE",
"792.31 729 LINE",
"789.31 729 LINE",
"770.54 756 OFFCURVE",
"737.7 774 OFFCURVE",
"691.7 774 CURVE",
"686.78 757 OFFCURVE",
"683.31 742 OFFCURVE",
"679.31 729 CURVE",
"676.31 729 LINE",
"374.89 359 LINE",
"497.31 729 LINE",
"416.31 729 LINE",
"141.01 0 LINE",
"258.01 0 LINE",
"353.73 289 LINE",
"448.01 0 LINE",
"662.01 0 LINE"
);
}
);
width = 676;
}
);
note = uni0198;
unicode = 0198;
},
{
glyphname = L;
layers = (
{
layerId = "4FCB07EB-01E7-4D87-AA20-FCB2BF85BBFF";
paths = (
{
closed = 1;
nodes = (
"137 0 LINE",
"566 0 LINE",
"601.86 151 LINE",
"275.47 145 LINE",
"449.3 729 LINE",
"377.3 729 LINE"
);
}
);
width = 583;
}
);
note = L;
unicode = 004C;
},
{
glyphname = LJ;
layers = (
{
layerId = "4FCB07EB-01E7-4D87-AA20-FCB2BF85BBFF";
paths = (
{
closed = 1;
nodes = (
"123 0 LINE",
"553 0 LINE",
"587.86 151 LINE",
"261.47 145 LINE",
"435.3 729 LINE",
"364.3 729 LINE"
);
},
{
closed = 1;
nodes = (
"1103.84 727 LINE",
"1208.84 727 LINE",
"971.16 31 LINE SMOOTH",
"910.53 -145 OFFCURVE",
"840.75 -209 OFFCURVE",
"697.29 -211 CURVE",
"637.67 -205 LINE",
"692.84 -44 LINE",
"734.3 -55 LINE SMOOTH",
"806.91 -74 OFFCURVE",
"859.3 -16 OFFCURVE",
"877.54 37 CURVE SMOOTH"
);
}
);
width = 1030;
}
);
note = uni01C7;
unicode = 01C7;
},
{
glyphname = Lacute;
layers = (
{
layerId = "4FCB07EB-01E7-4D87-AA20-FCB2BF85BBFF";
paths = (
{
closed = 1;
nodes = (
"509.48 942 LINE",
"394.93 788 LINE",
"463.93 788 LINE",
"556.48 942 LINE"
);
},
{
closed = 1;
nodes = (
"155 0 LINE",
"583 0 LINE",
"619.86 151 LINE",
"292.47 145 LINE",
"466.3 729 LINE",
"395.3 729 LINE"
);
}
);
width = 584;
}
);
note = Lacute;
unicode = 0139;
},
{
glyphname = Lcaron;
layers = (
{
layerId = "4FCB07EB-01E7-4D87-AA20-FCB2BF85BBFF";
paths = (
{
closed = 1;
nodes = (
"641.44 526 LINE",
"715.61 739 LINE",
"644.61 739 LINE",
"555.44 526 LINE"
);
},
{
closed = 1;
nodes = (
"138 0 LINE",
"567 0 LINE",
"602.86 151 LINE",
"276.47 145 LINE",
"450.3 729 LINE",
"378.3 729 LINE"
);
}
);
width = 583;
}
);
note = Lcaron;
unicode = 013D;
},
{
glyphname = Lcircumflexbelow;
layers = (
{
layerId = "4FCB07EB-01E7-4D87-AA20-FCB2BF85BBFF";
paths = (
{
closed = 1;
nodes = (
"112 0 LINE",
"542 0 LINE",
"577.86 151 LINE",
"250.47 145 LINE",
"424.3 729 LINE",
"353.3 729 LINE"
);
},
{
closed = 1;
nodes = (
"281.06 -108 LINE",
"221.28 -172 LINE",
"61.04 -303 LINE",
"110.04 -303 LINE",
"269.9 -204 LINE",
"374.04 -303 LINE",
"423.04 -303 LINE",
"341.28 -172 LINE",
"324.06 -108 LINE"
);
}
);
width = 584;
}
);
note = uni1E3C;
unicode = 1E3C;
},
{
glyphname = Lcommaaccent;
layers = (
{
layerId = "4FCB07EB-01E7-4D87-AA20-FCB2BF85BBFF";
paths = (
{
closed = 1;
nodes = (
"470.69 774 LINE",
"601.48 1007 LINE",
"500.48 1007 LINE",
"473.39 920 LINE",
"476.39 920 LINE",
"384.68 774 LINE"
);
},
{
closed = 1;
nodes = (
"624.85 151 LINE",
"297.46 145 LINE",
"471.29 729 LINE",
"400.29 729 LINE",
"158.99 0 LINE",
"588.99 0 LINE"
);
}
);
width = 584;
}
);
note = uni013B;
unicode = 013B;
},
{
glyphname = Ldot;
layers = (
{
layerId = "4FCB07EB-01E7-4D87-AA20-FCB2BF85BBFF";
paths = (
{
closed = 1;
nodes = (
"137 0 LINE",
"566 0 LINE",
"601.86 151 LINE",
"275.47 145 LINE",
"449.3 729 LINE",
"377.3 729 LINE"
);
},
{
closed = 1;
nodes = (
"611.14 698 LINE",
"581.82 597 LINE",
"674.82 597 LINE",
"704.14 698 LINE"
);
}
);
width = 583;
}
);
note = Ldot;
unicode = 013F;
},
{
glyphname = Ldotbelow;
layers = (
{
layerId = "4FCB07EB-01E7-4D87-AA20-FCB2BF85BBFF";
paths = (
{
closed = 1;
nodes = (
"124 0 LINE",
"554 0 LINE",
"589.86 151 LINE",
"262.47 145 LINE",
"436.3 729 LINE",
"365.3 729 LINE"
);
},
{
closed = 1;
nodes = (
"278.53 -54 LINE",
"248.21 -155 LINE",
"341.21 -155 LINE",
"370.53 -54 LINE"
);
}
);
width = 583;
}
);
note = uni1E36;
unicode = 1E36;
},
{
glyphname = Lj;
layers = (
{
layerId = "4FCB07EB-01E7-4D87-AA20-FCB2BF85BBFF";
paths = (
{
closed = 1;
nodes = (
"117 0 LINE",
"546 0 LINE",
"582.86 151 LINE",
"255.47 145 LINE",
"429.3 729 LINE",
"357.3 729 LINE"
);
},
{
closed = 1;
nodes = (
"894.45 708 LINE",
"865.13 607 LINE",
"957.13 607 LINE",
"987.45 708 LINE"
);
},
{
closed = 1;
nodes = (
"558.28 -172 OFFCURVE",
"555.51 -171 OFFCURVE",
"515.13 -151 CURVE",
"461.27 -263 LINE",
"500.81 -265 OFFCURVE",
"601.42 -271 OFFCURVE",
"636.58 -240 CURVE SMOOTH",
"667.81 -213 OFFCURVE",
"687.82 -161 OFFCURVE",
"726.52 -54 CURVE SMOOTH",
"916.8 480 LINE",
"838.8 480 LINE",
"708.99 78 OFFCURVE",
"663.52 -67 OFFCURVE",
"612.74 -118 CURVE SMOOTH"
);
}
);
width = 588;
}
);
note = uni01C8;
unicode = 01C8;
},
{
glyphname = Lmiddletilde;
layers = (
{
layerId = "4FCB07EB-01E7-4D87-AA20-FCB2BF85BBFF";
paths = (
{
closed = 1;
nodes = (
"567 0 LINE",
"601.86 151 LINE",
"275.47 145 LINE",
"318.95 290 LINE",
"329.87 281 OFFCURVE",
"344.49 275 OFFCURVE",
"364.49 275 CURVE SMOOTH",
"428.26 274 OFFCURVE",
"465.41 279 OFFCURVE",
"511.12 425 CURVE",
"457.12 425 LINE",
"439.81 376 OFFCURVE",
"437.03 325 OFFCURVE",
"378.03 325 CURVE SMOOTH",
"358.03 325 OFFCURVE",
"350.26 339 OFFCURVE",
"339.19 356 CURVE",
"449.3 729 LINE",
"378.3 729 LINE",
"276.65 423 LINE",
"270.88 424 OFFCURVE",
"265.11 425 OFFCURVE",
"258.11 425 CURVE SMOOTH",
"174.11 425 OFFCURVE",
"146.49 392 OFFCURVE",
"102.48 275 CURVE",
"167.48 275 LINE",
"179.41 318 OFFCURVE",
"199.95 381 OFFCURVE",
"244.72 380 CURVE SMOOTH",
"251.72 380 OFFCURVE",
"255.26 378 OFFCURVE",
"260.34 374 CURVE",
"137 0 LINE"
);
}
);
width = 585;
}
);
note = uni2C62;
unicode = 2C62;
},
{
glyphname = Lslash;
layers = (
{
layerId = "4FCB07EB-01E7-4D87-AA20-FCB2BF85BBFF";
paths = (
{
closed = 1;
nodes = (
"567 0 LINE",
"602.86 151 LINE",
"275.47 145 LINE",
"354.88 411 LINE",
"596.13 581 LINE",
"552.13 607 LINE",
"380.04 494 LINE",
"449.29 729 LINE",
"379.29 729 LINE",
"278.8 428 LINE",
"61.79 285 LINE",
"146.71 263 LINE",
"248.33 335 LINE",
"136.99 0 LINE"
);
}
);
width = 586;
}
);
note = Lslash;
unicode = 0141;
},
{
glyphname = M;
layers = (
{
layerId = "4FCB07EB-01E7-4D87-AA20-FCB2BF85BBFF";
paths = (
{
closed = 1;
nodes = (
"139 0 LINE",
"270 0 LINE",
"426.91 671 LINE",
"436.54 63 LINE",
"535.54 63 LINE",
"889.91 671 LINE",
"644 0 LINE",
"792 0 LINE",
"981.3 729 LINE",
"855.3 729 LINE",
"555.72 289 LINE",
"514.3 729 LINE",
"379.3 729 LINE"
);
}
);
width = 811;
}
);
note = M;
unicode = 004D;
},
{
glyphname = Macute;
layers = (
{
layerId = "4FCB07EB-01E7-4D87-AA20-FCB2BF85BBFF";
paths = (
{
closed = 1;
nodes = (
"768.78 913 LINE",
"654.23 759 LINE",
"723.23 759 LINE",
"815.78 913 LINE"
);
},
{
closed = 1;
nodes = (
"153 0 LINE",
"284 0 LINE",
"441.91 671 LINE",
"450.54 63 LINE",
"551.54 63 LINE",
"904.91 671 LINE",
"660 0 LINE",
"807 0 LINE",
"995.3 729 LINE",
"870.3 729 LINE",
"569.72 289 LINE",
"528.3 729 LINE",
"394.3 729 LINE"
);
}
);
width = 811;
}
);
note = uni1E3E;
unicode = 1E3E;
},
{
glyphname = Mdotaccent;
layers = (
{
layerId = "4FCB07EB-01E7-4D87-AA20-FCB2BF85BBFF";
paths = (
{
closed = 1;
nodes = (
"689.63 882 LINE",
"659.31 781 LINE",
"752.31 781 LINE",
"782.63 882 LINE"
);
},
{
closed = 1;
nodes = (
"150 0 LINE",
"282 0 LINE",
"438.91 671 LINE",
"448.54 63 LINE",
"548.54 63 LINE",
"902.91 671 LINE",
"657 0 LINE",
"804 0 LINE",
"993.3 729 LINE",
"867.3 729 LINE",
"568.72 289 LINE",
"526.3 729 LINE",
"391.3 729 LINE"
);
}
);
width = 811;
}
);
note = uni1E40;
unicode = 1E40;
},
{
glyphname = N;
layers = (
{
layerId = "4FCB07EB-01E7-4D87-AA20-FCB2BF85BBFF";
paths = (
{
closed = 1;
nodes = (
"137 0 LINE",
"284 0 LINE",
"449.21 616 LINE",
"500 0 LINE",
"647 0 LINE",
"899.84 727 LINE",
"816.84 727 LINE",
"596.09 139 LINE",
"510.61 700 LINE",
"397.61 700 LINE"
);
}
);
width = 701;
}
);
note = N;
unicode = 004E;
},
{
glyphname = NJ;
layers = (
{
layerId = "4FCB07EB-01E7-4D87-AA20-FCB2BF85BBFF";
paths = (
{
closed = 1;
nodes = (
"123 0 LINE",
"270 0 LINE",
"435.21 616 LINE",
"486 0 LINE",
"633 0 LINE",
"885.84 727 LINE",
"802.84 727 LINE",
"583.09 139 LINE",
"497.61 700 LINE",
"384.61 700 LINE"
);
},
{
closed = 1;
nodes = (
"1221.84 727 LINE",
"1326.84 727 LINE",
"1088.16 31 LINE SMOOTH",
"1027.53 -145 OFFCURVE",
"956.75 -209 OFFCURVE",
"813.29 -211 CURVE",
"754.67 -205 LINE",
"809.84 -44 LINE",
"852.3 -55 LINE SMOOTH",
"924.91 -74 OFFCURVE",
"976.3 -16 OFFCURVE",
"994.54 37 CURVE SMOOTH"
);
}
);
width = 1148;
}
);
note = uni01CA;
unicode = 01CA;
},
{
glyphname = Nacute;
layers = (
{
layerId = "4FCB07EB-01E7-4D87-AA20-FCB2BF85BBFF";
paths = (
{
closed = 1;
nodes = (
"758.48 942 LINE",
"642.93 788 LINE",
"712.93 788 LINE",
"804.48 942 LINE"
);
},
{
closed = 1;
nodes = (
"154 0 LINE",
"301 0 LINE",
"466.21 616 LINE",
"517 0 LINE",
"664 0 LINE",
"916.84 727 LINE",
"833.84 727 LINE",
"614.09 139 LINE",
"527.61 700 LINE",
"415.61 700 LINE"
);
}
);
width = 701;
}
);
note = Nacute;
unicode = 0143;
},
{
glyphname = Ncaron;
layers = (
{
layerId = "4FCB07EB-01E7-4D87-AA20-FCB2BF85BBFF";
paths = (
{
closed = 1;
nodes = (
"673.85 779 LINE",
"718.85 779 LINE",
"772.63 843 LINE",
"932.87 974 LINE",
"882.87 974 LINE",
"721.01 875 LINE",
"619.87 974 LINE",
"570.87 974 LINE",
"653.63 843 LINE"
);
},
{
closed = 1;
nodes = (
"156.01 0 LINE",
"304.01 0 LINE",
"469.22 616 LINE",
"519.01 0 LINE",
"667.01 0 LINE",
"919.85 727 LINE",
"836.85 727 LINE",
"616.1 139 LINE",
"530.62 700 LINE",
"417.62 700 LINE"
);
}
);
width = 701;
}
);
note = Ncaron;
unicode = 0147;
},
{
glyphname = Ncircumflexbelow;
layers = (
{
layerId = "4FCB07EB-01E7-4D87-AA20-FCB2BF85BBFF";
paths = (
{
closed = 1;
nodes = (
"111 0 LINE",
"259 0 LINE",
"424.21 616 LINE",
"474 0 LINE",
"622 0 LINE",
"874.84 727 LINE",
"791.84 727 LINE",
"572.09 139 LINE",
"485.61 700 LINE",
"373.61 700 LINE"
);
},
{
closed = 1;
nodes = (
"335.91 -113 LINE",
"276.13 -177 LINE",
"114.89 -308 LINE",
"164.89 -308 LINE",
"325.75 -209 LINE",
"428.89 -308 LINE",
"477.89 -308 LINE",
"396.13 -177 LINE",
"378.91 -113 LINE"
);
}
);
width = 701;
}
);
note = uni1E4A;
unicode = 1E4A;
},
{
glyphname = Ncommaaccent;
layers = (
{
layerId = "4FCB07EB-01E7-4D87-AA20-FCB2BF85BBFF";
paths = (
{
closed = 1;
nodes = (
"792.84 727 LINE",
"573.09 139 LINE",
"487.61 700 LINE",
"374.61 700 LINE",
"113 0 LINE",
"260 0 LINE",
"425.21 616 LINE",
"476 0 LINE",
"623 0 LINE",
"876.84 727 LINE"
);
},
{
closed = 1;
nodes = (
"588.38 -59 LINE",
"487.38 -59 LINE",
"460.29 -146 LINE",
"463.29 -146 LINE",
"371.58 -292 LINE",
"458.58 -292 LINE"
);
}
);
width = 701;
}
);
note = uni0145;
unicode = 0145;
},
{
glyphname = Ndotaccent;
layers = (
{
layerId = "4FCB07EB-01E7-4D87-AA20-FCB2BF85BBFF";
paths = (
{
closed = 1;
nodes = (
"679.32 911 LINE",
"649 810 LINE",
"741 810 LINE",
"771.32 911 LINE"
);
},
{
closed = 1;
nodes = (
"151 0 LINE",
"298 0 LINE",
"464.21 616 LINE",
"514 0 LINE",
"661 0 LINE",
"914.84 727 LINE",
"830.84 727 LINE",
"611.09 139 LINE",
"525.61 700 LINE",
"413.61 700 LINE"
);
}
);
width = 701;
}
);
note = uni1E44;
unicode = 1E44;
},
{
glyphname = Ndotbelow;
layers = (
{
layerId = "4FCB07EB-01E7-4D87-AA20-FCB2BF85BBFF";
paths = (
{
closed = 1;
nodes = (
"124 0 LINE",
"271 0 LINE",
"436.21 616 LINE",
"487 0 LINE",
"634 0 LINE",
"886.84 727 LINE",
"803.84 727 LINE",
"584.09 139 LINE",
"497.61 700 LINE",
"384.61 700 LINE"
);
},
{
closed = 1;
nodes = (
"333.38 -59 LINE",
"303.06 -160 LINE",
"395.06 -160 LINE",
"426.38 -59 LINE"
);
}
);
width = 701;
}
);
note = uni1E46;
unicode = 1E46;
},
{
glyphname = Ngrave;
layers = (
{
layerId = "4FCB07EB-01E7-4D87-AA20-FCB2BF85BBFF";
paths = (
{
closed = 1;
nodes = (
"647.77 744 LINE",
"766.31 729 LINE",
"647.63 856 LINE",
"574.63 856 LINE"
);
},
{
closed = 1;
nodes = (
"147.01 0 LINE",
"295.01 0 LINE",
"459.22 616 LINE",
"510.01 0 LINE",
"657.01 0 LINE",
"910.85 727 LINE",
"826.85 727 LINE",
"607.1 139 LINE",
"521.62 700 LINE",
"408.62 700 LINE"
);
}
);
width = 701;
}
);
note = uni01F8;
unicode = 01F8;
},
{
glyphname = Eng;
layers = (
{
layerId = "4FCB07EB-01E7-4D87-AA20-FCB2BF85BBFF";
paths = (
{
closed = 1;
nodes = (
"886.84 727 LINE",
"802.84 727 LINE",
"583.09 139 LINE",
"497.61 700 LINE",
"384.61 700 LINE",
"123 0 LINE",
"270 0 LINE",
"435.21 616 LINE",
"486 0 LINE",
"464.84 -70 OFFCURVE",
"457.68 -88 OFFCURVE",
"393.68 -88 CURVE SMOOTH",
"344.68 -88 LINE",
"338.14 -99 OFFCURVE",
"307.9 -152 OFFCURVE",
"301.83 -161 CURVE",
"341.6 -175 OFFCURVE",
"526.37 -163 OFFCURVE",
"559.91 -139 CURVE SMOOTH",
"583.6 -123 OFFCURVE",
"610.38 -85 OFFCURVE",
"637.77 12 CURVE"
);
}
);
width = 701;
}
);
note = Eng;
unicode = 014A;
},
{
glyphname = Nhookleft;
layers = (
{
layerId = "4FCB07EB-01E7-4D87-AA20-FCB2BF85BBFF";
paths = (
{
closed = 1;
nodes = (
"802.84 727 LINE",
"583.09 139 LINE",
"497.61 700 LINE",
"384.61 700 LINE",
"128.7 16 LINE",
"104.54 -15 OFFCURVE",
"69.46 -37 OFFCURVE",
"25.46 -37 CURVE",
"4.46 -89 OFFCURVE",
"-4.09 -113 OFFCURVE",
"-21.32 -166 CURVE",
"97.68 -166 OFFCURVE",
"245.38 -85 OFFCURVE",
"268.85 -5 CURVE",
"269.31 -3 OFFCURVE",
"269.54 -2 OFFCURVE",
"270 0 CURVE",
"271 0 LINE",
"435.21 616 LINE",
"485 0 LINE",
"633 0 LINE",
"885.84 727 LINE"
);
}
);
width = 1087;
}
);
note = uni019D;
unicode = 019D;
},
{
glyphname = Nj;
layers = (
{
layerId = "4FCB07EB-01E7-4D87-AA20-FCB2BF85BBFF";
paths = (
{
closed = 1;
nodes = (
"984.3 729 LINE",
"953.98 628 LINE",
"1046.98 628 LINE",
"1076.3 729 LINE"
);
},
{
closed = 1;
nodes = (
"119 0 LINE",
"266 0 LINE",
"431.21 616 LINE",
"481 0 LINE",
"628 0 LINE",
"881.84 727 LINE",
"798.84 727 LINE",
"578.09 139 LINE",
"492.61 700 LINE",
"380.61 700 LINE"
);
},
{
closed = 1;
nodes = (
"648.14 -151 OFFCURVE",
"644.37 -150 OFFCURVE",
"603.99 -130 CURVE",
"550.13 -242 LINE",
"589.67 -244 OFFCURVE",
"690.28 -250 OFFCURVE",
"725.44 -219 CURVE SMOOTH",
"756.67 -192 OFFCURVE",
"776.68 -140 OFFCURVE",
"815.38 -33 CURVE SMOOTH",
"1005.66 501 LINE",
"928.66 501 LINE",
"798.85 99 OFFCURVE",
"753.37 -46 OFFCURVE",
"702.6 -97 CURVE SMOOTH"
);
}
);
width = 705;
}
);
note = uni01CB;
unicode = 01CB;
},
{
glyphname = Ntilde;
layers = (
{
layerId = "4FCB07EB-01E7-4D87-AA20-FCB2BF85BBFF";
paths = (
{
closed = 1;
nodes = (
"591.23 759 LINE",
"603.16 802 OFFCURVE",
"622.7 865 OFFCURVE",
"658.47 864 CURVE SMOOTH",
"692.24 863 OFFCURVE",
"678.46 760 OFFCURVE",
"744.23 759 CURVE SMOOTH",
"793 758 OFFCURVE",
"823.15 763 OFFCURVE",
"867.86 909 CURVE",
"825.86 909 LINE",
"809.55 860 OFFCURVE",
"804.77 809 OFFCURVE",
"758.77 809 CURVE SMOOTH",
"718.77 809 OFFCURVE",
"731.86 909 OFFCURVE",
"671.86 909 CURVE SMOOTH",
"606.86 909 OFFCURVE",
"583.24 876 OFFCURVE",
"541.23 759 CURVE"
);
},
{
closed = 1;
nodes = (
"151 0 LINE",
"298 0 LINE",
"464.21 616 LINE",
"514 0 LINE",
"661 0 LINE",
"913.84 727 LINE",
"830.84 727 LINE",
"611.09 139 LINE",
"524.61 700 LINE",
"412.61 700 LINE"
);
}
);
width = 701;
}
);
note = Ntilde;
unicode = 00D1;
},
{
glyphname = O;
layers = (
{
layerId = "4FCB07EB-01E7-4D87-AA20-FCB2BF85BBFF";
paths = (
{
closed = 1;
nodes = (
"479.3 742 OFFCURVE",
"314.13 594 OFFCURVE",
"246.03 364 CURVE SMOOTH",
"154.46 54 OFFCURVE",
"230.22 -12 OFFCURVE",
"442.76 -14 CURVE SMOOTH",
"674.3 -16 OFFCURVE",
"765.46 54 OFFCURVE",
"864.03 364 CURVE SMOOTH",
"937.13 594 OFFCURVE",
"855.3 742 OFFCURVE",
"667.3 742 CURVE SMOOTH"
);
},
{
closed = 1;
nodes = (
"778.14 672 OFFCURVE",
"823.51 548 OFFCURVE",
"768.03 364 CURVE SMOOTH",
"723.17 213 OFFCURVE",
"629.93 173 OFFCURVE",
"498.93 173 CURVE SMOOTH",
"367.93 173 OFFCURVE",
"296.16 213 OFFCURVE",
"341.03 364 CURVE SMOOTH",
"396.51 548 OFFCURVE",
"516.14 672 OFFCURVE",
"647.14 672 CURVE SMOOTH"
);
}
);
width = 773;
}
);
note = O;
unicode = 004F;
},
{
glyphname = Oacute;
layers = (
{
layerId = "4FCB07EB-01E7-4D87-AA20-FCB2BF85BBFF";
paths = (
{
closed = 1;
nodes = (
"328.08 832 LINE",
"212.53 678 LINE",
"281.53 678 LINE",
"374.08 832 LINE"
);
},
{
closed = 1;
nodes = (
"489.3 742 OFFCURVE",
"324.13 594 OFFCURVE",
"256.03 364 CURVE SMOOTH",
"164.46 54 OFFCURVE",
"240.22 -12 OFFCURVE",
"452.76 -14 CURVE SMOOTH",
"684.3 -16 OFFCURVE",
"775.46 54 OFFCURVE",
"874.03 364 CURVE SMOOTH",
"947.13 594 OFFCURVE",
"865.3 742 OFFCURVE",
"677.3 742 CURVE SMOOTH"
);
},
{
closed = 1;
nodes = (
"787.14 672 OFFCURVE",
"833.51 548 OFFCURVE",
"778.03 364 CURVE SMOOTH",
"733.17 213 OFFCURVE",
"638.93 173 OFFCURVE",
"507.93 173 CURVE SMOOTH",
"376.93 173 OFFCURVE",
"306.16 213 OFFCURVE",
"351.03 364 CURVE SMOOTH",
"406.51 548 OFFCURVE",
"525.14 672 OFFCURVE",
"656.14 672 CURVE SMOOTH"
);
}
);
width = 777;
}
);
note = Oacute;
unicode = 00D3;
},
{
glyphname = Obreve;
layers = (
{
layerId = "4FCB07EB-01E7-4D87-AA20-FCB2BF85BBFF";
paths = (
{
closed = 1;
nodes = (
"806.01 836 OFFCURVE",
"916.09 910 OFFCURVE",
"952.49 1033 CURVE",
"892.49 1033 LINE",
"866.4 946 OFFCURVE",
"823.94 931 OFFCURVE",
"737.94 931 CURVE SMOOTH",
"664.94 931 OFFCURVE",
"626.17 945 OFFCURVE",
"651.49 1033 CURVE",
"592.49 1033 LINE",
"556.09 910 OFFCURVE",
"611.01 836 OFFCURVE",
"709.01 836 CURVE SMOOTH"
);
},
{
closed = 1;
nodes = (
"503.31 742 OFFCURVE",
"337.14 594 OFFCURVE",
"269.04 364 CURVE SMOOTH",
"177.47 54 OFFCURVE",
"253.23 -12 OFFCURVE",
"465.77 -14 CURVE SMOOTH",
"697.31 -16 OFFCURVE",
"789.47 54 OFFCURVE",
"888.04 364 CURVE SMOOTH",
"961.14 594 OFFCURVE",
"879.31 742 OFFCURVE",
"691.31 742 CURVE SMOOTH"
);
},
{
closed = 1;
nodes = (
"390.95 173 OFFCURVE",
"319.18 213 OFFCURVE",
"364.05 364 CURVE SMOOTH",
"419.53 548 OFFCURVE",
"539.16 672 OFFCURVE",
"670.16 672 CURVE SMOOTH",
"801.16 672 OFFCURVE",
"847.53 548 OFFCURVE",
"792.05 364 CURVE SMOOTH",
"747.19 213 OFFCURVE",
"652.95 173 OFFCURVE",
"521.95 173 CURVE SMOOTH"
);
}
);
width = 773;
}
);
note = Obreve;
unicode = 014E;
},
{
glyphname = Ocaron;
layers = (
{
layerId = "4FCB07EB-01E7-4D87-AA20-FCB2BF85BBFF";
paths = (
{
closed = 1;
nodes = (
"704.7 865 LINE",
"748.7 865 LINE",
"803.48 929 LINE",
"963.72 1060 LINE",
"914.72 1060 LINE",
"751.86 961 LINE",
"650.72 1060 LINE",
"600.72 1060 LINE",
"683.48 929 LINE"
);
},
{
closed = 1;
nodes = (
"505.31 742 OFFCURVE",
"339.14 594 OFFCURVE",
"271.04 364 CURVE SMOOTH",
"179.47 54 OFFCURVE",
"256.23 -12 OFFCURVE",
"468.77 -14 CURVE SMOOTH",
"700.31 -16 OFFCURVE",
"790.47 54 OFFCURVE",
"889.04 364 CURVE SMOOTH",
"962.14 594 OFFCURVE",
"881.31 742 OFFCURVE",
"693.31 742 CURVE SMOOTH"
);
},
{
closed = 1;
nodes = (
"804.15 672 OFFCURVE",
"849.52 548 OFFCURVE",
"794.04 364 CURVE SMOOTH",
"749.18 213 OFFCURVE",
"654.94 173 OFFCURVE",
"523.94 173 CURVE SMOOTH",
"392.94 173 OFFCURVE",
"322.17 213 OFFCURVE",
"367.04 364 CURVE SMOOTH",
"422.52 548 OFFCURVE",
"542.15 672 OFFCURVE",
"673.15 672 CURVE SMOOTH"
);
}
);
width = 773;
}
);
note = uni01D1;
unicode = 01D1;
},
{
glyphname = Ocircumflex;
layers = (
{
layerId = "4FCB07EB-01E7-4D87-AA20-FCB2BF85BBFF";
paths = (
{
closed = 1;
nodes = (
"744.56 1003 LINE",
"685.78 939 LINE",
"524.54 808 LINE",
"573.54 808 LINE",
"734.4 907 LINE",
"837.54 808 LINE",
"887.54 808 LINE",
"805.78 939 LINE",
"788.56 1003 LINE"
);
},
{
closed = 1;
nodes = (
"500.3 742 OFFCURVE",
"334.13 594 OFFCURVE",
"266.03 364 CURVE SMOOTH",
"174.46 54 OFFCURVE",
"251.22 -12 OFFCURVE",
"463.76 -14 CURVE SMOOTH",
"695.3 -16 OFFCURVE",
"786.46 54 OFFCURVE",
"885.03 364 CURVE SMOOTH",
"958.13 594 OFFCURVE",
"876.3 742 OFFCURVE",
"688.3 742 CURVE SMOOTH"
);
},
{
closed = 1;
nodes = (
"799.14 672 OFFCURVE",
"844.51 548 OFFCURVE",
"789.03 364 CURVE SMOOTH",
"744.17 213 OFFCURVE",
"650.93 173 OFFCURVE",
"519.93 173 CURVE SMOOTH",
"388.93 173 OFFCURVE",
"317.16 213 OFFCURVE",
"362.03 364 CURVE SMOOTH",
"417.51 548 OFFCURVE",
"537.14 672 OFFCURVE",
"668.14 672 CURVE SMOOTH"
);
}
);
width = 773;
}
);
note = Ocircumflex;
unicode = 00D4;
},
{
glyphname = Ocircumflexacute;
layers = (
{
layerId = "4FCB07EB-01E7-4D87-AA20-FCB2BF85BBFF";
paths = (
{
closed = 1;
nodes = (
"1007.18 1075 LINE",
"892.63 921 LINE",
"962.63 921 LINE",
"1055.18 1075 LINE"
);
},
{
closed = 1;
nodes = (
"759.02 1044 LINE",
"699.24 980 LINE",
"539 849 LINE",
"588 849 LINE",
"747.86 948 LINE",
"852 849 LINE",
"901 849 LINE",
"819.24 980 LINE",
"803.02 1044 LINE"
);
},
{
closed = 1;
nodes = (
"507.3 742 OFFCURVE",
"340.13 594 OFFCURVE",
"272.03 364 CURVE SMOOTH",
"180.46 54 OFFCURVE",
"257.22 -12 OFFCURVE",
"469.76 -14 CURVE SMOOTH",
"701.3 -16 OFFCURVE",
"791.46 54 OFFCURVE",
"890.03 364 CURVE SMOOTH",
"963.13 594 OFFCURVE",
"883.3 742 OFFCURVE",
"695.3 742 CURVE SMOOTH"
);
},
{
closed = 1;
nodes = (
"805.14 672 OFFCURVE",
"851.51 548 OFFCURVE",
"796.03 364 CURVE SMOOTH",
"751.17 213 OFFCURVE",
"655.93 173 OFFCURVE",
"524.93 173 CURVE SMOOTH",
"393.93 173 OFFCURVE",
"323.16 213 OFFCURVE",
"368.03 364 CURVE SMOOTH",
"423.51 548 OFFCURVE",
"543.14 672 OFFCURVE",
"674.14 672 CURVE SMOOTH"
);
}
);
width = 773;
}
);
note = uni1ED0;
unicode = 1ED0;
},
{
glyphname = Ocircumflexdotbelow;
layers = (
{
layerId = "4FCB07EB-01E7-4D87-AA20-FCB2BF85BBFF";
paths = (
{
closed = 1;
nodes = (
"745.49 1046 LINE",
"685.71 982 LINE",
"525.47 851 LINE",
"575.47 851 LINE",
"735.33 950 LINE",
"838.47 851 LINE",
"887.47 851 LINE",
"805.71 982 LINE",
"790.49 1046 LINE"
);
},
{
closed = 1;
nodes = (
"488.31 742 OFFCURVE",
"322.14 594 OFFCURVE",
"254.04 364 CURVE SMOOTH",
"162.47 54 OFFCURVE",
"238.23 -12 OFFCURVE",
"450.77 -14 CURVE SMOOTH",
"682.31 -16 OFFCURVE",
"773.47 54 OFFCURVE",
"872.04 364 CURVE SMOOTH",
"945.14 594 OFFCURVE",
"864.31 742 OFFCURVE",
"676.31 742 CURVE SMOOTH"
);
},
{
closed = 1;
nodes = (
"786.15 672 OFFCURVE",
"832.52 548 OFFCURVE",
"777.04 364 CURVE SMOOTH",
"732.18 213 OFFCURVE",
"637.94 173 OFFCURVE",
"506.94 173 CURVE SMOOTH",
"375.94 173 OFFCURVE",
"305.17 213 OFFCURVE",
"350.04 364 CURVE SMOOTH",
"405.52 548 OFFCURVE",
"524.15 672 OFFCURVE",
"655.15 672 CURVE SMOOTH"
);
},
{
closed = 1;
nodes = (
"374.92 -113 LINE",
"344.6 -214 LINE",
"436.6 -214 LINE",
"467.92 -113 LINE"
);
}
);
width = 773;
}
);
note = uni1ED8;
unicode = 1ED8;
},
{
glyphname = Ocircumflexgrave;
layers = (
{
layerId = "4FCB07EB-01E7-4D87-AA20-FCB2BF85BBFF";
paths = (
{
closed = 1;
nodes = (
"964.71 969 LINE",
"1083.25 954 LINE",
"963.57 1081 LINE",
"891.57 1081 LINE"
);
},
{
closed = 1;
nodes = (
"761.87 1052 LINE",
"702.09 988 LINE",
"541.85 857 LINE",
"590.85 857 LINE",
"751.71 956 LINE",
"854.85 857 LINE",
"903.85 857 LINE",
"822.09 988 LINE",
"805.87 1052 LINE"
);
},
{
closed = 1;
nodes = (
"507.3 742 OFFCURVE",
"341.13 594 OFFCURVE",
"273.03 364 CURVE SMOOTH",
"181.46 54 OFFCURVE",
"258.22 -12 OFFCURVE",
"470.76 -14 CURVE SMOOTH",
"702.3 -16 OFFCURVE",
"792.46 54 OFFCURVE",
"891.03 364 CURVE SMOOTH",
"964.13 594 OFFCURVE",
"883.3 742 OFFCURVE",
"695.3 742 CURVE SMOOTH"
);
},
{
closed = 1;
nodes = (
"805.14 672 OFFCURVE",
"851.51 548 OFFCURVE",
"796.03 364 CURVE SMOOTH",
"751.17 213 OFFCURVE",
"656.93 173 OFFCURVE",
"525.93 173 CURVE SMOOTH",
"394.93 173 OFFCURVE",
"324.16 213 OFFCURVE",
"369.03 364 CURVE SMOOTH",
"424.51 548 OFFCURVE",
"543.14 672 OFFCURVE",
"674.14 672 CURVE SMOOTH"
);
}
);
width = 773;
}
);
note = uni1ED2;
unicode = 1ED2;
},
{
glyphname = Ocircumflexhookabove;
layers = (
{
layerId = "4FCB07EB-01E7-4D87-AA20-FCB2BF85BBFF";
paths = (
{
closed = 1;
nodes = (
"875.8 1095 LINE",
"894.65 1103 OFFCURVE",
"910.57 1107 OFFCURVE",
"925.57 1107 CURVE SMOOTH",
"941.57 1107 OFFCURVE",
"951.65 1103 OFFCURVE",
"959.26 1097 CURVE SMOOTH",
"966.87 1091 OFFCURVE",
"968.57 1081 OFFCURVE",
"966.26 1071 CURVE SMOOTH",
"963.95 1061 OFFCURVE",
"953.41 1050 OFFCURVE",
"937.1 1040 CURVE SMOOTH",
"925.48 1033 LINE SMOOTH",
"918.56 1029 OFFCURVE",
"915.86 1026 OFFCURVE",
"914.63 1025 CURVE",
"912.94 1022 OFFCURVE",
"911.01 1018 OFFCURVE",
"909.86 1013 CURVE",
"883.86 1013 LINE",
"884.55 1016 LINE SMOOTH",
"885.93 1022 OFFCURVE",
"890.32 1028 OFFCURVE",
"893.24 1032 CURVE",
"897.39 1037 OFFCURVE",
"902.32 1041 OFFCURVE",
"911.7 1047 CURVE SMOOTH",
"924.78 1056 LINE",
"932.93 1061 OFFCURVE",
"938.32 1067 OFFCURVE",
"939.7 1073 CURVE SMOOTH",
"941.08 1079 OFFCURVE",
"935.93 1087 OFFCURVE",
"914.93 1087 CURVE SMOOTH",
"900.93 1087 OFFCURVE",
"886.78 1082 OFFCURVE",
"869.93 1074 CURVE"
);
},
{
closed = 1;
nodes = (
"763.85 1052 LINE",
"704.07 988 LINE",
"542.83 857 LINE",
"593.83 857 LINE",
"753.69 956 LINE",
"856.83 857 LINE",
"905.83 857 LINE",
"824.07 988 LINE",
"807.85 1052 LINE"
);
},
{
closed = 1;
nodes = (
"509.28 742 OFFCURVE",
"343.11 594 OFFCURVE",
"275.01 364 CURVE SMOOTH",
"183.44 54 OFFCURVE",
"259.2 -12 OFFCURVE",
"471.74 -14 CURVE SMOOTH",
"703.28 -16 OFFCURVE",
"794.44 54 OFFCURVE",
"893.01 364 CURVE SMOOTH",
"966.11 594 OFFCURVE",
"885.28 742 OFFCURVE",
"697.28 742 CURVE SMOOTH"
);
},
{
closed = 1;
nodes = (
"807.12 672 OFFCURVE",
"853.49 548 OFFCURVE",
"798.01 364 CURVE SMOOTH",
"753.15 213 OFFCURVE",
"658.91 173 OFFCURVE",
"527.91 173 CURVE SMOOTH",
"396.91 173 OFFCURVE",
"325.14 213 OFFCURVE",
"370.01 364 CURVE SMOOTH",
"425.49 548 OFFCURVE",
"545.12 672 OFFCURVE",
"676.12 672 CURVE SMOOTH"
);
}
);
width = 773;
}
);
note = uni1ED4;
unicode = 1ED4;
},
{
glyphname = Ocircumflextilde;
layers = (
{
layerId = "4FCB07EB-01E7-4D87-AA20-FCB2BF85BBFF";
paths = (
{
closed = 1;
nodes = (
"730.11 1092 LINE",
"742.04 1135 OFFCURVE",
"761.58 1198 OFFCURVE",
"797.35 1197 CURVE SMOOTH",
"831.12 1196 OFFCURVE",
"818.34 1093 OFFCURVE",
"884.11 1092 CURVE SMOOTH",
"932.88 1091 OFFCURVE",
"963.03 1096 OFFCURVE",
"1007.74 1242 CURVE",
"964.74 1242 LINE",
"948.43 1193 OFFCURVE",
"943.65 1142 OFFCURVE",
"897.65 1142 CURVE SMOOTH",
"857.65 1142 OFFCURVE",
"870.74 1242 OFFCURVE",
"810.74 1242 CURVE SMOOTH",
"745.74 1242 OFFCURVE",
"722.12 1209 OFFCURVE",
"680.11 1092 CURVE"
);
},
{
closed = 1;
nodes = (
"779.03 1057 LINE",
"719.25 993 LINE",
"558.01 862 LINE",
"609.01 862 LINE",
"768.87 961 LINE",
"872.01 862 LINE",
"921.01 862 LINE",
"839.25 993 LINE",
"823.03 1057 LINE"
);
},
{
closed = 1;
nodes = (
"519.31 742 OFFCURVE",
"354.14 594 OFFCURVE",
"286.04 364 CURVE SMOOTH",
"194.47 54 OFFCURVE",
"270.23 -12 OFFCURVE",
"482.77 -14 CURVE SMOOTH",
"714.31 -16 OFFCURVE",
"805.47 54 OFFCURVE",
"904.04 364 CURVE SMOOTH",
"977.14 594 OFFCURVE",
"895.31 742 OFFCURVE",
"707.31 742 CURVE SMOOTH"
);
},
{
closed = 1;
nodes = (
"818.15 672 OFFCURVE",
"864.52 548 OFFCURVE",
"809.04 364 CURVE SMOOTH",
"764.18 213 OFFCURVE",
"669.94 173 OFFCURVE",
"538.94 173 CURVE SMOOTH",
"407.94 173 OFFCURVE",
"336.17 213 OFFCURVE",
"381.04 364 CURVE SMOOTH",
"436.52 548 OFFCURVE",
"556.15 672 OFFCURVE",
"687.15 672 CURVE SMOOTH"
);
}
);
width = 773;
}
);
note = uni1ED6;
unicode = 1ED6;
},
{
glyphname = Odieresis;
layers = (
{
layerId = "4FCB07EB-01E7-4D87-AA20-FCB2BF85BBFF";
paths = (
{
closed = 1;
nodes = (
"574.94 957 LINE",
"544.62 856 LINE",
"637.62 856 LINE",
"667.94 957 LINE"
);
},
{
closed = 1;
nodes = (
"823.94 957 LINE",
"794.62 856 LINE",
"886.62 856 LINE",
"916.94 957 LINE"
);
},
{
closed = 1;
nodes = (
"496.3 742 OFFCURVE",
"331.13 594 OFFCURVE",
"263.03 364 CURVE SMOOTH",
"171.46 54 OFFCURVE",
"248.22 -12 OFFCURVE",
"460.76 -14 CURVE SMOOTH",
"692.3 -16 OFFCURVE",
"782.46 54 OFFCURVE",
"881.03 364 CURVE SMOOTH",
"954.13 594 OFFCURVE",
"872.3 742 OFFCURVE",
"684.3 742 CURVE SMOOTH"
);
},
{
closed = 1;
nodes = (
"795.14 672 OFFCURVE",
"841.51 548 OFFCURVE",
"786.03 364 CURVE SMOOTH",
"741.17 213 OFFCURVE",
"646.93 173 OFFCURVE",
"515.93 173 CURVE SMOOTH",
"384.93 173 OFFCURVE",
"313.16 213 OFFCURVE",
"358.03 364 CURVE SMOOTH",
"413.51 548 OFFCURVE",
"533.14 672 OFFCURVE",
"664.14 672 CURVE SMOOTH"
);
}
);
width = 773;
}
);
note = Odieresis;
unicode = 00D6;
},
{
glyphname = Odieresismacron;
layers = (
{
layerId = "4FCB07EB-01E7-4D87-AA20-FCB2BF85BBFF";
paths = (
{
closed = 1;
nodes = (
"604.87 1039 LINE",
"555.71 969 LINE",
"969.63 986 LINE",
"965.41 1063 LINE"
);
},
{
closed = 1;
nodes = (
"562.78 887 LINE",
"532.46 786 LINE",
"624.46 786 LINE",
"654.78 887 LINE"
);
},
{
closed = 1;
nodes = (
"811.78 887 LINE",
"782.46 786 LINE",
"874.46 786 LINE",
"903.78 887 LINE"
);
},
{
closed = 1;
nodes = (
"506.3 742 OFFCURVE",
"339.13 594 OFFCURVE",
"271.03 364 CURVE SMOOTH",
"179.46 54 OFFCURVE",
"256.22 -12 OFFCURVE",
"468.76 -14 CURVE SMOOTH",
"700.3 -16 OFFCURVE",
"790.46 54 OFFCURVE",
"889.03 364 CURVE SMOOTH",
"962.13 594 OFFCURVE",
"882.3 742 OFFCURVE",
"694.3 742 CURVE SMOOTH"
);
},
{
closed = 1;
nodes = (
"804.14 672 OFFCURVE",
"850.51 548 OFFCURVE",
"795.03 364 CURVE SMOOTH",
"750.17 213 OFFCURVE",
"654.93 173 OFFCURVE",
"523.93 173 CURVE SMOOTH",
"392.93 173 OFFCURVE",
"322.16 213 OFFCURVE",
"367.03 364 CURVE SMOOTH",
"422.51 548 OFFCURVE",
"542.14 672 OFFCURVE",
"673.14 672 CURVE SMOOTH"
);
}
);
width = 773;
}
);
note = uni022A;
unicode = 022A;
},
{
glyphname = Odotbelow;
layers = (
{
layerId = "4FCB07EB-01E7-4D87-AA20-FCB2BF85BBFF";
paths = (
{
closed = 1;
nodes = (
"464.3 742 OFFCURVE",
"297.13 594 OFFCURVE",
"229.03 364 CURVE SMOOTH",
"137.46 54 OFFCURVE",
"214.22 -12 OFFCURVE",
"426.76 -14 CURVE SMOOTH",
"658.3 -16 OFFCURVE",
"749.46 54 OFFCURVE",
"848.03 364 CURVE SMOOTH",
"921.13 594 OFFCURVE",
"840.3 742 OFFCURVE",
"652.3 742 CURVE SMOOTH"
);
},
{
closed = 1;
nodes = (
"762.14 672 OFFCURVE",
"808.51 548 OFFCURVE",
"753.03 364 CURVE SMOOTH",
"708.17 213 OFFCURVE",
"612.93 173 OFFCURVE",
"481.93 173 CURVE SMOOTH",
"350.93 173 OFFCURVE",
"280.16 213 OFFCURVE",
"325.03 364 CURVE SMOOTH",
"380.51 548 OFFCURVE",
"500.14 672 OFFCURVE",
"631.14 672 CURVE SMOOTH"
);
},
{
closed = 1;
nodes = (
"349.91 -113 LINE",
"320.59 -214 LINE",
"413.59 -214 LINE",
"442.91 -113 LINE"
);
}
);
width = 773;
}
);
note = uni1ECC;
unicode = 1ECC;
},
{
glyphname = Ograve;
layers = (
{
layerId = "4FCB07EB-01E7-4D87-AA20-FCB2BF85BBFF";
paths = (
{
closed = 1;
nodes = (
"673.32 872 LINE",
"790.86 857 LINE",
"672.18 984 LINE",
"600.18 984 LINE"
);
},
{
closed = 1;
nodes = (
"499.31 742 OFFCURVE",
"333.14 594 OFFCURVE",
"265.04 364 CURVE SMOOTH",
"173.47 54 OFFCURVE",
"249.23 -12 OFFCURVE",
"461.77 -14 CURVE SMOOTH",
"693.31 -16 OFFCURVE",
"784.47 54 OFFCURVE",
"883.04 364 CURVE SMOOTH",
"956.14 594 OFFCURVE",
"875.31 742 OFFCURVE",
"687.31 742 CURVE SMOOTH"
);
},
{
closed = 1;
nodes = (
"797.15 672 OFFCURVE",
"843.52 548 OFFCURVE",
"788.04 364 CURVE SMOOTH",
"743.18 213 OFFCURVE",
"648.94 173 OFFCURVE",
"517.94 173 CURVE SMOOTH",
"386.94 173 OFFCURVE",
"315.17 213 OFFCURVE",
"360.04 364 CURVE SMOOTH",
"415.52 548 OFFCURVE",
"535.15 672 OFFCURVE",
"666.15 672 CURVE SMOOTH"
);
}
);
width = 773;
}
);
note = Ograve;
unicode = 00D2;
},
{
glyphname = Ohookabove;
layers = (
{
layerId = "4FCB07EB-01E7-4D87-AA20-FCB2BF85BBFF";
paths = (
{
closed = 1;
nodes = (
"675.17 893 LINE",
"694.02 901 OFFCURVE",
"710.94 905 OFFCURVE",
"725.94 905 CURVE SMOOTH",
"741.94 905 OFFCURVE",
"752.02 901 OFFCURVE",
"759.63 895 CURVE SMOOTH",
"767.25 889 OFFCURVE",
"768.94 879 OFFCURVE",
"766.63 869 CURVE SMOOTH",
"764.32 859 OFFCURVE",
"753.78 848 OFFCURVE",
"737.47 838 CURVE SMOOTH",
"725.85 831 LINE SMOOTH",
"718.93 827 OFFCURVE",
"716.23 824 OFFCURVE",
"715 823 CURVE",
"713.31 820 OFFCURVE",
"710.38 816 OFFCURVE",
"709.23 811 CURVE",
"684.23 811 LINE",
"684.92 814 LINE SMOOTH",
"686.3 820 OFFCURVE",
"688.69 826 OFFCURVE",
"691.61 830 CURVE",
"695.77 835 OFFCURVE",
"702.69 839 OFFCURVE",
"712.07 845 CURVE",
"724.15 854 LINE",
"732.3 859 OFFCURVE",
"738.69 865 OFFCURVE",
"740.07 871 CURVE SMOOTH",
"741.46 877 OFFCURVE",
"735.3 885 OFFCURVE",
"714.3 885 CURVE SMOOTH",
"700.3 885 OFFCURVE",
"686.15 880 OFFCURVE",
"669.3 872 CURVE"
);
},
{
closed = 1;
nodes = (
"493.29 742 OFFCURVE",
"326.12 594 OFFCURVE",
"258.02 364 CURVE SMOOTH",
"166.45 54 OFFCURVE",
"243.21 -12 OFFCURVE",
"455.75 -14 CURVE SMOOTH",
"687.29 -16 OFFCURVE",
"778.45 54 OFFCURVE",
"877.02 364 CURVE SMOOTH",
"950.12 594 OFFCURVE",
"869.29 742 OFFCURVE",
"681.29 742 CURVE SMOOTH"
);
},
{
closed = 1;
nodes = (
"791.13 672 OFFCURVE",
"837.5 548 OFFCURVE",
"782.02 364 CURVE SMOOTH",
"737.16 213 OFFCURVE",
"642.92 173 OFFCURVE",
"511.92 173 CURVE SMOOTH",
"380.92 173 OFFCURVE",
"309.15 213 OFFCURVE",
"354.02 364 CURVE SMOOTH",
"409.5 548 OFFCURVE",
"529.13 672 OFFCURVE",
"660.13 672 CURVE SMOOTH"
);
}
);
width = 773;
}
);
note = uni1ECE;
unicode = 1ECE;
},
{
glyphname = Ohorn;
layers = (
{
layerId = "4FCB07EB-01E7-4D87-AA20-FCB2BF85BBFF";
paths = (
{
closed = 1;
nodes = (
"904.83 662 OFFCURVE",
"928.68 709 OFFCURVE",
"939.69 748 CURVE",
"941.77 757 OFFCURVE",
"943.31 768 OFFCURVE",
"944.08 780 CURVE",
"902.46 786 LINE",
"903.15 776 OFFCURVE",
"903.07 767 OFFCURVE",
"899.53 756 CURVE SMOOTH",
"894.61 739 OFFCURVE",
"882.99 693 OFFCURVE",
"857.37 673 CURVE SMOOTH",
"854.91 671 OFFCURVE",
"851.45 669 OFFCURVE",
"849.22 668 CURVE",
"811.3 716 OFFCURVE",
"751.3 742 OFFCURVE",
"671.3 742 CURVE SMOOTH",
"483.3 742 OFFCURVE",
"317.13 594 OFFCURVE",
"249.03 364 CURVE SMOOTH",
"157.46 54 OFFCURVE",
"234.22 -12 OFFCURVE",
"446.76 -14 CURVE SMOOTH",
"678.3 -16 OFFCURVE",
"769.46 54 OFFCURVE",
"868.03 364 CURVE SMOOTH",
"903.12 477 OFFCURVE",
"902.36 569 OFFCURVE",
"869.6 635 CURVE"
);
},
{
closed = 1;
nodes = (
"370.94 173 OFFCURVE",
"299.17 213 OFFCURVE",
"344.04 364 CURVE SMOOTH",
"399.52 548 OFFCURVE",
"520.15 672 OFFCURVE",
"651.15 672 CURVE SMOOTH",
"782.15 672 OFFCURVE",
"827.52 548 OFFCURVE",
"772.04 364 CURVE SMOOTH",
"727.18 213 OFFCURVE",
"632.94 173 OFFCURVE",
"501.94 173 CURVE SMOOTH"
);
}
);
width = 773;
}
);
note = Ohorn;
unicode = 01A0;
},
{
glyphname = Ohornacute;
layers = (
{
layerId = "4FCB07EB-01E7-4D87-AA20-FCB2BF85BBFF";
paths = (
{
closed = 1;
nodes = (
"836.33 1028 LINE",
"789.33 1028 LINE",
"673.78 874 LINE",
"743.78 874 LINE"
);
},
{
closed = 1;
nodes = (
"924.83 662 OFFCURVE",
"947.68 709 OFFCURVE",
"958.69 748 CURVE",
"960.77 757 OFFCURVE",
"963.31 768 OFFCURVE",
"964.08 780 CURVE",
"921.46 786 LINE",
"922.15 776 OFFCURVE",
"922.07 767 OFFCURVE",
"918.53 756 CURVE SMOOTH",
"913.61 739 OFFCURVE",
"901.99 693 OFFCURVE",
"876.37 673 CURVE SMOOTH",
"873.91 671 OFFCURVE",
"870.45 669 OFFCURVE",
"868.22 668 CURVE",
"830.3 716 OFFCURVE",
"771.3 742 OFFCURVE",
"691.3 742 CURVE SMOOTH",
"503.3 742 OFFCURVE",
"336.13 594 OFFCURVE",
"268.03 364 CURVE SMOOTH",
"176.46 54 OFFCURVE",
"253.22 -12 OFFCURVE",
"465.76 -14 CURVE SMOOTH",
"697.3 -16 OFFCURVE",
"788.46 54 OFFCURVE",
"887.03 364 CURVE SMOOTH",
"922.12 477 OFFCURVE",
"922.36 569 OFFCURVE",
"889.6 635 CURVE"
);
},
{
closed = 1;
nodes = (
"390.94 173 OFFCURVE",
"319.17 213 OFFCURVE",
"364.04 364 CURVE SMOOTH",
"419.52 548 OFFCURVE",
"539.15 672 OFFCURVE",
"670.15 672 CURVE SMOOTH",
"801.15 672 OFFCURVE",
"847.52 548 OFFCURVE",
"792.04 364 CURVE SMOOTH",
"747.18 213 OFFCURVE",
"652.94 173 OFFCURVE",
"521.94 173 CURVE SMOOTH"
);
}
);
width = 773;
}
);
note = uni1EDA;
unicode = 1EDA;
},
{
glyphname = Ohorndotbelow;
layers = (
{
layerId = "4FCB07EB-01E7-4D87-AA20-FCB2BF85BBFF";
paths = (
{
closed = 1;
nodes = (
"888.83 662 OFFCURVE",
"912.68 709 OFFCURVE",
"923.69 748 CURVE",
"925.77 757 OFFCURVE",
"928.31 768 OFFCURVE",
"929.08 780 CURVE",
"886.46 786 LINE",
"887.15 776 OFFCURVE",
"887.07 767 OFFCURVE",
"883.53 756 CURVE SMOOTH",
"878.61 739 OFFCURVE",
"865.99 693 OFFCURVE",
"840.37 673 CURVE SMOOTH",
"837.91 671 OFFCURVE",
"834.45 669 OFFCURVE",
"832.22 668 CURVE",
"794.3 716 OFFCURVE",
"735.3 742 OFFCURVE",
"655.3 742 CURVE SMOOTH",
"467.3 742 OFFCURVE",
"301.13 594 OFFCURVE",
"233.03 364 CURVE SMOOTH",
"141.46 54 OFFCURVE",
"218.22 -12 OFFCURVE",
"430.76 -14 CURVE SMOOTH",
"662.3 -16 OFFCURVE",
"752.46 54 OFFCURVE",
"851.03 364 CURVE SMOOTH",
"886.12 477 OFFCURVE",
"886.36 569 OFFCURVE",
"853.6 635 CURVE"
);
},
{
closed = 1;
nodes = (
"354.94 173 OFFCURVE",
"284.17 213 OFFCURVE",
"329.04 364 CURVE SMOOTH",
"384.52 548 OFFCURVE",
"503.15 672 OFFCURVE",
"634.15 672 CURVE SMOOTH",
"765.15 672 OFFCURVE",
"811.52 548 OFFCURVE",
"756.04 364 CURVE SMOOTH",
"711.18 213 OFFCURVE",
"616.94 173 OFFCURVE",
"485.94 173 CURVE SMOOTH"
);
},
{
closed = 1;
nodes = (
"323.59 -214 LINE",
"415.59 -214 LINE",
"446.91 -113 LINE",
"353.91 -113 LINE"
);
}
);
width = 773;
}
);
note = uni1EE2;
unicode = 1EE2;
},
{
glyphname = Ohorngrave;
layers = (
{
layerId = "4FCB07EB-01E7-4D87-AA20-FCB2BF85BBFF";
paths = (
{
closed = 1;
nodes = (
"797.16 815 LINE",
"678.48 942 LINE",
"606.48 942 LINE",
"678.62 830 LINE"
);
},
{
closed = 1;
nodes = (
"916.83 662 OFFCURVE",
"940.68 709 OFFCURVE",
"951.69 748 CURVE",
"953.77 757 OFFCURVE",
"956.31 768 OFFCURVE",
"957.08 780 CURVE",
"915.46 786 LINE",
"916.15 776 OFFCURVE",
"916.07 767 OFFCURVE",
"912.53 756 CURVE SMOOTH",
"907.61 739 OFFCURVE",
"894.99 693 OFFCURVE",
"869.37 673 CURVE SMOOTH",
"866.91 671 OFFCURVE",
"864.45 669 OFFCURVE",
"862.22 668 CURVE",
"824.3 716 OFFCURVE",
"764.3 742 OFFCURVE",
"684.3 742 CURVE SMOOTH",
"496.3 742 OFFCURVE",
"330.13 594 OFFCURVE",
"262.03 364 CURVE SMOOTH",
"170.46 54 OFFCURVE",
"246.22 -12 OFFCURVE",
"458.76 -14 CURVE SMOOTH",
"690.3 -16 OFFCURVE",
"781.46 54 OFFCURVE",
"880.03 364 CURVE SMOOTH",
"915.12 477 OFFCURVE",
"914.36 569 OFFCURVE",
"881.6 635 CURVE"
);
},
{
closed = 1;
nodes = (
"382.94 173 OFFCURVE",
"312.17 213 OFFCURVE",
"357.04 364 CURVE SMOOTH",
"412.52 548 OFFCURVE",
"532.15 672 OFFCURVE",
"663.15 672 CURVE SMOOTH",
"794.15 672 OFFCURVE",
"840.52 548 OFFCURVE",
"785.04 364 CURVE SMOOTH",
"740.18 213 OFFCURVE",
"644.94 173 OFFCURVE",
"513.94 173 CURVE SMOOTH"
);
}
);
width = 773;
}
);
note = uni1EDC;
unicode = 1EDC;
},
{
glyphname = Ohornhookabove;
layers = (
{
layerId = "4FCB07EB-01E7-4D87-AA20-FCB2BF85BBFF";
paths = (
{
closed = 1;
nodes = (
"738.71 865 OFFCURVE",
"732.32 859 OFFCURVE",
"724.17 854 CURVE",
"712.09 845 LINE",
"702.7 839 OFFCURVE",
"695.78 835 OFFCURVE",
"691.63 830 CURVE",
"688.71 826 OFFCURVE",
"686.32 820 OFFCURVE",
"684.94 814 CURVE SMOOTH",
"684.25 811 LINE",
"709.25 811 LINE",
"710.4 816 OFFCURVE",
"713.33 820 OFFCURVE",
"715.02 823 CURVE",
"716.25 824 OFFCURVE",
"718.94 827 OFFCURVE",
"725.87 831 CURVE SMOOTH",
"737.49 838 LINE SMOOTH",
"753.8 848 OFFCURVE",
"764.34 859 OFFCURVE",
"766.65 869 CURVE SMOOTH",
"768.96 879 OFFCURVE",
"767.27 889 OFFCURVE",
"759.65 895 CURVE SMOOTH",
"752.04 901 OFFCURVE",
"741.96 905 OFFCURVE",
"725.96 905 CURVE SMOOTH",
"710.96 905 OFFCURVE",
"694.04 901 OFFCURVE",
"675.19 893 CURVE",
"669.34 872 LINE",
"686.19 880 OFFCURVE",
"700.34 885 OFFCURVE",
"714.34 885 CURVE SMOOTH",
"735.34 885 OFFCURVE",
"741.49 877 OFFCURVE",
"740.11 871 CURVE SMOOTH"
);
},
{
closed = 1;
nodes = (
"914.86 662 OFFCURVE",
"937.71 709 OFFCURVE",
"948.72 748 CURVE",
"950.8 757 OFFCURVE",
"953.34 768 OFFCURVE",
"954.11 780 CURVE",
"911.49 786 LINE",
"912.18 776 OFFCURVE",
"913.1 767 OFFCURVE",
"909.56 756 CURVE SMOOTH",
"904.64 739 OFFCURVE",
"892.02 693 OFFCURVE",
"866.4 673 CURVE SMOOTH",
"863.94 671 OFFCURVE",
"860.48 669 OFFCURVE",
"858.25 668 CURVE",
"820.33 716 OFFCURVE",
"761.33 742 OFFCURVE",
"681.33 742 CURVE SMOOTH",
"493.33 742 OFFCURVE",
"326.16 594 OFFCURVE",
"258.06 364 CURVE SMOOTH",
"166.49 54 OFFCURVE",
"243.25 -12 OFFCURVE",
"455.79 -14 CURVE SMOOTH",
"687.33 -16 OFFCURVE",
"778.49 54 OFFCURVE",
"877.06 364 CURVE SMOOTH",
"912.15 477 OFFCURVE",
"912.39 569 OFFCURVE",
"879.63 635 CURVE"
);
},
{
closed = 1;
nodes = (
"380.97 173 OFFCURVE",
"309.2 213 OFFCURVE",
"354.07 364 CURVE SMOOTH",
"409.55 548 OFFCURVE",
"529.18 672 OFFCURVE",
"660.18 672 CURVE SMOOTH",
"791.18 672 OFFCURVE",
"837.55 548 OFFCURVE",
"782.07 364 CURVE SMOOTH",
"737.21 213 OFFCURVE",
"642.97 173 OFFCURVE",
"511.97 173 CURVE SMOOTH"
);
}
);
width = 773;
}
);
note = uni1EDE;
unicode = 1EDE;
},
{
glyphname = Ohorntilde;
layers = (
{
layerId = "4FCB07EB-01E7-4D87-AA20-FCB2BF85BBFF";
paths = (
{
closed = 1;
nodes = (
"715.94 931 OFFCURVE",
"702.16 828 OFFCURVE",
"767.93 827 CURVE SMOOTH",
"816.7 826 OFFCURVE",
"845.85 831 OFFCURVE",
"890.56 977 CURVE",
"849.56 977 LINE",
"833.25 928 OFFCURVE",
"827.47 877 OFFCURVE",
"781.47 877 CURVE SMOOTH",
"741.47 877 OFFCURVE",
"755.56 977 OFFCURVE",
"695.56 977 CURVE SMOOTH",
"630.56 977 OFFCURVE",
"606.94 944 OFFCURVE",
"564.93 827 CURVE",
"614.93 827 LINE",
"626.86 870 OFFCURVE",
"646.4 933 OFFCURVE",
"682.17 932 CURVE SMOOTH"
);
},
{
closed = 1;
nodes = (
"919.83 662 OFFCURVE",
"944.68 709 OFFCURVE",
"955.69 748 CURVE",
"957.77 757 OFFCURVE",
"959.31 768 OFFCURVE",
"960.08 780 CURVE",
"918.46 786 LINE",
"919.15 776 OFFCURVE",
"919.07 767 OFFCURVE",
"915.53 756 CURVE SMOOTH",
"910.61 739 OFFCURVE",
"897.99 693 OFFCURVE",
"872.37 673 CURVE SMOOTH",
"869.91 671 OFFCURVE",
"866.45 669 OFFCURVE",
"864.22 668 CURVE",
"826.3 716 OFFCURVE",
"766.3 742 OFFCURVE",
"686.3 742 CURVE SMOOTH",
"498.3 742 OFFCURVE",
"333.13 594 OFFCURVE",
"265.03 364 CURVE SMOOTH",
"173.46 54 OFFCURVE",
"248.22 -12 OFFCURVE",
"460.76 -14 CURVE SMOOTH",
"692.3 -16 OFFCURVE",
"784.46 54 OFFCURVE",
"883.03 364 CURVE SMOOTH",
"918.12 477 OFFCURVE",
"917.36 569 OFFCURVE",
"884.6 635 CURVE"
);
},
{
closed = 1;
nodes = (
"385.94 173 OFFCURVE",
"315.17 213 OFFCURVE",
"360.04 364 CURVE SMOOTH",
"415.52 548 OFFCURVE",
"534.15 672 OFFCURVE",
"665.15 672 CURVE SMOOTH",
"796.15 672 OFFCURVE",
"842.52 548 OFFCURVE",
"787.04 364 CURVE SMOOTH",
"742.18 213 OFFCURVE",
"647.94 173 OFFCURVE",
"516.94 173 CURVE SMOOTH"
);
}
);
width = 773;
}
);
note = uni1EE0;
unicode = 1EE0;
},
{
glyphname = Ohungarumlaut;
layers = (
{
layerId = "4FCB07EB-01E7-4D87-AA20-FCB2BF85BBFF";
paths = (
{
closed = 1;
nodes = (
"654.24 837 LINE",
"793.1 949 LINE",
"721.1 949 LINE",
"526.78 822 LINE"
);
},
{
closed = 1;
nodes = (
"821.24 837 LINE",
"962.1 949 LINE",
"889.1 949 LINE",
"694.78 822 LINE"
);
},
{
closed = 1;
nodes = (
"497.31 742 OFFCURVE",
"330.14 594 OFFCURVE",
"262.04 364 CURVE SMOOTH",
"170.47 54 OFFCURVE",
"247.23 -12 OFFCURVE",
"459.77 -14 CURVE SMOOTH",
"691.31 -16 OFFCURVE",
"781.47 54 OFFCURVE",
"880.04 364 CURVE SMOOTH",
"953.14 594 OFFCURVE",
"873.31 742 OFFCURVE",
"685.31 742 CURVE SMOOTH"
);
},
{
closed = 1;
nodes = (
"795.15 672 OFFCURVE",
"841.52 548 OFFCURVE",
"786.04 364 CURVE SMOOTH",
"741.18 213 OFFCURVE",
"645.94 173 OFFCURVE",
"514.94 173 CURVE SMOOTH",
"383.94 173 OFFCURVE",
"313.17 213 OFFCURVE",
"358.04 364 CURVE SMOOTH",
"413.52 548 OFFCURVE",
"533.15 672 OFFCURVE",
"664.15 672 CURVE SMOOTH"
);
}
);
width = 773;
}
);
note = Ohungarumlaut;
unicode = 0150;
},
{
glyphname = Omacron;
layers = (
{
layerId = "4FCB07EB-01E7-4D87-AA20-FCB2BF85BBFF";
paths = (
{
closed = 1;
nodes = (
"568.63 947 LINE",
"519.47 877 LINE",
"932.39 894 LINE",
"929.17 971 LINE"
);
},
{
closed = 1;
nodes = (
"498.3 742 OFFCURVE",
"332.13 594 OFFCURVE",
"264.03 364 CURVE SMOOTH",
"172.46 54 OFFCURVE",
"248.22 -12 OFFCURVE",
"460.76 -14 CURVE SMOOTH",
"692.3 -16 OFFCURVE",
"783.46 54 OFFCURVE",
"882.03 364 CURVE SMOOTH",
"955.13 594 OFFCURVE",
"874.3 742 OFFCURVE",
"686.3 742 CURVE SMOOTH"
);
},
{
closed = 1;
nodes = (
"796.14 672 OFFCURVE",
"842.51 548 OFFCURVE",
"787.03 364 CURVE SMOOTH",
"742.17 213 OFFCURVE",
"647.93 173 OFFCURVE",
"516.93 173 CURVE SMOOTH",
"385.93 173 OFFCURVE",
"315.16 213 OFFCURVE",
"360.03 364 CURVE SMOOTH",
"415.51 548 OFFCURVE",
"534.14 672 OFFCURVE",
"665.14 672 CURVE SMOOTH"
);
}
);
width = 773;
}
);
note = Omacron;
unicode = 014C;
},
{
glyphname = Omacronacute;
layers = (
{
layerId = "4FCB07EB-01E7-4D87-AA20-FCB2BF85BBFF";
paths = (
{
closed = 1;
nodes = (
"864.35 1223 LINE",
"748.8 1069 LINE",
"818.8 1069 LINE",
"911.35 1223 LINE"
);
},
{
closed = 1;
nodes = (
"589.63 947 LINE",
"539.47 877 LINE",
"953.39 894 LINE",
"949.17 971 LINE"
);
},
{
closed = 1;
nodes = (
"518.3 742 OFFCURVE",
"353.13 594 OFFCURVE",
"285.03 364 CURVE SMOOTH",
"193.46 54 OFFCURVE",
"268.22 -12 OFFCURVE",
"480.76 -14 CURVE SMOOTH",
"712.3 -16 OFFCURVE",
"803.46 54 OFFCURVE",
"902.03 364 CURVE SMOOTH",
"975.13 594 OFFCURVE",
"894.3 742 OFFCURVE",
"706.3 742 CURVE SMOOTH"
);
},
{
closed = 1;
nodes = (
"816.14 672 OFFCURVE",
"862.51 548 OFFCURVE",
"807.03 364 CURVE SMOOTH",
"762.17 213 OFFCURVE",
"667.93 173 OFFCURVE",
"536.93 173 CURVE SMOOTH",
"405.93 173 OFFCURVE",
"335.16 213 OFFCURVE",
"380.03 364 CURVE SMOOTH",
"435.51 548 OFFCURVE",
"554.14 672 OFFCURVE",
"685.14 672 CURVE SMOOTH"
);
}
);
width = 773;
}
);
note = uni1E52;
unicode = 1E52;
},
{
glyphname = Omacrongrave;
layers = (
{
layerId = "4FCB07EB-01E7-4D87-AA20-FCB2BF85BBFF";
paths = (
{
closed = 1;
nodes = (
"753.64 1025 LINE",
"871.18 1010 LINE",
"753.5 1137 LINE",
"680.5 1137 LINE"
);
},
{
closed = 1;
nodes = (
"581.63 947 LINE",
"532.47 877 LINE",
"946.39 894 LINE",
"943.17 971 LINE"
);
},
{
closed = 1;
nodes = (
"511.3 742 OFFCURVE",
"345.13 594 OFFCURVE",
"277.03 364 CURVE SMOOTH",
"185.46 54 OFFCURVE",
"261.22 -12 OFFCURVE",
"473.76 -14 CURVE SMOOTH",
"705.3 -16 OFFCURVE",
"797.46 54 OFFCURVE",
"896.03 364 CURVE SMOOTH",
"969.13 594 OFFCURVE",
"887.3 742 OFFCURVE",
"699.3 742 CURVE SMOOTH"
);
},
{
closed = 1;
nodes = (
"810.14 672 OFFCURVE",
"855.51 548 OFFCURVE",
"800.03 364 CURVE SMOOTH",
"755.17 213 OFFCURVE",
"660.93 173 OFFCURVE",
"529.93 173 CURVE SMOOTH",
"398.93 173 OFFCURVE",
"327.16 213 OFFCURVE",
"372.03 364 CURVE SMOOTH",
"427.51 548 OFFCURVE",
"548.14 672 OFFCURVE",
"679.14 672 CURVE SMOOTH"
);
}
);
width = 773;
}
);
note = uni1E50;
unicode = 1E50;
},
{
glyphname = Oopen;
layers = (
{
layerId = "4FCB07EB-01E7-4D87-AA20-FCB2BF85BBFF";
paths = (
{
closed = 1;
nodes = (
"346.45 656 LINE",
"439.14 672 OFFCURVE",
"438.14 672 OFFCURVE",
"516.14 672 CURVE SMOOTH",
"668.14 672 OFFCURVE",
"736.51 561 OFFCURVE",
"678.96 368 CURVE SMOOTH",
"627.48 197 OFFCURVE",
"510.09 139 OFFCURVE",
"358.09 139 CURVE SMOOTH",
"280.09 139 OFFCURVE",
"245.24 144 OFFCURVE",
"204.71 159 CURVE",
"154 -13 LINE",
"438 -13 LINE SMOOTH",
"612 -13 OFFCURVE",
"648 0 OFFCURVE",
"757.96 368 CURVE SMOOTH",
"827.98 602 OFFCURVE",
"747.23 746 OFFCURVE",
"544.23 746 CURVE SMOOTH",
"463.23 746 OFFCURVE",
"441.77 744 OFFCURVE",
"356 732 CURVE"
);
}
);
width = 665;
}
);
note = uni0186;
unicode = 0186;
},
{
glyphname = Oslash;
layers = (
{
layerId = "4FCB07EB-01E7-4D87-AA20-FCB2BF85BBFF";
paths = (
{
closed = 1;
nodes = (
"1046.08 845 LINE",
"917.08 819 LINE",
"810.3 703 LINE",
"774.07 728 OFFCURVE",
"726.3 742 OFFCURVE",
"669.3 742 CURVE SMOOTH",
"481.3 742 OFFCURVE",
"315.13 594 OFFCURVE",
"247.03 364 CURVE SMOOTH",
"202.86 216 OFFCURVE",
"197.62 124 OFFCURVE",
"226.46 67 CURVE",
"77.83 -96 LINE",
"299.84 -18 LINE",
"316.23 1 LINE",
"350.92 -9 OFFCURVE",
"393.77 -14 OFFCURVE",
"444.77 -14 CURVE SMOOTH",
"676.31 -16 OFFCURVE",
"767.47 54 OFFCURVE",
"866.04 364 CURVE SMOOTH",
"902.36 478 OFFCURVE",
"899.83 571 OFFCURVE",
"866.07 637 CURVE"
);
},
{
closed = 1;
nodes = (
"397.52 548 OFFCURVE",
"518.15 672 OFFCURVE",
"649.15 672 CURVE SMOOTH",
"691.15 672 OFFCURVE",
"724.15 659 OFFCURVE",
"748.61 635 CURVE",
"358.49 210 LINE",
"327.95 238 OFFCURVE",
"319.04 286 OFFCURVE",
"342.04 364 CURVE SMOOTH"
);
},
{
closed = 1;
nodes = (
"725.18 213 OFFCURVE",
"631.94 173 OFFCURVE",
"500.94 173 CURVE SMOOTH",
"488.94 173 OFFCURVE",
"475.94 173 OFFCURVE",
"465.17 174 CURVE",
"788.51 548 LINE",
"796.2 499 OFFCURVE",
"791.65 436 OFFCURVE",
"770.03 364 CURVE SMOOTH"
);
}
);
width = 764;
}
);
note = Oslash;
unicode = 00D8;
},
{
glyphname = Oslashacute;
layers = (
{
layerId = "4FCB07EB-01E7-4D87-AA20-FCB2BF85BBFF";
paths = (
{
closed = 1;
nodes = (
"830.33 1028 LINE",
"783.33 1028 LINE",
"667.78 874 LINE",
"737.78 874 LINE"
);
},
{
closed = 1;
nodes = (
"1061.09 845 LINE",
"931.09 819 LINE",
"825.31 703 LINE",
"789.08 728 OFFCURVE",
"741.31 742 OFFCURVE",
"684.31 742 CURVE SMOOTH",
"496.31 742 OFFCURVE",
"330.14 594 OFFCURVE",
"262.04 364 CURVE SMOOTH",
"217.87 216 OFFCURVE",
"212.63 124 OFFCURVE",
"241.47 67 CURVE",
"92.84 -96 LINE",
"314.85 -18 LINE",
"330.24 1 LINE",
"364.93 -9 OFFCURVE",
"408.78 -14 OFFCURVE",
"459.78 -14 CURVE SMOOTH",
"691.32 -16 OFFCURVE",
"781.48 54 OFFCURVE",
"880.05 364 CURVE SMOOTH",
"916.37 478 OFFCURVE",
"914.84 571 OFFCURVE",
"881.08 637 CURVE"
);
},
{
closed = 1;
nodes = (
"413.53 548 OFFCURVE",
"533.16 672 OFFCURVE",
"664.16 672 CURVE SMOOTH",
"706.16 672 OFFCURVE",
"738.16 659 OFFCURVE",
"762.62 635 CURVE",
"373.5 210 LINE",
"342.96 238 OFFCURVE",
"335.05 286 OFFCURVE",
"358.05 364 CURVE SMOOTH"
);
},
{
closed = 1;
nodes = (
"740.19 213 OFFCURVE",
"645.95 173 OFFCURVE",
"514.95 173 CURVE SMOOTH",
"502.95 173 OFFCURVE",
"490.95 173 OFFCURVE",
"480.18 174 CURVE",
"804.52 548 LINE",
"812.21 499 OFFCURVE",
"806.66 436 OFFCURVE",
"785.04 364 CURVE SMOOTH"
);
}
);
width = 764;
}
);
note = Oslashacute;
unicode = 01FE;
},
{
glyphname = Otilde;
layers = (
{
layerId = "4FCB07EB-01E7-4D87-AA20-FCB2BF85BBFF";
paths = (
{
closed = 1;
nodes = (
"622.08 845 LINE",
"634.01 888 OFFCURVE",
"653.55 951 OFFCURVE",
"689.32 950 CURVE SMOOTH",
"723.09 949 OFFCURVE",
"710.31 846 OFFCURVE",
"776.08 845 CURVE SMOOTH",
"824.85 844 OFFCURVE",
"854 849 OFFCURVE",
"898.71 995 CURVE",
"856.71 995 LINE",
"840.4 946 OFFCURVE",
"835.62 895 OFFCURVE",
"789.62 895 CURVE SMOOTH",
"749.62 895 OFFCURVE",
"762.71 995 OFFCURVE",
"702.71 995 CURVE SMOOTH",
"637.71 995 OFFCURVE",
"614.09 962 OFFCURVE",
"572.08 845 CURVE"
);
},
{
closed = 1;
nodes = (
"500.3 742 OFFCURVE",
"334.13 594 OFFCURVE",
"266.03 364 CURVE SMOOTH",
"174.46 54 OFFCURVE",
"250.22 -12 OFFCURVE",
"462.76 -14 CURVE SMOOTH",
"694.3 -16 OFFCURVE",
"785.46 54 OFFCURVE",
"884.03 364 CURVE SMOOTH",
"957.13 594 OFFCURVE",
"876.3 742 OFFCURVE",
"688.3 742 CURVE SMOOTH"
);
},
{
closed = 1;
nodes = (
"798.14 672 OFFCURVE",
"844.51 548 OFFCURVE",
"789.03 364 CURVE SMOOTH",
"744.17 213 OFFCURVE",
"649.93 173 OFFCURVE",
"518.93 173 CURVE SMOOTH",
"387.93 173 OFFCURVE",
"316.16 213 OFFCURVE",
"361.03 364 CURVE SMOOTH",
"416.51 548 OFFCURVE",
"536.14 672 OFFCURVE",
"667.14 672 CURVE SMOOTH"
);
}
);
width = 773;
}
);
note = Otilde;
unicode = 00D5;
},
{
glyphname = Otildeacute;
layers = (
{
layerId = "4FCB07EB-01E7-4D87-AA20-FCB2BF85BBFF";
paths = (
{
closed = 1;
nodes = (
"916.73 1190 LINE",
"800.18 1036 LINE",
"870.18 1036 LINE",
"962.73 1190 LINE"
);
},
{
closed = 1;
nodes = (
"631.92 827 LINE",
"643.85 870 OFFCURVE",
"662.39 933 OFFCURVE",
"698.16 932 CURVE SMOOTH",
"731.93 931 OFFCURVE",
"719.15 828 OFFCURVE",
"784.92 827 CURVE SMOOTH",
"833.69 826 OFFCURVE",
"863.84 831 OFFCURVE",
"908.55 977 CURVE",
"866.55 977 LINE",
"850.24 928 OFFCURVE",
"844.46 877 OFFCURVE",
"798.46 877 CURVE SMOOTH",
"758.46 877 OFFCURVE",
"771.55 977 OFFCURVE",
"711.55 977 CURVE SMOOTH",
"646.55 977 OFFCURVE",
"622.93 944 OFFCURVE",
"580.92 827 CURVE"
);
},
{
closed = 1;
nodes = (
"516.3 742 OFFCURVE",
"350.13 594 OFFCURVE",
"282.03 364 CURVE SMOOTH",
"190.46 54 OFFCURVE",
"266.22 -12 OFFCURVE",
"478.76 -14 CURVE SMOOTH",
"710.3 -16 OFFCURVE",
"800.46 54 OFFCURVE",
"899.03 364 CURVE SMOOTH",
"972.13 594 OFFCURVE",
"892.3 742 OFFCURVE",
"704.3 742 CURVE SMOOTH"
);
},
{
closed = 1;
nodes = (
"814.14 672 OFFCURVE",
"860.51 548 OFFCURVE",
"805.03 364 CURVE SMOOTH",
"760.17 213 OFFCURVE",
"664.93 173 OFFCURVE",
"533.93 173 CURVE SMOOTH",
"402.93 173 OFFCURVE",
"332.16 213 OFFCURVE",
"377.03 364 CURVE SMOOTH",
"432.51 548 OFFCURVE",
"552.14 672 OFFCURVE",
"683.14 672 CURVE SMOOTH"
);
}
);
width = 773;
}
);
note = uni1E4C;
unicode = 1E4C;
},
{
glyphname = OE;
layers = (
{
layerId = "4FCB07EB-01E7-4D87-AA20-FCB2BF85BBFF";
paths = (
{
closed = 1;
nodes = (
"1091.46 -11 LINE",
"1106.32 140 LINE",
"801.32 140 LINE",
"854.88 320 LINE",
"1084.57 336 LINE",
"1108.73 419 LINE",
"881.19 408 LINE",
"945.52 626 LINE",
"1253.91 645 LINE",
"1295.76 718 LINE",
"884.53 704 LINE",
"864.45 643 LINE",
"828.99 706 OFFCURVE",
"762.31 742 OFFCURVE",
"670.31 742 CURVE SMOOTH",
"482.31 742 OFFCURVE",
"316.14 594 OFFCURVE",
"248.04 364 CURVE SMOOTH",
"156.47 54 OFFCURVE",
"232.23 -12 OFFCURVE",
"444.77 -14 CURVE SMOOTH",
"536.54 -15 OFFCURVE",
"606.08 -4 OFFCURVE",
"662.24 27 CURVE",
"649.47 -11 LINE"
);
},
{
closed = 1;
nodes = (
"369.95 173 OFFCURVE",
"298.18 213 OFFCURVE",
"343.05 364 CURVE SMOOTH",
"398.53 548 OFFCURVE",
"518.16 672 OFFCURVE",
"649.16 672 CURVE SMOOTH",
"780.16 672 OFFCURVE",
"826.53 548 OFFCURVE",
"771.05 364 CURVE SMOOTH",
"726.19 213 OFFCURVE",
"631.95 173 OFFCURVE",
"500.95 173 CURVE SMOOTH"
);
}
);
width = 1116;
}
);
note = OE;
unicode = 0152;
},
{
glyphname = P;
layers = (
{
layerId = "4FCB07EB-01E7-4D87-AA20-FCB2BF85BBFF";
paths = (
{
closed = 1;
nodes = (
"135 0 LINE",
"271 0 LINE",
"334.26 274 LINE",
"445.65 280 LINE SMOOTH",
"598.5 288 OFFCURVE",
"687.35 361 OFFCURVE",
"730.6 505 CURVE SMOOTH",
"758.76 601 OFFCURVE",
"724.31 716 OFFCURVE",
"556.31 716 CURVE SMOOTH",
"386.31 716 LINE"
);
},
{
closed = 1;
nodes = (
"541.3 651 LINE SMOOTH",
"660.3 651 OFFCURVE",
"674.83 584 OFFCURVE",
"664.75 549 CURVE SMOOTH",
"632.82 441 OFFCURVE",
"586.66 423 OFFCURVE",
"495.74 419 CURVE SMOOTH",
"370.36 413 LINE",
"441.31 651 LINE"
);
}
);
width = 597;
}
);
note = P;
unicode = 0050;
},
{
glyphname = Pdotaccent;
layers = (
{
layerId = "4FCB07EB-01E7-4D87-AA20-FCB2BF85BBFF";
paths = (
{
closed = 1;
nodes = (
"583.63 882 LINE",
"553.31 781 LINE",
"645.31 781 LINE",
"676.63 882 LINE"
);
},
{
closed = 1;
nodes = (
"148 0 LINE",
"284 0 LINE",
"347.26 274 LINE",
"457.65 280 LINE SMOOTH",
"610.5 288 OFFCURVE",
"700.35 361 OFFCURVE",
"743.6 505 CURVE SMOOTH",
"771.76 601 OFFCURVE",
"738.31 716 OFFCURVE",
"570.31 716 CURVE SMOOTH",
"399.31 716 LINE"
);
},
{
closed = 1;
nodes = (
"554.3 651 LINE SMOOTH",
"673.3 651 OFFCURVE",
"688.83 584 OFFCURVE",
"678.75 549 CURVE SMOOTH",
"646.82 441 OFFCURVE",
"599.66 423 OFFCURVE",
"508.74 419 CURVE SMOOTH",
"384.36 413 LINE",
"455.31 651 LINE"
);
}
);
width = 597;
}
);
note = uni1E56;
unicode = 1E56;
},
{
glyphname = Phook;
layers = (
{
layerId = "4FCB07EB-01E7-4D87-AA20-FCB2BF85BBFF";
paths = (
{
closed = 1;
nodes = (
"388.3 716 LINE",
"387.84 714 LINE",
"268.84 714 OFFCURVE",
"178.52 600 OFFCURVE",
"151.51 509 CURVE SMOOTH",
"132.04 442 LINE",
"161.18 343 LINE",
"172.49 379 OFFCURVE",
"192.65 449 OFFCURVE",
"208.96 485 CURVE SMOOTH",
"233.43 539 OFFCURVE",
"278.05 585 OFFCURVE",
"341.05 585 CURVE",
"351.51 613 LINE",
"137.99 0 LINE",
"272.99 0 LINE",
"336.25 274 LINE",
"447.64 280 LINE SMOOTH",
"600.49 288 OFFCURVE",
"689.34 361 OFFCURVE",
"732.59 505 CURVE SMOOTH",
"760.75 601 OFFCURVE",
"726.3 716 OFFCURVE",
"558.3 716 CURVE SMOOTH"
);
},
{
closed = 1;
nodes = (
"373.35 413 LINE",
"444.3 651 LINE",
"542.3 651 LINE SMOOTH",
"661.3 651 OFFCURVE",
"677.83 584 OFFCURVE",
"667.75 549 CURVE SMOOTH",
"635.82 441 OFFCURVE",
"588.66 423 OFFCURVE",
"497.74 419 CURVE SMOOTH"
);
}
);
width = 600;
}
);
note = uni01A4;
unicode = 01A4;
},
{
glyphname = Thorn;
layers = (
{
layerId = "4FCB07EB-01E7-4D87-AA20-FCB2BF85BBFF";
paths = (
{
closed = 1;
nodes = (
"646.82 493 OFFCURVE",
"521.44 591 OFFCURVE",
"392.83 597 CURVE",
"423.61 700 LINE",
"342.61 700 LINE",
"134 0 LINE",
"214 0 LINE",
"257.25 144 LINE",
"390.63 150 OFFCURVE",
"574.26 248 OFFCURVE",
"610.66 371 CURVE SMOOTH"
);
},
{
closed = 1;
nodes = (
"307.34 231 OFFCURVE",
"296.96 238 OFFCURVE",
"289.5 249 CURVE",
"364.83 506 LINE",
"376.91 515 OFFCURVE",
"390.06 520 OFFCURVE",
"401.06 520 CURVE SMOOTH",
"448.06 520 OFFCURVE",
"561.2 421 OFFCURVE",
"547.58 375 CURVE SMOOTH",
"533.96 329 OFFCURVE",
"367.33 231 OFFCURVE",
"320.33 231 CURVE SMOOTH"
);
},
{
closed = 1;
nodes = (
"273.65 384 LINE",
"268.19 369 LINE",
"268.65 371 OFFCURVE",
"270.11 373 OFFCURVE",
"270.57 375 CURVE"
);
}
);
width = 518;
}
);
note = Thorn;
unicode = 00DE;
},
{
glyphname = Q;
layers = (
{
layerId = "4FCB07EB-01E7-4D87-AA20-FCB2BF85BBFF";
paths = (
{
closed = 1;
nodes = (
"648.7 42 LINE",
"721.48 106 OFFCURVE",
"801.79 194 OFFCURVE",
"852.04 364 CURVE SMOOTH",
"920.14 594 OFFCURVE",
"846.31 742 OFFCURVE",
"658.31 742 CURVE SMOOTH",
"470.31 742 OFFCURVE",
"296.45 565 OFFCURVE",
"236.04 364 CURVE SMOOTH",
"139.24 40 OFFCURVE",
"248.77 -14 OFFCURVE",
"429.77 -14 CURVE SMOOTH",
"439.77 -14 OFFCURVE",
"447.77 -14 OFFCURVE",
"467.23 -12 CURVE",
"527.22 -129 LINE",
"739.22 -129 LINE"
);
},
{
closed = 1;
nodes = (
"766.84 662 OFFCURVE",
"812.52 548 OFFCURVE",
"757.04 364 CURVE SMOOTH",
"734.49 288 OFFCURVE",
"677.71 185 OFFCURVE",
"649.71 185 CURVE SMOOTH",
"613.71 185 OFFCURVE",
"569.56 206 OFFCURVE",
"529.02 234 CURVE",
"476.47 158 LINE",
"427.01 156 LINE SMOOTH",
"374.55 154 OFFCURVE",
"272.32 153 OFFCURVE",
"335.03 364 CURVE SMOOTH",
"381.81 519 OFFCURVE",
"504.83 662 OFFCURVE",
"635.83 662 CURVE SMOOTH"
);
}
);
width = 806;
}
);
note = Q;
unicode = 0051;
},
{
glyphname = R;
layers = (
{
layerId = "4FCB07EB-01E7-4D87-AA20-FCB2BF85BBFF";
paths = (
{
closed = 1;
nodes = (
"627.11 373 OFFCURVE",
"680.65 423 OFFCURVE",
"708.82 519 CURVE SMOOTH",
"750.37 660 OFFCURVE",
"692.3 729 OFFCURVE",
"557.3 729 CURVE SMOOTH",
"395.3 729 LINE",
"136 0 LINE",
"281 0 LINE",
"348.1 282 LINE",
"399.18 291 LINE SMOOTH",
"456.49 301 OFFCURVE",
"552.87 294 OFFCURVE",
"516.17 187 CURVE SMOOTH",
"453 0 LINE",
"617 0 LINE",
"623.94 199 LINE SMOOTH",
"626.95 277 OFFCURVE",
"593.49 340 OFFCURVE",
"561.57 362 CURVE"
);
},
{
closed = 1;
nodes = (
"551.29 677 LINE SMOOTH",
"620.29 677 OFFCURVE",
"681.67 644 OFFCURVE",
"644.81 519 CURVE SMOOTH",
"626.27 456 OFFCURVE",
"539.49 405 OFFCURVE",
"470.49 405 CURVE SMOOTH",
"356.49 405 LINE",
"437.29 677 LINE"
);
}
);
width = 635;
}
);
note = R;
unicode = 0052;
},
{
glyphname = Racute;
layers = (
{
layerId = "4FCB07EB-01E7-4D87-AA20-FCB2BF85BBFF";
paths = (
{
closed = 1;
nodes = (
"671.48 942 LINE",
"555.93 788 LINE",
"624.93 788 LINE",
"717.48 942 LINE"
);
},
{
closed = 1;
nodes = (
"644.12 373 OFFCURVE",
"697.66 423 OFFCURVE",
"725.83 519 CURVE SMOOTH",
"767.38 660 OFFCURVE",
"710.31 729 OFFCURVE",
"575.31 729 CURVE SMOOTH",
"412.31 729 LINE",
"154.01 0 LINE",
"298.01 0 LINE",
"366.11 282 LINE",
"416.19 291 LINE SMOOTH",
"473.5 301 OFFCURVE",
"570.88 294 OFFCURVE",
"534.18 187 CURVE SMOOTH",
"470.01 0 LINE",
"634.01 0 LINE",
"641.95 199 LINE SMOOTH",
"644.96 277 OFFCURVE",
"610.5 340 OFFCURVE",
"578.58 362 CURVE"
);
},
{
closed = 1;
nodes = (
"568.3 677 LINE SMOOTH",
"637.3 677 OFFCURVE",
"698.68 644 OFFCURVE",
"661.82 519 CURVE SMOOTH",
"643.28 456 OFFCURVE",
"556.5 405 OFFCURVE",
"487.5 405 CURVE SMOOTH",
"374.5 405 LINE",
"455.3 677 LINE"
);
}
);
width = 635;
}
);
note = Racute;
unicode = 0154;
},
{
glyphname = Rcaron;
layers = (
{
layerId = "4FCB07EB-01E7-4D87-AA20-FCB2BF85BBFF";
paths = (
{
closed = 1;
nodes = (
"587.85 779 LINE",
"631.85 779 LINE",
"686.63 843 LINE",
"845.87 974 LINE",
"796.87 974 LINE",
"635.01 875 LINE",
"533.87 974 LINE",
"483.87 974 LINE",
"566.63 843 LINE"
);
},
{
closed = 1;
nodes = (
"648.12 373 OFFCURVE",
"700.66 423 OFFCURVE",
"728.83 519 CURVE SMOOTH",
"770.38 660 OFFCURVE",
"713.31 729 OFFCURVE",
"578.31 729 CURVE SMOOTH",
"416.31 729 LINE",
"157.01 0 LINE",
"301.01 0 LINE",
"369.11 282 LINE",
"420.19 291 LINE SMOOTH",
"477.5 301 OFFCURVE",
"573.88 294 OFFCURVE",
"537.18 187 CURVE SMOOTH",
"474.01 0 LINE",
"638.01 0 LINE",
"644.95 199 LINE SMOOTH",
"647.96 277 OFFCURVE",
"614.5 340 OFFCURVE",
"582.58 362 CURVE"
);
},
{
closed = 1;
nodes = (
"572.3 677 LINE SMOOTH",
"641.3 677 OFFCURVE",
"701.68 644 OFFCURVE",
"664.82 519 CURVE SMOOTH",
"646.28 456 OFFCURVE",
"560.5 405 OFFCURVE",
"491.5 405 CURVE SMOOTH",
"377.5 405 LINE",
"458.3 677 LINE"
);
}
);
width = 636;
}
);
note = Rcaron;
unicode = 0158;
},
{
glyphname = Rcommaaccent;
layers = (
{
layerId = "4FCB07EB-01E7-4D87-AA20-FCB2BF85BBFF";
paths = (
{
closed = 1;
nodes = (
"632.69 774 LINE",
"762.48 1007 LINE",
"662.48 1007 LINE",
"635.39 920 LINE",
"637.39 920 LINE",
"546.68 774 LINE"
);
},
{
closed = 1;
nodes = (
"474.99 0 LINE",
"639.99 0 LINE",
"646.93 199 LINE SMOOTH",
"649.94 277 OFFCURVE",
"615.48 340 OFFCURVE",
"583.56 362 CURVE",
"649.1 373 OFFCURVE",
"702.64 423 OFFCURVE",
"730.81 519 CURVE SMOOTH",
"772.36 660 OFFCURVE",
"715.29 729 OFFCURVE",
"580.29 729 CURVE SMOOTH",
"417.29 729 LINE",
"158.99 0 LINE",
"301.99 0 LINE",
"371.09 282 LINE",
"422.17 291 LINE SMOOTH",
"479.48 301 OFFCURVE",
"574.86 294 OFFCURVE",
"538.16 187 CURVE SMOOTH"
);
},
{
closed = 1;
nodes = (
"379.49 405 LINE",
"460.29 677 LINE",
"574.29 677 LINE SMOOTH",
"643.29 677 OFFCURVE",
"703.67 644 OFFCURVE",
"666.81 519 CURVE SMOOTH",
"648.27 456 OFFCURVE",
"562.49 405 OFFCURVE",
"493.49 405 CURVE SMOOTH"
);
}
);
width = 635;
}
);
note = uni0156;
unicode = 0156;
},
{
glyphname = Rdotbelow;
layers = (
{
layerId = "4FCB07EB-01E7-4D87-AA20-FCB2BF85BBFF";
paths = (
{
closed = 1;
nodes = (
"614.11 373 OFFCURVE",
"667.65 423 OFFCURVE",
"695.82 519 CURVE SMOOTH",
"737.37 660 OFFCURVE",
"680.3 729 OFFCURVE",
"545.3 729 CURVE SMOOTH",
"382.3 729 LINE",
"124 0 LINE",
"268 0 LINE",
"336.1 282 LINE",
"386.18 291 LINE SMOOTH",
"443.49 301 OFFCURVE",
"540.87 294 OFFCURVE",
"504.17 187 CURVE SMOOTH",
"440 0 LINE",
"604 0 LINE",
"611.94 199 LINE SMOOTH",
"614.95 277 OFFCURVE",
"580.49 340 OFFCURVE",
"548.57 362 CURVE"
);
},
{
closed = 1;
nodes = (
"538.29 677 LINE SMOOTH",
"607.29 677 OFFCURVE",
"668.67 644 OFFCURVE",
"631.81 519 CURVE SMOOTH",
"613.27 456 OFFCURVE",
"526.49 405 OFFCURVE",
"457.49 405 CURVE SMOOTH",
"344.49 405 LINE",
"425.29 677 LINE"
);
},
{
closed = 1;
nodes = (
"279.37 -59 LINE",
"249.05 -160 LINE",
"342.05 -160 LINE",
"371.37 -59 LINE"
);
}
);
width = 635;
}
);
note = uni1E5A;
unicode = 1E5A;
},
{
glyphname = Rstroke;
layers = (
{
layerId = "4FCB07EB-01E7-4D87-AA20-FCB2BF85BBFF";
paths = (
{
closed = 1;
nodes = (
"453 0 LINE",
"619 0 LINE",
"624.94 199 LINE SMOOTH",
"626.25 261 OFFCURVE",
"606.49 314 OFFCURVE",
"581.42 344 CURVE",
"590.19 369 LINE",
"642.81 389 OFFCURVE",
"684.89 437 OFFCURVE",
"709.82 519 CURVE SMOOTH",
"751.37 660 OFFCURVE",
"694.3 729 OFFCURVE",
"559.3 729 CURVE SMOOTH",
"395.3 729 LINE",
"275.8 389 LINE",
"171.8 389 LINE",
"139.79 298 LINE",
"242.79 298 LINE",
"137.99 0 LINE",
"280.99 0 LINE",
"350.09 282 LINE",
"399.17 291 LINE SMOOTH",
"456.48 301 OFFCURVE",
"553.86 294 OFFCURVE",
"517.16 187 CURVE SMOOTH"
);
},
{
closed = 1;
nodes = (
"439.29 677 LINE",
"552.29 677 LINE SMOOTH",
"621.29 677 OFFCURVE",
"681.67 644 OFFCURVE",
"644.81 519 CURVE SMOOTH",
"626.27 456 OFFCURVE",
"540.49 405 OFFCURVE",
"471.49 405 CURVE SMOOTH",
"357.49 405 LINE"
);
}
);
width = 636;
}
);
note = uni024C;
unicode = 024C;
},
{
glyphname = Rtail;
layers = (
{
layerId = "4FCB07EB-01E7-4D87-AA20-FCB2BF85BBFF";
paths = (
{
closed = 1;
nodes = (
"438 0 LINE",
"603 0 LINE",
"609.94 199 LINE SMOOTH",
"612.95 277 OFFCURVE",
"578.49 340 OFFCURVE",
"546.57 362 CURVE",
"612.11 373 OFFCURVE",
"666.65 423 OFFCURVE",
"694.82 519 CURVE SMOOTH",
"736.37 660 OFFCURVE",
"678.3 729 OFFCURVE",
"543.3 729 CURVE SMOOTH",
"380.3 729 LINE",
"126.08 9 LINE",
"100.92 -22 OFFCURVE",
"66.07 -43 OFFCURVE",
"23.07 -43 CURVE",
"2.07 -95 OFFCURVE",
"-6.48 -119 OFFCURVE",
"-23.71 -172 CURVE",
"95.29 -172 OFFCURVE",
"242.99 -91 OFFCURVE",
"266.46 -11 CURVE",
"267.38 -7 OFFCURVE",
"266.77 -1 OFFCURVE",
"267.15 5 CURVE",
"334.1 282 LINE",
"384.18 291 LINE SMOOTH",
"441.49 301 OFFCURVE",
"538.87 294 OFFCURVE",
"502.17 187 CURVE SMOOTH"
);
},
{
closed = 1;
nodes = (
"342.5 405 LINE",
"423.3 677 LINE",
"536.3 677 LINE SMOOTH",
"605.3 677 OFFCURVE",
"666.68 644 OFFCURVE",
"629.82 519 CURVE SMOOTH",
"611.28 456 OFFCURVE",
"524.5 405 OFFCURVE",
"455.5 405 CURVE SMOOTH"
);
}
);
width = 635;
}
);
note = uni2C64;
unicode = 2C64;
},
{
glyphname = S;
layers = (
{
layerId = "4FCB07EB-01E7-4D87-AA20-FCB2BF85BBFF";
paths = (
{
closed = 1;
nodes = (
"796.22 720 LINE",
"733.14 737 OFFCURVE",
"696.3 742 OFFCURVE",
"634.3 742 CURVE SMOOTH",
"487.3 742 OFFCURVE",
"376.06 663 OFFCURVE",
"338.28 534 CURVE SMOOTH",
"305.65 423 OFFCURVE",
"344.03 364 OFFCURVE",
"470.34 335 CURVE SMOOTH",
"521.57 323 LINE SMOOTH",
"606.95 303 OFFCURVE",
"659.87 268 OFFCURVE",
"640.02 208 CURVE SMOOTH",
"606.4 110 OFFCURVE",
"543.09 100 OFFCURVE",
"452.09 100 CURVE SMOOTH",
"402.09 100 OFFCURVE",
"323.86 138 OFFCURVE",
"297.56 167 CURVE",
"161.63 85 LINE",
"190.77 -14 OFFCURVE",
"271.77 -14 OFFCURVE",
"389.77 -14 CURVE SMOOTH",
"604.77 -14 OFFCURVE",
"681.77 -14 OFFCURVE",
"745.41 201 CURVE SMOOTH",
"780.88 320 OFFCURVE",
"704.35 387 OFFCURVE",
"576.28 417 CURVE SMOOTH",
"526.05 429 LINE SMOOTH",
"451.21 447 OFFCURVE",
"390.98 485 OFFCURVE",
"410.76 549 CURVE SMOOTH",
"433.54 626 OFFCURVE",
"522.85 662 OFFCURVE",
"620.85 662 CURVE SMOOTH",
"684.85 662 OFFCURVE",
"696.16 659 OFFCURVE",
"737.16 646 CURVE"
);
}
);
width = 703;
}
);
note = S;
unicode = 0053;
},
{
glyphname = Sacute;
layers = (
{
layerId = "4FCB07EB-01E7-4D87-AA20-FCB2BF85BBFF";
paths = (
{
closed = 1;
nodes = (
"720.48 942 LINE",
"604.93 788 LINE",
"674.93 788 LINE",
"767.48 942 LINE"
);
},
{
closed = 1;
nodes = (
"813.23 720 LINE",
"750.15 737 OFFCURVE",
"713.31 742 OFFCURVE",
"651.31 742 CURVE SMOOTH",
"504.31 742 OFFCURVE",
"393.07 663 OFFCURVE",
"355.29 534 CURVE SMOOTH",
"322.66 423 OFFCURVE",
"360.04 364 OFFCURVE",
"486.35 335 CURVE SMOOTH",
"538.58 323 LINE SMOOTH",
"623.96 303 OFFCURVE",
"674.88 268 OFFCURVE",
"655.03 208 CURVE SMOOTH",
"621.41 110 OFFCURVE",
"560.1 100 OFFCURVE",
"469.1 100 CURVE SMOOTH",
"419.1 100 OFFCURVE",
"339.87 138 OFFCURVE",
"313.57 167 CURVE",
"177.64 85 LINE",
"206.78 -14 OFFCURVE",
"287.78 -14 OFFCURVE",
"405.78 -14 CURVE SMOOTH",
"620.78 -14 OFFCURVE",
"698.78 -14 OFFCURVE",
"762.42 201 CURVE SMOOTH",
"797.89 320 OFFCURVE",
"721.36 387 OFFCURVE",
"593.29 417 CURVE SMOOTH",
"542.06 429 LINE SMOOTH",
"467.22 447 OFFCURVE",
"406.99 485 OFFCURVE",
"426.77 549 CURVE SMOOTH",
"449.55 626 OFFCURVE",
"538.86 662 OFFCURVE",
"636.86 662 CURVE SMOOTH",
"700.86 662 OFFCURVE",
"712.17 659 OFFCURVE",
"753.17 646 CURVE"
);
}
);
width = 703;
}
);
note = Sacute;
unicode = 015A;
},
{
glyphname = Saltillo;
layers = (
{
layerId = "4FCB07EB-01E7-4D87-AA20-FCB2BF85BBFF";
paths = (
{
closed = 1;
nodes = (
"477.15 763 LINE",
"356.7 120 LINE",
"451.7 120 LINE",
"690.15 763 LINE"
);
}
);
width = 551;
}
);
note = uniA78B;
unicode = A78B;
},
{
glyphname = Scaron;
layers = (
{
layerId = "4FCB07EB-01E7-4D87-AA20-FCB2BF85BBFF";
paths = (
{
closed = 1;
nodes = (
"636.85 779 LINE",
"680.85 779 LINE",
"735.63 843 LINE",
"894.87 974 LINE",
"845.87 974 LINE",
"683.01 875 LINE",
"581.87 974 LINE",
"532.87 974 LINE",
"615.63 843 LINE"
);
},
{
closed = 1;
nodes = (
"816.23 720 LINE",
"753.15 737 OFFCURVE",
"716.31 742 OFFCURVE",
"654.31 742 CURVE SMOOTH",
"507.31 742 OFFCURVE",
"395.07 663 OFFCURVE",
"357.29 534 CURVE SMOOTH",
"324.66 423 OFFCURVE",
"363.04 364 OFFCURVE",
"489.35 335 CURVE SMOOTH",
"540.58 323 LINE SMOOTH",
"625.96 303 OFFCURVE",
"678.88 268 OFFCURVE",
"659.03 208 CURVE SMOOTH",
"625.41 110 OFFCURVE",
"563.1 100 OFFCURVE",
"472.1 100 CURVE SMOOTH",
"422.1 100 OFFCURVE",
"343.87 138 OFFCURVE",
"317.57 167 CURVE",
"180.64 85 LINE",
"209.78 -14 OFFCURVE",
"290.78 -14 OFFCURVE",
"408.78 -14 CURVE SMOOTH",
"623.78 -14 OFFCURVE",
"701.78 -14 OFFCURVE",
"765.42 201 CURVE SMOOTH",
"800.89 320 OFFCURVE",
"723.36 387 OFFCURVE",
"595.29 417 CURVE SMOOTH",
"545.06 429 LINE SMOOTH",
"470.22 447 OFFCURVE",
"409.99 485 OFFCURVE",
"429.77 549 CURVE SMOOTH",
"452.55 626 OFFCURVE",
"542.86 662 OFFCURVE",
"640.86 662 CURVE SMOOTH",
"704.86 662 OFFCURVE",
"716.17 659 OFFCURVE",
"757.17 646 CURVE"
);
}
);
width = 704;
}
);
note = Scaron;
unicode = 0160;
},
{
glyphname = Scedilla;
layers = (
{
layerId = "4FCB07EB-01E7-4D87-AA20-FCB2BF85BBFF";
paths = (
{
closed = 1;
nodes = (
"764.87 320 OFFCURVE",
"688.34 387 OFFCURVE",
"560.27 417 CURVE SMOOTH",
"510.04 429 LINE SMOOTH",
"435.2 447 OFFCURVE",
"373.97 485 OFFCURVE",
"393.75 549 CURVE SMOOTH",
"416.53 626 OFFCURVE",
"506.84 662 OFFCURVE",
"604.84 662 CURVE SMOOTH",
"668.84 662 OFFCURVE",
"680.15 659 OFFCURVE",
"721.15 646 CURVE",
"780.23 720 LINE",
"717.15 737 OFFCURVE",
"680.31 742 OFFCURVE",
"618.31 742 CURVE SMOOTH",
"471.31 742 OFFCURVE",
"360.07 663 OFFCURVE",
"322.29 534 CURVE SMOOTH",
"289.66 423 OFFCURVE",
"328.04 364 OFFCURVE",
"454.35 335 CURVE SMOOTH",
"505.58 323 LINE SMOOTH",
"590.96 303 OFFCURVE",
"642.88 268 OFFCURVE",
"623.03 208 CURVE SMOOTH",
"589.41 110 OFFCURVE",
"527.1 100 OFFCURVE",
"436.1 100 CURVE SMOOTH",
"386.1 100 OFFCURVE",
"307.87 138 OFFCURVE",
"281.57 167 CURVE",
"145.64 85 LINE",
"173.94 -9 OFFCURVE",
"247.78 -14 OFFCURVE",
"356.78 -14 CURVE",
"305.62 -97 LINE",
"328.31 -94 OFFCURVE",
"347.77 -92 OFFCURVE",
"363.77 -92 CURVE SMOOTH",
"386.77 -92 OFFCURVE",
"420.31 -94 OFFCURVE",
"407.15 -138 CURVE SMOOTH",
"402.46 -154 OFFCURVE",
"371.07 -173 OFFCURVE",
"338.07 -173 CURVE SMOOTH",
"318.07 -173 OFFCURVE",
"310.07 -173 OFFCURVE",
"290.22 -168 CURVE",
"264.98 -221 LINE",
"320.98 -221 LINE SMOOTH",
"372.98 -221 OFFCURVE",
"418.67 -192 OFFCURVE",
"439.99 -143 CURVE SMOOTH",
"466.84 -83 OFFCURVE",
"415.54 -67 OFFCURVE",
"380.54 -67 CURVE SMOOTH",
"351.54 -67 LINE",
"384.78 -14 LINE",
"590.78 -14 OFFCURVE",
"666.7 -10 OFFCURVE",
"729.42 201 CURVE SMOOTH"
);
}
);
width = 703;
}
);
note = Scedilla;
unicode = 015E;
},
{
glyphname = Scircumflex;
layers = (
{
layerId = "4FCB07EB-01E7-4D87-AA20-FCB2BF85BBFF";
paths = (
{
closed = 1;
nodes = (
"687.17 958 LINE",
"628.39 894 LINE",
"467.15 763 LINE",
"516.15 763 LINE",
"677.01 862 LINE",
"780.15 763 LINE",
"830.15 763 LINE",
"748.39 894 LINE",
"731.17 958 LINE"
);
},
{
closed = 1;
nodes = (
"814.22 720 LINE",
"751.14 737 OFFCURVE",
"714.3 742 OFFCURVE",
"652.3 742 CURVE SMOOTH",
"505.3 742 OFFCURVE",
"394.06 663 OFFCURVE",
"356.28 534 CURVE SMOOTH",
"323.65 423 OFFCURVE",
"362.03 364 OFFCURVE",
"488.34 335 CURVE SMOOTH",
"539.57 323 LINE SMOOTH",
"624.95 303 OFFCURVE",
"676.87 268 OFFCURVE",
"657.02 208 CURVE SMOOTH",
"623.4 110 OFFCURVE",
"561.09 100 OFFCURVE",
"470.09 100 CURVE SMOOTH",
"420.09 100 OFFCURVE",
"340.86 138 OFFCURVE",
"314.56 167 CURVE",
"179.63 85 LINE",
"208.77 -14 OFFCURVE",
"288.77 -14 OFFCURVE",
"406.77 -14 CURVE SMOOTH",
"621.77 -14 OFFCURVE",
"698.77 -14 OFFCURVE",
"762.41 201 CURVE SMOOTH",
"797.88 320 OFFCURVE",
"722.35 387 OFFCURVE",
"594.28 417 CURVE SMOOTH",
"544.05 429 LINE SMOOTH",
"469.21 447 OFFCURVE",
"407.98 485 OFFCURVE",
"427.76 549 CURVE SMOOTH",
"450.54 626 OFFCURVE",
"539.85 662 OFFCURVE",
"637.85 662 CURVE SMOOTH",
"701.85 662 OFFCURVE",
"713.16 659 OFFCURVE",
"754.16 646 CURVE"
);
}
);
width = 703;
}
);
note = Scircumflex;
unicode = 015C;
},
{
glyphname = Scommaaccent;
layers = (
{
layerId = "4FCB07EB-01E7-4D87-AA20-FCB2BF85BBFF";
paths = (
{
closed = 1;
nodes = (
"682.69 774 LINE",
"812.48 1007 LINE",
"710.48 1007 LINE",
"684.39 920 LINE",
"687.39 920 LINE",
"594.68 774 LINE"
);
},
{
closed = 1;
nodes = (
"547.03 429 LINE SMOOTH",
"472.19 447 OFFCURVE",
"411.96 485 OFFCURVE",
"431.74 549 CURVE SMOOTH",
"454.52 626 OFFCURVE",
"544.83 662 OFFCURVE",
"642.83 662 CURVE SMOOTH",
"706.83 662 OFFCURVE",
"717.14 659 OFFCURVE",
"758.14 646 CURVE",
"818.22 720 LINE",
"755.14 737 OFFCURVE",
"718.3 742 OFFCURVE",
"656.3 742 CURVE SMOOTH",
"509.3 742 OFFCURVE",
"397.06 663 OFFCURVE",
"359.28 534 CURVE SMOOTH",
"326.65 423 OFFCURVE",
"365.03 364 OFFCURVE",
"491.34 335 CURVE SMOOTH",
"542.57 323 LINE SMOOTH",
"627.95 303 OFFCURVE",
"680.87 268 OFFCURVE",
"661.02 208 CURVE SMOOTH",
"627.4 110 OFFCURVE",
"565.09 100 OFFCURVE",
"474.09 100 CURVE SMOOTH",
"424.09 100 OFFCURVE",
"345.86 138 OFFCURVE",
"319.56 167 CURVE",
"182.63 85 LINE",
"211.77 -14 OFFCURVE",
"292.77 -14 OFFCURVE",
"410.77 -14 CURVE SMOOTH",
"625.77 -14 OFFCURVE",
"703.77 -14 OFFCURVE",
"767.41 201 CURVE SMOOTH",
"802.88 320 OFFCURVE",
"725.35 387 OFFCURVE",
"597.28 417 CURVE SMOOTH"
);
}
);
width = 703;
}
);
note = uni0218;
unicode = 0218;
},
{
glyphname = Sdotaccent;
layers = (
{
layerId = "4FCB07EB-01E7-4D87-AA20-FCB2BF85BBFF";
paths = (
{
closed = 1;
nodes = (
"640.32 911 LINE",
"611 810 LINE",
"704 810 LINE",
"733.32 911 LINE"
);
},
{
closed = 1;
nodes = (
"810.22 720 LINE",
"747.14 737 OFFCURVE",
"710.3 742 OFFCURVE",
"648.3 742 CURVE SMOOTH",
"501.3 742 OFFCURVE",
"390.06 663 OFFCURVE",
"352.28 534 CURVE SMOOTH",
"319.65 423 OFFCURVE",
"358.03 364 OFFCURVE",
"484.34 335 CURVE SMOOTH",
"535.57 323 LINE SMOOTH",
"620.95 303 OFFCURVE",
"673.87 268 OFFCURVE",
"654.02 208 CURVE SMOOTH",
"620.4 110 OFFCURVE",
"557.09 100 OFFCURVE",
"466.09 100 CURVE SMOOTH",
"416.09 100 OFFCURVE",
"337.86 138 OFFCURVE",
"311.56 167 CURVE",
"175.63 85 LINE",
"204.77 -14 OFFCURVE",
"285.77 -14 OFFCURVE",
"403.77 -14 CURVE SMOOTH",
"618.77 -14 OFFCURVE",
"695.77 -14 OFFCURVE",
"759.41 201 CURVE SMOOTH",
"794.88 320 OFFCURVE",
"718.35 387 OFFCURVE",
"590.28 417 CURVE SMOOTH",
"540.05 429 LINE SMOOTH",
"465.21 447 OFFCURVE",
"403.98 485 OFFCURVE",
"423.76 549 CURVE SMOOTH",
"446.54 626 OFFCURVE",
"536.85 662 OFFCURVE",
"634.85 662 CURVE SMOOTH",
"698.85 662 OFFCURVE",
"710.16 659 OFFCURVE",
"751.16 646 CURVE"
);
}
);
width = 703;
}
);
note = uni1E60;
unicode = 1E60;
},
{
glyphname = Sdotbelow;
layers = (
{
layerId = "4FCB07EB-01E7-4D87-AA20-FCB2BF85BBFF";
paths = (
{
closed = 1;
nodes = (
"786.22 720 LINE",
"723.14 737 OFFCURVE",
"686.3 742 OFFCURVE",
"624.3 742 CURVE SMOOTH",
"477.3 742 OFFCURVE",
"365.06 663 OFFCURVE",
"327.28 534 CURVE SMOOTH",
"294.65 423 OFFCURVE",
"334.03 364 OFFCURVE",
"460.34 335 CURVE SMOOTH",
"510.57 323 LINE SMOOTH",
"595.95 303 OFFCURVE",
"648.87 268 OFFCURVE",
"629.02 208 CURVE SMOOTH",
"595.4 110 OFFCURVE",
"533.09 100 OFFCURVE",
"442.09 100 CURVE SMOOTH",
"392.09 100 OFFCURVE",
"313.86 138 OFFCURVE",
"287.56 167 CURVE",
"150.63 85 LINE",
"179.77 -14 OFFCURVE",
"260.77 -14 OFFCURVE",
"378.77 -14 CURVE SMOOTH",
"593.77 -14 OFFCURVE",
"670.77 -14 OFFCURVE",
"734.41 201 CURVE SMOOTH",
"769.88 320 OFFCURVE",
"693.35 387 OFFCURVE",
"565.28 417 CURVE SMOOTH",
"515.05 429 LINE SMOOTH",
"440.21 447 OFFCURVE",
"379.98 485 OFFCURVE",
"399.76 549 CURVE SMOOTH",
"422.54 626 OFFCURVE",
"512.85 662 OFFCURVE",
"610.85 662 CURVE SMOOTH",
"674.85 662 OFFCURVE",
"685.16 659 OFFCURVE",
"726.16 646 CURVE"
);
},
{
closed = 1;
nodes = (
"335.4 -46 LINE",
"305.08 -147 LINE",
"398.08 -147 LINE",
"428.4 -46 LINE"
);
}
);
width = 703;
}
);
note = uni1E62;
unicode = 1E62;
},
{
glyphname = Germandbls;
layers = (
{
layerId = "4FCB07EB-01E7-4D87-AA20-FCB2BF85BBFF";
paths = (
{
closed = 1;
nodes = (
"802.22 720 LINE",
"739.14 737 OFFCURVE",
"702.3 742 OFFCURVE",
"640.3 742 CURVE SMOOTH",
"493.3 742 OFFCURVE",
"382.06 663 OFFCURVE",
"344.28 534 CURVE SMOOTH",
"311.65 423 OFFCURVE",
"350.03 364 OFFCURVE",
"476.34 335 CURVE SMOOTH",
"527.57 323 LINE SMOOTH",
"612.95 303 OFFCURVE",
"664.87 268 OFFCURVE",
"645.02 208 CURVE SMOOTH",
"611.4 110 OFFCURVE",
"549.09 100 OFFCURVE",
"458.09 100 CURVE SMOOTH",
"408.09 100 OFFCURVE",
"328.86 138 OFFCURVE",
"302.56 167 CURVE",
"167.63 85 LINE",
"196.77 -14 OFFCURVE",
"276.77 -14 OFFCURVE",
"394.77 -14 CURVE SMOOTH",
"609.77 -14 OFFCURVE",
"687.77 -14 OFFCURVE",
"751.41 201 CURVE SMOOTH",
"786.88 320 OFFCURVE",
"710.35 387 OFFCURVE",
"582.28 417 CURVE SMOOTH",
"532.05 429 LINE SMOOTH",
"457.21 447 OFFCURVE",
"395.98 485 OFFCURVE",
"415.76 549 CURVE SMOOTH",
"438.54 626 OFFCURVE",
"527.85 662 OFFCURVE",
"625.85 662 CURVE SMOOTH",
"689.85 662 OFFCURVE",
"701.16 659 OFFCURVE",
"742.16 646 CURVE"
);
},
{
closed = 1;
nodes = (
"1498.24 720 LINE",
"1435.16 737 OFFCURVE",
"1398.32 742 OFFCURVE",
"1336.32 742 CURVE SMOOTH",
"1189.32 742 OFFCURVE",
"1077.08 663 OFFCURVE",
"1039.3 534 CURVE SMOOTH",
"1006.67 423 OFFCURVE",
"1046.05 364 OFFCURVE",
"1172.36 335 CURVE SMOOTH",
"1223.59 323 LINE SMOOTH",
"1308.97 303 OFFCURVE",
"1360.89 268 OFFCURVE",
"1341.04 208 CURVE SMOOTH",
"1307.42 110 OFFCURVE",
"1245.11 100 OFFCURVE",
"1154.11 100 CURVE SMOOTH",
"1104.11 100 OFFCURVE",
"1025.88 138 OFFCURVE",
"999.58 167 CURVE",
"862.65 85 LINE",
"891.79 -14 OFFCURVE",
"972.79 -14 OFFCURVE",
"1090.79 -14 CURVE SMOOTH",
"1305.79 -14 OFFCURVE",
"1382.79 -14 OFFCURVE",
"1446.43 201 CURVE SMOOTH",
"1481.9 320 OFFCURVE",
"1405.37 387 OFFCURVE",
"1277.3 417 CURVE SMOOTH",
"1227.07 429 LINE SMOOTH",
"1152.23 447 OFFCURVE",
"1092 485 OFFCURVE",
"1111.78 549 CURVE SMOOTH",
"1134.56 626 OFFCURVE",
"1223.87 662 OFFCURVE",
"1321.87 662 CURVE SMOOTH",
"1385.87 662 OFFCURVE",
"1397.18 659 OFFCURVE",
"1438.18 646 CURVE"
);
}
);
width = 1410;
}
);
note = uni1E9E;
unicode = 1E9E;
},
{
glyphname = Schwa;
layers = (
{
layerId = "4FCB07EB-01E7-4D87-AA20-FCB2BF85BBFF";
paths = (
{
closed = 1;
nodes = (
"171.02 208 LINE",
"140 26 OFFCURVE",
"193.61 -32 OFFCURVE",
"292.38 -46 CURVE",
"442 -52 OFFCURVE",
"567.16 57 OFFCURVE",
"632.25 235 CURVE SMOOTH",
"690.19 408 OFFCURVE",
"628.51 522 OFFCURVE",
"471.13 529 CURVE SMOOTH",
"406.59 531 OFFCURVE",
"344.05 520 OFFCURVE",
"275.28 495 CURVE",
"233.65 371 LINE",
"315.58 401 OFFCURVE",
"354.42 396 OFFCURVE",
"423.42 396 CURVE SMOOTH",
"552.19 395 OFFCURVE",
"584.72 315 OFFCURVE",
"553.79 220 CURVE"
);
},
{
closed = 1;
nodes = (
"503.94 134 LINE",
"482.7 68 OFFCURVE",
"398.31 -3 OFFCURVE",
"308.23 1 CURVE SMOOTH",
"228.15 5 OFFCURVE",
"201.08 74 OFFCURVE",
"211.17 135 CURVE"
);
}
);
width = 605;
}
);
note = uni018F;
unicode = 018F;
},
{
glyphname = T;
layers = (
{
layerId = "4FCB07EB-01E7-4D87-AA20-FCB2BF85BBFF";
paths = (
{
closed = 1;
nodes = (
"330.14 646 LINE",
"570.45 656 LINE",
"358 0 LINE",
"484 0 LINE",
"661.45 656 LINE",
"896.14 646 LINE",
"920.3 729 LINE",
"355.3 729 LINE"
);
}
);
width = 719;
}
);
note = T;
unicode = 0054;
},
{
glyphname = Tbar;
layers = (
{
layerId = "4FCB07EB-01E7-4D87-AA20-FCB2BF85BBFF";
paths = (
{
closed = 1;
nodes = (
"896.14 646 LINE",
"920.3 729 LINE",
"355.3 729 LINE",
"330.14 646 LINE",
"570.45 656 LINE",
"491.66 410 LINE",
"361.66 410 LINE",
"334.65 319 LINE",
"461.65 319 LINE",
"358 0 LINE",
"484 0 LINE",
"569.65 319 LINE",
"692.65 319 LINE",
"719.66 410 LINE",
"595.66 410 LINE",
"661.45 656 LINE"
);
}
);
width = 719;
}
);
note = Tbar;
unicode = 0166;
},
{
glyphname = Tcaron;
layers = (
{
layerId = "4FCB07EB-01E7-4D87-AA20-FCB2BF85BBFF";
paths = (
{
closed = 1;
nodes = (
"650.85 779 LINE",
"694.85 779 LINE",
"749.63 843 LINE",
"908.87 974 LINE",
"859.87 974 LINE",
"698.01 875 LINE",
"595.87 974 LINE",
"546.87 974 LINE",
"629.63 843 LINE"
);
},
{
closed = 1;
nodes = (
"350.15 646 LINE",
"590.46 656 LINE",
"378.01 0 LINE",
"504.01 0 LINE",
"680.46 656 LINE",
"915.15 646 LINE",
"940.31 729 LINE",
"375.31 729 LINE"
);
}
);
width = 719;
}
);
note = Tcaron;
unicode = 0164;
},
{
glyphname = Tcedilla;
layers = (
{
layerId = "4FCB07EB-01E7-4D87-AA20-FCB2BF85BBFF";
paths = (
{
closed = 1;
nodes = (
"901.3 729 LINE",
"336.3 729 LINE",
"311.14 646 LINE",
"552.45 656 LINE",
"339 0 LINE",
"380 0 LINE",
"313.6 -110 LINE",
"336.29 -107 OFFCURVE",
"354.75 -105 OFFCURVE",
"370.75 -105 CURVE SMOOTH",
"393.75 -105 OFFCURVE",
"428.29 -107 OFFCURVE",
"415.13 -151 CURVE SMOOTH",
"410.44 -167 OFFCURVE",
"378.05 -186 OFFCURVE",
"345.05 -186 CURVE SMOOTH",
"325.05 -186 OFFCURVE",
"318.05 -186 OFFCURVE",
"298.2 -181 CURVE",
"271.96 -234 LINE",
"328.96 -234 LINE SMOOTH",
"380.96 -234 OFFCURVE",
"426.66 -205 OFFCURVE",
"447.97 -156 CURVE SMOOTH",
"474.82 -96 OFFCURVE",
"423.52 -80 OFFCURVE",
"388.52 -80 CURVE SMOOTH",
"359.52 -80 LINE",
"409.99 0 LINE",
"465.99 0 LINE",
"642.44 656 LINE",
"877.13 646 LINE"
);
}
);
width = 719;
}
);
note = uni0162;
unicode = 0162;
},
{
glyphname = Tcircumflexbelow;
layers = (
{
layerId = "4FCB07EB-01E7-4D87-AA20-FCB2BF85BBFF";
paths = (
{
closed = 1;
nodes = (
"306.14 646 LINE",
"545.45 656 LINE",
"333 0 LINE",
"460 0 LINE",
"636.45 656 LINE",
"871.14 646 LINE",
"895.3 729 LINE",
"330.3 729 LINE"
);
},
{
closed = 1;
nodes = (
"344.91 -113 LINE",
"286.13 -177 LINE",
"124.89 -308 LINE",
"174.89 -308 LINE",
"334.75 -209 LINE",
"437.89 -308 LINE",
"487.89 -308 LINE",
"406.13 -177 LINE",
"389.91 -113 LINE"
);
}
);
width = 720;
}
);
note = uni1E70;
unicode = 1E70;
},
{
glyphname = Tcommaaccent;
layers = (
{
layerId = "4FCB07EB-01E7-4D87-AA20-FCB2BF85BBFF";
paths = (
{
closed = 1;
nodes = (
"696.69 774 LINE",
"826.48 1007 LINE",
"726.48 1007 LINE",
"699.39 920 LINE",
"702.39 920 LINE",
"609.68 774 LINE"
);
},
{
closed = 1;
nodes = (
"943.29 729 LINE",
"377.29 729 LINE",
"353.13 646 LINE",
"593.44 656 LINE",
"379.99 0 LINE",
"506.99 0 LINE",
"683.44 656 LINE",
"918.13 646 LINE"
);
}
);
width = 719;
}
);
note = uni021A;
unicode = 021A;
},
{
glyphname = Tdotaccent;
layers = (
{
layerId = "4FCB07EB-01E7-4D87-AA20-FCB2BF85BBFF";
paths = (
{
closed = 1;
nodes = (
"656.32 911 LINE",
"625 810 LINE",
"718 810 LINE",
"748.32 911 LINE"
);
},
{
closed = 1;
nodes = (
"345.14 646 LINE",
"584.45 656 LINE",
"372 0 LINE",
"499 0 LINE",
"676.45 656 LINE",
"910.14 646 LINE",
"935.3 729 LINE",
"369.3 729 LINE"
);
}
);
width = 719;
}
);
note = uni1E6A;
unicode = 1E6A;
},
{
glyphname = Tdotbelow;
layers = (
{
layerId = "4FCB07EB-01E7-4D87-AA20-FCB2BF85BBFF";
paths = (
{
closed = 1;
nodes = (
"318.14 646 LINE",
"557.45 656 LINE",
"345 0 LINE",
"471 0 LINE",
"648.45 656 LINE",
"883.14 646 LINE",
"907.3 729 LINE",
"342.3 729 LINE"
);
},
{
closed = 1;
nodes = (
"342.38 -59 LINE",
"313.06 -160 LINE",
"406.06 -160 LINE",
"435.38 -59 LINE"
);
}
);
width = 719;
}
);
note = uni1E6C;
unicode = 1E6C;
},
{
glyphname = Thook;
layers = (
{
layerId = "4FCB07EB-01E7-4D87-AA20-FCB2BF85BBFF";
paths = (
{
closed = 1;
nodes = (
"921.53 730 LINE",
"356.53 730 LINE",
"355.38 725 LINE",
"270.92 710 OFFCURVE",
"214.06 650 OFFCURVE",
"199.52 600 CURVE SMOOTH",
"187.82 558 LINE",
"223.51 496 LINE",
"230.82 519 OFFCURVE",
"242.98 563 OFFCURVE",
"255.06 585 CURVE SMOOTH",
"270.76 614 OFFCURVE",
"299.76 640 OFFCURVE",
"345.37 647 CURVE",
"571.45 656 LINE",
"359 0 LINE",
"485 0 LINE",
"662.45 656 LINE",
"897.14 646 LINE"
);
}
);
width = 721;
}
);
note = uni01AC;
unicode = 01AC;
},
{
glyphname = Tlinebelow;
layers = (
{
layerId = "4FCB07EB-01E7-4D87-AA20-FCB2BF85BBFF";
paths = (
{
closed = 1;
nodes = (
"322.14 646 LINE",
"562.45 656 LINE",
"349 0 LINE",
"476 0 LINE",
"652.45 656 LINE",
"887.14 646 LINE",
"912.3 729 LINE",
"346.3 729 LINE"
);
},
{
closed = 1;
nodes = (
"255.07 -56 LINE",
"217.07 -108 LINE",
"545.07 -95 LINE",
"541.23 -38 LINE"
);
}
);
width = 719;
}
);
note = uni1E6E;
unicode = 1E6E;
},
{
glyphname = Tretroflexhook;
layers = (
{
layerId = "4FCB07EB-01E7-4D87-AA20-FCB2BF85BBFF";
paths = (
{
closed = 1;
nodes = (
"881.14 646 LINE",
"905.3 729 LINE",
"340.3 729 LINE",
"316.14 646 LINE",
"555.45 656 LINE",
"352 26 LINE",
"336.61 7 OFFCURVE",
"322.69 -10 OFFCURVE",
"320.38 -20 CURVE",
"296.91 -100 OFFCURVE",
"395.21 -181 OFFCURVE",
"514.21 -181 CURVE",
"529.45 -128 OFFCURVE",
"533.99 -104 OFFCURVE",
"543.99 -52 CURVE",
"497.99 -52 OFFCURVE",
"475.53 -28 OFFCURVE",
"471.61 7 CURVE",
"646.44 656 LINE"
);
}
);
width = 719;
}
);
note = uni01AE;
unicode = 01AE;
},
{
glyphname = U;
layers = (
{
layerId = "4FCB07EB-01E7-4D87-AA20-FCB2BF85BBFF";
paths = (
{
closed = 1;
nodes = (
"233.26 274 LINE SMOOTH",
"156.77 -14 OFFCURVE",
"234.77 -14 OFFCURVE",
"403.77 -14 CURVE SMOOTH",
"570.77 -14 OFFCURVE",
"645.77 -14 OFFCURVE",
"744.26 274 CURVE SMOOTH",
"900.3 729 LINE",
"780.3 729 LINE",
"681.72 354 LINE SMOOTH",
"625.78 142 OFFCURVE",
"564.78 142 OFFCURVE",
"449.78 142 CURVE SMOOTH",
"333.78 142 OFFCURVE",
"272.78 142 OFFCURVE",
"342.72 354 CURVE SMOOTH",
"467.3 729 LINE",
"354.3 729 LINE"
);
}
);
width = 701;
}
);
note = U;
unicode = 0055;
},
{
glyphname = Uacute;
layers = (
{
layerId = "4FCB07EB-01E7-4D87-AA20-FCB2BF85BBFF";
paths = (
{
closed = 1;
nodes = (
"759.8 1043 LINE",
"644.25 889 LINE",
"713.25 889 LINE",
"805.8 1043 LINE"
);
},
{
closed = 1;
nodes = (
"258.26 274 LINE SMOOTH",
"181.77 -14 OFFCURVE",
"259.77 -14 OFFCURVE",
"428.77 -14 CURVE SMOOTH",
"595.77 -14 OFFCURVE",
"670.77 -14 OFFCURVE",
"769.26 274 CURVE SMOOTH",
"925.3 729 LINE",
"806.3 729 LINE",
"707.72 354 LINE SMOOTH",
"651.78 142 OFFCURVE",
"590.78 142 OFFCURVE",
"475.78 142 CURVE SMOOTH",
"359.78 142 OFFCURVE",
"297.78 142 OFFCURVE",
"367.72 354 CURVE SMOOTH",
"493.3 729 LINE",
"379.3 729 LINE"
);
}
);
width = 701;
}
);
note = Uacute;
unicode = 00DA;
},
{
glyphname = Ubar;
layers = (
{
layerId = "4FCB07EB-01E7-4D87-AA20-FCB2BF85BBFF";
paths = (
{
closed = 1;
nodes = (
"1191.29 560 LINE",
"1000.29 560 LINE",
"1058.31 729 LINE",
"939.31 729 LINE",
"894.52 561 LINE",
"570.52 561 LINE",
"625.31 729 LINE",
"512.31 729 LINE",
"468.76 562 LINE",
"313.76 562 LINE",
"278.75 471 LINE",
"443.75 471 LINE",
"391.27 274 LINE SMOOTH",
"314.78 -14 OFFCURVE",
"393.78 -14 OFFCURVE",
"562.78 -14 CURVE SMOOTH",
"729.78 -14 OFFCURVE",
"804.78 -14 OFFCURVE",
"903.27 274 CURVE SMOOTH",
"968.29 469 LINE",
"1154.29 469 LINE"
);
},
{
closed = 1;
nodes = (
"839.74 354 LINE SMOOTH",
"783.8 142 OFFCURVE",
"723.8 142 OFFCURVE",
"608.8 142 CURVE SMOOTH",
"492.8 142 OFFCURVE",
"431.8 142 OFFCURVE",
"501.74 354 CURVE SMOOTH",
"539.52 470 LINE",
"871.52 470 LINE"
);
}
);
width = 1044;
}
);
note = uni0244;
unicode = 0244;
},
{
glyphname = Ucaron;
layers = (
{
layerId = "4FCB07EB-01E7-4D87-AA20-FCB2BF85BBFF";
paths = (
{
closed = 1;
nodes = (
"672.32 859 LINE",
"716.32 859 LINE",
"771.1 923 LINE",
"931.34 1054 LINE",
"882.34 1054 LINE",
"719.48 955 LINE",
"617.34 1054 LINE",
"568.34 1054 LINE",
"651.1 923 LINE"
);
},
{
closed = 1;
nodes = (
"259.27 274 LINE SMOOTH",
"182.78 -14 OFFCURVE",
"260.78 -14 OFFCURVE",
"429.78 -14 CURVE SMOOTH",
"596.78 -14 OFFCURVE",
"671.78 -14 OFFCURVE",
"770.27 274 CURVE SMOOTH",
"926.31 729 LINE",
"807.31 729 LINE",
"708.73 354 LINE SMOOTH",
"652.79 142 OFFCURVE",
"591.79 142 OFFCURVE",
"476.79 142 CURVE SMOOTH",
"360.79 142 OFFCURVE",
"298.79 142 OFFCURVE",
"368.73 354 CURVE SMOOTH",
"493.31 729 LINE",
"380.31 729 LINE"
);
}
);
width = 701;
}
);
note = uni01D3;
unicode = 01D3;
},
{
glyphname = Ucircumflex;
layers = (
{
layerId = "4FCB07EB-01E7-4D87-AA20-FCB2BF85BBFF";
paths = (
{
closed = 1;
nodes = (
"711.18 997 LINE",
"652.4 933 LINE",
"491.16 802 LINE",
"540.16 802 LINE",
"702.02 901 LINE",
"805.16 802 LINE",
"854.16 802 LINE",
"772.4 933 LINE",
"755.18 997 LINE"
);
},
{
closed = 1;
nodes = (
"255.26 274 LINE SMOOTH",
"178.77 -14 OFFCURVE",
"255.77 -14 OFFCURVE",
"424.77 -14 CURVE SMOOTH",
"591.77 -14 OFFCURVE",
"666.77 -14 OFFCURVE",
"765.26 274 CURVE SMOOTH",
"921.3 729 LINE",
"802.3 729 LINE",
"702.72 354 LINE SMOOTH",
"646.78 142 OFFCURVE",
"586.78 142 OFFCURVE",
"471.78 142 CURVE SMOOTH",
"355.78 142 OFFCURVE",
"294.78 142 OFFCURVE",
"364.72 354 CURVE SMOOTH",
"489.3 729 LINE",
"375.3 729 LINE"
);
}
);
width = 701;
}
);
note = Ucircumflex;
unicode = 00DB;
},
{
glyphname = Udieresis;
layers = (
{
layerId = "4FCB07EB-01E7-4D87-AA20-FCB2BF85BBFF";
paths = (
{
closed = 1;
nodes = (
"542.56 951 LINE",
"512.24 850 LINE",
"604.24 850 LINE",
"634.56 951 LINE"
);
},
{
closed = 1;
nodes = (
"791.56 951 LINE",
"761.24 850 LINE",
"854.24 850 LINE",
"883.56 951 LINE"
);
},
{
closed = 1;
nodes = (
"251.26 274 LINE SMOOTH",
"174.77 -14 OFFCURVE",
"252.77 -14 OFFCURVE",
"421.77 -14 CURVE SMOOTH",
"588.77 -14 OFFCURVE",
"663.77 -14 OFFCURVE",
"762.26 274 CURVE SMOOTH",
"918.3 729 LINE",
"799.3 729 LINE",
"699.72 354 LINE SMOOTH",
"643.78 142 OFFCURVE",
"583.78 142 OFFCURVE",
"468.78 142 CURVE SMOOTH",
"352.78 142 OFFCURVE",
"290.78 142 OFFCURVE",
"360.72 354 CURVE SMOOTH",
"485.3 729 LINE",
"372.3 729 LINE"
);
}
);
width = 701;
}
);
note = Udieresis;
unicode = 00DC;
},
{
glyphname = Udieresisacute;
layers = (
{
layerId = "4FCB07EB-01E7-4D87-AA20-FCB2BF85BBFF";
paths = (
{
closed = 1;
nodes = (
"793.19 1114 LINE",
"678.64 960 LINE",
"747.64 960 LINE",
"840.19 1114 LINE"
);
},
{
closed = 1;
nodes = (
"534.4 881 LINE",
"504.08 780 LINE",
"597.08 780 LINE",
"627.4 881 LINE"
);
},
{
closed = 1;
nodes = (
"783.4 881 LINE",
"753.08 780 LINE",
"846.08 780 LINE",
"876.4 881 LINE"
);
},
{
closed = 1;
nodes = (
"264.26 274 LINE SMOOTH",
"187.77 -14 OFFCURVE",
"264.77 -14 OFFCURVE",
"433.77 -14 CURVE SMOOTH",
"600.77 -14 OFFCURVE",
"675.77 -14 OFFCURVE",
"774.26 274 CURVE SMOOTH",
"930.3 729 LINE",
"811.3 729 LINE",
"712.72 354 LINE SMOOTH",
"656.78 142 OFFCURVE",
"595.78 142 OFFCURVE",
"480.78 142 CURVE SMOOTH",
"364.78 142 OFFCURVE",
"303.78 142 OFFCURVE",
"373.72 354 CURVE SMOOTH",
"498.3 729 LINE",
"385.3 729 LINE"
);
}
);
width = 701;
}
);
note = uni01D7;
unicode = 01D7;
},
{
glyphname = Udieresiscaron;
layers = (
{
layerId = "4FCB07EB-01E7-4D87-AA20-FCB2BF85BBFF";
paths = (
{
closed = 1;
nodes = (
"708.56 951 LINE",
"753.56 951 LINE",
"808.34 1015 LINE",
"967.58 1146 LINE",
"918.58 1146 LINE",
"755.72 1047 LINE",
"654.58 1146 LINE",
"605.58 1146 LINE",
"688.34 1015 LINE"
);
},
{
closed = 1;
nodes = (
"536.4 881 LINE",
"507.08 780 LINE",
"600.08 780 LINE",
"629.4 881 LINE"
);
},
{
closed = 1;
nodes = (
"786.4 881 LINE",
"756.08 780 LINE",
"848.08 780 LINE",
"879.4 881 LINE"
);
},
{
closed = 1;
nodes = (
"266.26 274 LINE SMOOTH",
"189.77 -14 OFFCURVE",
"267.77 -14 OFFCURVE",
"436.77 -14 CURVE SMOOTH",
"603.77 -14 OFFCURVE",
"678.77 -14 OFFCURVE",
"777.26 274 CURVE SMOOTH",
"933.3 729 LINE",
"814.3 729 LINE",
"715.72 354 LINE SMOOTH",
"659.78 142 OFFCURVE",
"598.78 142 OFFCURVE",
"483.78 142 CURVE SMOOTH",
"367.78 142 OFFCURVE",
"306.78 142 OFFCURVE",
"376.72 354 CURVE SMOOTH",
"501.3 729 LINE",
"387.3 729 LINE"
);
}
);
width = 701;
}
);
note = uni01D9;
unicode = 01D9;
},
{
glyphname = Udieresisgrave;
layers = (
{
layerId = "4FCB07EB-01E7-4D87-AA20-FCB2BF85BBFF";
paths = (
{
closed = 1;
nodes = (
"682.48 916 LINE",
"801.02 901 LINE",
"682.34 1028 LINE",
"609.34 1028 LINE"
);
},
{
closed = 1;
nodes = (
"527.4 881 LINE",
"498.08 780 LINE",
"590.08 780 LINE",
"619.4 881 LINE"
);
},
{
closed = 1;
nodes = (
"777.4 881 LINE",
"747.08 780 LINE",
"839.08 780 LINE",
"869.4 881 LINE"
);
},
{
closed = 1;
nodes = (
"256.26 274 LINE SMOOTH",
"179.77 -14 OFFCURVE",
"258.77 -14 OFFCURVE",
"427.77 -14 CURVE SMOOTH",
"594.77 -14 OFFCURVE",
"669.77 -14 OFFCURVE",
"768.26 274 CURVE SMOOTH",
"923.3 729 LINE",
"804.3 729 LINE",
"705.72 354 LINE SMOOTH",
"649.78 142 OFFCURVE",
"588.78 142 OFFCURVE",
"473.78 142 CURVE SMOOTH",
"357.78 142 OFFCURVE",
"296.78 142 OFFCURVE",
"366.72 354 CURVE SMOOTH",
"491.3 729 LINE",
"377.3 729 LINE"
);
}
);
width = 701;
}
);
note = uni01DB;
unicode = 01DB;
},
{
glyphname = Udieresismacron;
layers = (
{
layerId = "4FCB07EB-01E7-4D87-AA20-FCB2BF85BBFF";
paths = (
{
closed = 1;
nodes = (
"572.49 1033 LINE",
"522.33 963 LINE",
"937.25 980 LINE",
"933.03 1057 LINE"
);
},
{
closed = 1;
nodes = (
"529.4 881 LINE",
"500.08 780 LINE",
"593.08 780 LINE",
"622.4 881 LINE"
);
},
{
closed = 1;
nodes = (
"778.4 881 LINE",
"749.08 780 LINE",
"842.08 780 LINE",
"871.4 881 LINE"
);
},
{
closed = 1;
nodes = (
"259.26 274 LINE SMOOTH",
"182.77 -14 OFFCURVE",
"260.77 -14 OFFCURVE",
"429.77 -14 CURVE SMOOTH",
"596.77 -14 OFFCURVE",
"671.77 -14 OFFCURVE",
"770.26 274 CURVE SMOOTH",
"926.3 729 LINE",
"807.3 729 LINE",
"708.72 354 LINE SMOOTH",
"652.78 142 OFFCURVE",
"591.78 142 OFFCURVE",
"476.78 142 CURVE SMOOTH",
"360.78 142 OFFCURVE",
"298.78 142 OFFCURVE",
"368.72 354 CURVE SMOOTH",
"493.3 729 LINE",
"380.3 729 LINE"
);
}
);
width = 701;
}
);
note = uni01D5;
unicode = 01D5;
},
{
glyphname = Udotbelow;
layers = (
{
layerId = "4FCB07EB-01E7-4D87-AA20-FCB2BF85BBFF";
paths = (
{
closed = 1;
nodes = (
"221.26 274 LINE SMOOTH",
"144.77 -14 OFFCURVE",
"223.77 -14 OFFCURVE",
"392.77 -14 CURVE SMOOTH",
"559.77 -14 OFFCURVE",
"633.77 -14 OFFCURVE",
"732.26 274 CURVE SMOOTH",
"888.3 729 LINE",
"769.3 729 LINE",
"669.72 354 LINE SMOOTH",
"613.78 142 OFFCURVE",
"553.78 142 OFFCURVE",
"438.78 142 CURVE SMOOTH",
"322.78 142 OFFCURVE",
"261.78 142 OFFCURVE",
"331.72 354 CURVE SMOOTH",
"455.3 729 LINE",
"342.3 729 LINE"
);
},
{
closed = 1;
nodes = (
"333.38 -59 LINE",
"304.06 -160 LINE",
"397.06 -160 LINE",
"426.38 -59 LINE"
);
}
);
width = 701;
}
);
note = uni1EE4;
unicode = 1EE4;
},
{
glyphname = Ugrave;
layers = (
{
layerId = "4FCB07EB-01E7-4D87-AA20-FCB2BF85BBFF";
paths = (
{
closed = 1;
nodes = (
"639.93 866 LINE",
"758.47 851 LINE",
"639.79 978 LINE",
"566.79 978 LINE"
);
},
{
closed = 1;
nodes = (
"253.26 274 LINE SMOOTH",
"176.77 -14 OFFCURVE",
"254.77 -14 OFFCURVE",
"423.77 -14 CURVE SMOOTH",
"590.77 -14 OFFCURVE",
"664.77 -14 OFFCURVE",
"763.26 274 CURVE SMOOTH",
"920.3 729 LINE",
"800.3 729 LINE",
"701.72 354 LINE SMOOTH",
"645.78 142 OFFCURVE",
"584.78 142 OFFCURVE",
"469.78 142 CURVE SMOOTH",
"353.78 142 OFFCURVE",
"292.78 142 OFFCURVE",
"362.72 354 CURVE SMOOTH",
"487.3 729 LINE",
"374.3 729 LINE"
);
}
);
width = 701;
}
);
note = Ugrave;
unicode = 00D9;
},
{
glyphname = Uhookabove;
layers = (
{
layerId = "4FCB07EB-01E7-4D87-AA20-FCB2BF85BBFF";
paths = (
{
closed = 1;
nodes = (
"642.78 887 LINE",
"661.63 895 OFFCURVE",
"677.55 899 OFFCURVE",
"692.55 899 CURVE SMOOTH",
"708.55 899 OFFCURVE",
"719.63 895 OFFCURVE",
"727.24 889 CURVE SMOOTH",
"734.85 883 OFFCURVE",
"735.55 873 OFFCURVE",
"733.24 863 CURVE SMOOTH",
"730.93 853 OFFCURVE",
"721.39 842 OFFCURVE",
"705.08 832 CURVE",
"692.46 825 LINE SMOOTH",
"685.54 821 OFFCURVE",
"683.84 818 OFFCURVE",
"682.61 817 CURVE",
"680.92 814 OFFCURVE",
"677.99 810 OFFCURVE",
"676.84 805 CURVE",
"650.84 805 LINE",
"652.53 808 LINE",
"653.92 814 OFFCURVE",
"656.3 820 OFFCURVE",
"659.22 824 CURVE",
"663.37 829 OFFCURVE",
"669.3 833 OFFCURVE",
"678.68 839 CURVE",
"690.76 848 LINE",
"698.91 853 OFFCURVE",
"705.3 859 OFFCURVE",
"706.68 865 CURVE SMOOTH",
"708.06 871 OFFCURVE",
"701.91 879 OFFCURVE",
"680.91 879 CURVE SMOOTH",
"666.91 879 OFFCURVE",
"652.75 874 OFFCURVE",
"635.91 866 CURVE"
);
},
{
closed = 1;
nodes = (
"246.24 274 LINE SMOOTH",
"169.75 -14 OFFCURVE",
"248.75 -14 OFFCURVE",
"417.75 -14 CURVE SMOOTH",
"584.75 -14 OFFCURVE",
"659.75 -14 OFFCURVE",
"758.24 274 CURVE SMOOTH",
"913.28 729 LINE",
"794.28 729 LINE",
"695.7 354 LINE SMOOTH",
"639.76 142 OFFCURVE",
"578.76 142 OFFCURVE",
"463.76 142 CURVE SMOOTH",
"347.76 142 OFFCURVE",
"285.76 142 OFFCURVE",
"355.7 354 CURVE SMOOTH",
"481.28 729 LINE",
"367.28 729 LINE"
);
}
);
width = 701;
}
);
note = uni1EE6;
unicode = 1EE6;
},
{
glyphname = Uhorn;
layers = (
{
layerId = "4FCB07EB-01E7-4D87-AA20-FCB2BF85BBFF";
paths = (
{
closed = 1;
nodes = (
"959.08 819 LINE",
"959.77 809 OFFCURVE",
"959.69 800 OFFCURVE",
"956.15 789 CURVE SMOOTH",
"951.23 772 OFFCURVE",
"938.61 726 OFFCURVE",
"912.99 706 CURVE",
"907.07 702 OFFCURVE",
"901.37 699 OFFCURVE",
"895.68 696 CURVE",
"908.3 729 LINE",
"788.3 729 LINE",
"689.72 354 LINE SMOOTH",
"633.78 142 OFFCURVE",
"573.78 142 OFFCURVE",
"458.78 142 CURVE SMOOTH",
"342.78 142 OFFCURVE",
"280.78 142 OFFCURVE",
"350.72 354 CURVE SMOOTH",
"475.3 729 LINE",
"362.3 729 LINE",
"241.26 274 LINE SMOOTH",
"164.77 -14 OFFCURVE",
"242.77 -14 OFFCURVE",
"411.77 -14 CURVE SMOOTH",
"578.77 -14 OFFCURVE",
"653.77 -14 OFFCURVE",
"752.26 274 CURVE SMOOTH",
"874.83 636 LINE",
"896.14 646 OFFCURVE",
"901.06 650 OFFCURVE",
"924.99 667 CURVE",
"960.22 694 OFFCURVE",
"985.3 742 OFFCURVE",
"996.31 781 CURVE",
"998.39 790 OFFCURVE",
"1000.93 801 OFFCURVE",
"1001.7 813 CURVE"
);
}
);
width = 701;
}
);
note = Uhorn;
unicode = 01AF;
},
{
glyphname = Uhornacute;
layers = (
{
layerId = "4FCB07EB-01E7-4D87-AA20-FCB2BF85BBFF";
paths = (
{
closed = 1;
nodes = (
"803.95 1022 LINE",
"756.95 1022 LINE",
"641.4 868 LINE",
"711.4 868 LINE"
);
},
{
closed = 1;
nodes = (
"975.08 819 LINE",
"975.77 809 OFFCURVE",
"975.69 800 OFFCURVE",
"972.15 789 CURVE SMOOTH",
"967.23 772 OFFCURVE",
"955.61 726 OFFCURVE",
"929.99 706 CURVE",
"924.07 702 OFFCURVE",
"917.37 699 OFFCURVE",
"911.68 696 CURVE",
"923.3 729 LINE",
"804.3 729 LINE",
"705.72 354 LINE SMOOTH",
"649.78 142 OFFCURVE",
"588.78 142 OFFCURVE",
"473.78 142 CURVE SMOOTH",
"357.78 142 OFFCURVE",
"296.78 142 OFFCURVE",
"366.72 354 CURVE SMOOTH",
"492.3 729 LINE",
"377.3 729 LINE",
"256.26 274 LINE SMOOTH",
"179.77 -14 OFFCURVE",
"258.77 -14 OFFCURVE",
"427.77 -14 CURVE SMOOTH",
"594.77 -14 OFFCURVE",
"669.77 -14 OFFCURVE",
"768.26 274 CURVE SMOOTH",
"891.83 636 LINE",
"913.14 646 OFFCURVE",
"917.06 650 OFFCURVE",
"940.99 667 CURVE",
"976.22 694 OFFCURVE",
"1001.3 742 OFFCURVE",
"1012.31 781 CURVE",
"1014.39 790 OFFCURVE",
"1015.93 801 OFFCURVE",
"1016.7 813 CURVE"
);
}
);
width = 701;
}
);
note = uni1EE8;
unicode = 1EE8;
},
{
glyphname = Uhorndotbelow;
layers = (
{
layerId = "4FCB07EB-01E7-4D87-AA20-FCB2BF85BBFF";
paths = (
{
closed = 1;
nodes = (
"947.08 819 LINE",
"947.77 809 OFFCURVE",
"948.69 800 OFFCURVE",
"945.15 789 CURVE SMOOTH",
"940.23 772 OFFCURVE",
"926.61 726 OFFCURVE",
"900.99 706 CURVE",
"895.07 702 OFFCURVE",
"889.37 699 OFFCURVE",
"883.68 696 CURVE",
"896.3 729 LINE",
"777.3 729 LINE",
"678.72 354 LINE SMOOTH",
"622.78 142 OFFCURVE",
"561.78 142 OFFCURVE",
"446.78 142 CURVE SMOOTH",
"330.78 142 OFFCURVE",
"268.78 142 OFFCURVE",
"338.72 354 CURVE SMOOTH",
"463.3 729 LINE",
"350.3 729 LINE",
"229.26 274 LINE SMOOTH",
"152.77 -14 OFFCURVE",
"230.77 -14 OFFCURVE",
"399.77 -14 CURVE SMOOTH",
"566.77 -14 OFFCURVE",
"641.77 -14 OFFCURVE",
"740.26 274 CURVE SMOOTH",
"863.83 636 LINE",
"885.14 646 OFFCURVE",
"889.06 650 OFFCURVE",
"912.99 667 CURVE",
"948.22 694 OFFCURVE",
"973.3 742 OFFCURVE",
"984.31 781 CURVE",
"986.39 790 OFFCURVE",
"988.93 801 OFFCURVE",
"989.7 813 CURVE"
);
},
{
closed = 1;
nodes = (
"312.07 -160 LINE",
"404.07 -160 LINE",
"433.39 -59 LINE",
"341.39 -59 LINE"
);
}
);
width = 701;
}
);
note = uni1EF0;
unicode = 1EF0;
},
{
glyphname = Uhorngrave;
layers = (
{
layerId = "4FCB07EB-01E7-4D87-AA20-FCB2BF85BBFF";
paths = (
{
closed = 1;
nodes = (
"764.77 809 LINE",
"646.09 936 LINE",
"574.09 936 LINE",
"646.23 824 LINE"
);
},
{
closed = 1;
nodes = (
"969.07 819 LINE",
"969.76 809 OFFCURVE",
"969.68 800 OFFCURVE",
"966.14 789 CURVE SMOOTH",
"961.22 772 OFFCURVE",
"948.6 726 OFFCURVE",
"922.98 706 CURVE",
"917.06 702 OFFCURVE",
"911.36 699 OFFCURVE",
"905.67 696 CURVE",
"917.29 729 LINE",
"798.29 729 LINE",
"699.71 354 LINE SMOOTH",
"643.77 142 OFFCURVE",
"582.77 142 OFFCURVE",
"467.77 142 CURVE SMOOTH",
"351.77 142 OFFCURVE",
"289.77 142 OFFCURVE",
"359.71 354 CURVE SMOOTH",
"484.29 729 LINE",
"371.29 729 LINE",
"250.25 274 LINE SMOOTH",
"173.76 -14 OFFCURVE",
"251.76 -14 OFFCURVE",
"420.76 -14 CURVE SMOOTH",
"587.76 -14 OFFCURVE",
"662.76 -14 OFFCURVE",
"761.25 274 CURVE SMOOTH",
"884.82 636 LINE",
"906.13 646 OFFCURVE",
"910.05 650 OFFCURVE",
"933.98 667 CURVE",
"969.21 694 OFFCURVE",
"994.29 742 OFFCURVE",
"1005.3 781 CURVE",
"1007.38 790 OFFCURVE",
"1009.92 801 OFFCURVE",
"1010.69 813 CURVE"
);
}
);
width = 701;
}
);
note = uni1EEA;
unicode = 1EEA;
},
{
glyphname = Uhornhookabove;
layers = (
{
layerId = "4FCB07EB-01E7-4D87-AA20-FCB2BF85BBFF";
paths = (
{
closed = 1;
nodes = (
"706.31 859 OFFCURVE",
"699.93 853 OFFCURVE",
"691.78 848 CURVE",
"679.7 839 LINE",
"670.32 833 OFFCURVE",
"663.39 829 OFFCURVE",
"659.24 824 CURVE",
"656.32 820 OFFCURVE",
"653.93 814 OFFCURVE",
"652.55 808 CURVE SMOOTH",
"651.86 805 LINE",
"676.86 805 LINE",
"678.01 810 OFFCURVE",
"680.94 814 OFFCURVE",
"682.63 817 CURVE",
"683.86 818 OFFCURVE",
"686.55 821 OFFCURVE",
"693.48 825 CURVE SMOOTH",
"705.1 832 LINE SMOOTH",
"721.41 842 OFFCURVE",
"731.95 853 OFFCURVE",
"734.26 863 CURVE SMOOTH",
"736.57 873 OFFCURVE",
"734.88 883 OFFCURVE",
"727.26 889 CURVE SMOOTH",
"719.64 895 OFFCURVE",
"709.57 899 OFFCURVE",
"693.57 899 CURVE SMOOTH",
"678.57 899 OFFCURVE",
"661.65 895 OFFCURVE",
"642.8 887 CURVE",
"636.95 866 LINE",
"653.8 874 OFFCURVE",
"667.95 879 OFFCURVE",
"681.95 879 CURVE SMOOTH",
"702.95 879 OFFCURVE",
"709.1 871 OFFCURVE",
"707.72 865 CURVE SMOOTH"
);
},
{
closed = 1;
nodes = (
"965.1 819 LINE",
"965.79 809 OFFCURVE",
"965.71 800 OFFCURVE",
"962.17 789 CURVE SMOOTH",
"957.25 772 OFFCURVE",
"945.63 726 OFFCURVE",
"920.01 706 CURVE",
"914.09 702 OFFCURVE",
"907.39 699 OFFCURVE",
"901.7 696 CURVE",
"914.32 729 LINE",
"795.32 729 LINE",
"695.74 354 LINE SMOOTH",
"639.8 142 OFFCURVE",
"579.8 142 OFFCURVE",
"464.8 142 CURVE SMOOTH",
"348.8 142 OFFCURVE",
"286.8 142 OFFCURVE",
"356.74 354 CURVE SMOOTH",
"482.32 729 LINE",
"368.32 729 LINE",
"247.28 274 LINE SMOOTH",
"170.79 -14 OFFCURVE",
"248.79 -14 OFFCURVE",
"417.79 -14 CURVE SMOOTH",
"584.79 -14 OFFCURVE",
"659.79 -14 OFFCURVE",
"758.28 274 CURVE SMOOTH",
"881.85 636 LINE",
"903.16 646 OFFCURVE",
"907.08 650 OFFCURVE",
"931.01 667 CURVE",
"966.24 694 OFFCURVE",
"991.32 742 OFFCURVE",
"1002.33 781 CURVE",
"1004.41 790 OFFCURVE",
"1006.95 801 OFFCURVE",
"1007.72 813 CURVE"
);
}
);
width = 701;
}
);
note = uni1EEC;
unicode = 1EEC;
},
{
glyphname = Uhorntilde;
layers = (
{
layerId = "4FCB07EB-01E7-4D87-AA20-FCB2BF85BBFF";
paths = (
{
closed = 1;
nodes = (
"683.55 925 OFFCURVE",
"669.77 822 OFFCURVE",
"735.54 821 CURVE SMOOTH",
"784.31 820 OFFCURVE",
"813.46 825 OFFCURVE",
"858.17 971 CURVE",
"817.17 971 LINE",
"800.86 922 OFFCURVE",
"795.08 871 OFFCURVE",
"749.08 871 CURVE SMOOTH",
"709.08 871 OFFCURVE",
"723.17 971 OFFCURVE",
"663.17 971 CURVE SMOOTH",
"598.17 971 OFFCURVE",
"574.55 938 OFFCURVE",
"532.54 821 CURVE",
"582.54 821 LINE",
"594.47 864 OFFCURVE",
"614.01 927 OFFCURVE",
"649.78 926 CURVE SMOOTH"
);
},
{
closed = 1;
nodes = (
"972.07 819 LINE",
"972.76 809 OFFCURVE",
"972.68 800 OFFCURVE",
"969.14 789 CURVE SMOOTH",
"964.22 772 OFFCURVE",
"951.6 726 OFFCURVE",
"925.98 706 CURVE",
"920.06 702 OFFCURVE",
"914.36 699 OFFCURVE",
"908.67 696 CURVE",
"920.29 729 LINE",
"800.29 729 LINE",
"701.71 354 LINE SMOOTH",
"645.77 142 OFFCURVE",
"584.77 142 OFFCURVE",
"469.77 142 CURVE SMOOTH",
"353.77 142 OFFCURVE",
"292.77 142 OFFCURVE",
"362.71 354 CURVE SMOOTH",
"487.29 729 LINE",
"374.29 729 LINE",
"253.25 274 LINE SMOOTH",
"176.76 -14 OFFCURVE",
"254.76 -14 OFFCURVE",
"423.76 -14 CURVE SMOOTH",
"590.76 -14 OFFCURVE",
"664.76 -14 OFFCURVE",
"763.25 274 CURVE SMOOTH",
"886.82 636 LINE",
"908.13 646 OFFCURVE",
"913.05 650 OFFCURVE",
"936.98 667 CURVE",
"972.21 694 OFFCURVE",
"998.29 742 OFFCURVE",
"1009.3 781 CURVE",
"1011.38 790 OFFCURVE",
"1012.92 801 OFFCURVE",
"1013.69 813 CURVE"
);
}
);
width = 701;
}
);
note = uni1EEE;
unicode = 1EEE;
},
{
glyphname = Uhungarumlaut;
layers = (
{
layerId = "4FCB07EB-01E7-4D87-AA20-FCB2BF85BBFF";
paths = (
{
closed = 1;
nodes = (
"620.85 831 LINE",
"760.71 943 LINE",
"688.71 943 LINE",
"494.39 816 LINE"
);
},
{
closed = 1;
nodes = (
"788.85 831 LINE",
"928.71 943 LINE",
"855.71 943 LINE",
"661.39 816 LINE"
);
},
{
closed = 1;
nodes = (
"250.26 274 LINE SMOOTH",
"173.77 -14 OFFCURVE",
"251.77 -14 OFFCURVE",
"420.77 -14 CURVE SMOOTH",
"587.77 -14 OFFCURVE",
"662.77 -14 OFFCURVE",
"761.26 274 CURVE SMOOTH",
"917.3 729 LINE",
"798.3 729 LINE",
"699.72 354 LINE SMOOTH",
"643.78 142 OFFCURVE",
"582.78 142 OFFCURVE",
"467.78 142 CURVE SMOOTH",
"351.78 142 OFFCURVE",
"289.78 142 OFFCURVE",
"359.72 354 CURVE SMOOTH",
"484.3 729 LINE",
"371.3 729 LINE"
);
}
);
width = 701;
}
);
note = Uhungarumlaut;
unicode = 0170;
},
{
glyphname = Umacron;
layers = (
{
layerId = "4FCB07EB-01E7-4D87-AA20-FCB2BF85BBFF";
paths = (
{
closed = 1;
nodes = (
"536.25 941 LINE",
"487.09 871 LINE",
"900.01 888 LINE",
"896.79 965 LINE"
);
},
{
closed = 1;
nodes = (
"252.26 274 LINE SMOOTH",
"175.77 -14 OFFCURVE",
"253.77 -14 OFFCURVE",
"422.77 -14 CURVE SMOOTH",
"589.77 -14 OFFCURVE",
"664.77 -14 OFFCURVE",
"763.26 274 CURVE SMOOTH",
"919.3 729 LINE",
"800.3 729 LINE",
"700.72 354 LINE SMOOTH",
"644.78 142 OFFCURVE",
"584.78 142 OFFCURVE",
"469.78 142 CURVE SMOOTH",
"353.78 142 OFFCURVE",
"291.78 142 OFFCURVE",
"361.72 354 CURVE SMOOTH",
"486.3 729 LINE",
"373.3 729 LINE"
);
}
);
width = 701;
}
);
note = Umacron;
unicode = 016A;
},
{
glyphname = Uogonek;
layers = (
{
layerId = "4FCB07EB-01E7-4D87-AA20-FCB2BF85BBFF";
paths = (
{
closed = 1;
nodes = (
"765.3 729 LINE",
"666.72 354 LINE SMOOTH",
"610.78 142 OFFCURVE",
"549.78 142 OFFCURVE",
"434.78 142 CURVE SMOOTH",
"318.78 142 OFFCURVE",
"257.78 142 OFFCURVE",
"327.72 354 CURVE SMOOTH",
"452.3 729 LINE",
"338.3 729 LINE",
"217.26 274 LINE SMOOTH",
"140.77 -14 OFFCURVE",
"219.77 -14 OFFCURVE",
"388.77 -14 CURVE SMOOTH",
"442.77 -14 LINE",
"392.54 -54 OFFCURVE",
"363.22 -90 OFFCURVE",
"354.3 -120 CURVE SMOOTH",
"337.37 -176 OFFCURVE",
"390.98 -208 OFFCURVE",
"497.45 -206 CURVE",
"499.37 -189 OFFCURVE",
"504.99 -156 OFFCURVE",
"508.61 -136 CURVE",
"488.92 -139 OFFCURVE",
"469.46 -141 OFFCURVE",
"455.46 -141 CURVE SMOOTH",
"418.46 -141 OFFCURVE",
"404 -130 OFFCURVE",
"409.62 -110 CURVE SMOOTH",
"415.7 -88 OFFCURVE",
"448.32 -55 OFFCURVE",
"504.94 -9 CURVE",
"597.4 6 OFFCURVE",
"657.33 62 OFFCURVE",
"729.28 274 CURVE SMOOTH",
"884.32 729 LINE"
);
}
);
width = 701;
}
);
note = Uogonek;
unicode = 0172;
},
{
glyphname = Upsilonafrican;
layers = (
{
layerId = "4FCB07EB-01E7-4D87-AA20-FCB2BF85BBFF";
paths = (
{
closed = 1;
nodes = (
"985.38 712 LINE",
"969.3 716 OFFCURVE",
"911.38 712 OFFCURVE",
"877.38 712 CURVE SMOOTH",
"727.38 712 LINE",
"714.68 670 OFFCURVE",
"708.07 637 OFFCURVE",
"698.83 584 CURVE",
"782.44 552 OFFCURVE",
"802.66 436 OFFCURVE",
"773.57 336 CURVE SMOOTH",
"718.09 152 OFFCURVE",
"599.46 28 OFFCURVE",
"468.46 28 CURVE SMOOTH",
"337.46 28 OFFCURVE",
"290.09 152 OFFCURVE",
"345.57 336 CURVE SMOOTH",
"374.66 436 OFFCURVE",
"461.29 599 OFFCURVE",
"553.98 589 CURVE",
"580.29 651 OFFCURVE",
"586.68 670 OFFCURVE",
"599.38 712 CURVE",
"435.38 712 LINE SMOOTH",
"397.38 712 OFFCURVE",
"368.61 713 OFFCURVE",
"346.38 712 CURVE",
"318.45 617 LINE",
"349.83 610 OFFCURVE",
"388.45 604 OFFCURVE",
"434.06 598 CURVE",
"385.36 556 OFFCURVE",
"305.28 521 OFFCURVE",
"250.57 336 CURVE SMOOTH",
"182.47 106 OFFCURVE",
"260.3 -42 OFFCURVE",
"448.3 -42 CURVE SMOOTH",
"636.3 -42 OFFCURVE",
"800.47 106 OFFCURVE",
"868.57 336 CURVE SMOOTH",
"924.97 524 OFFCURVE",
"875.36 556 OFFCURVE",
"830.06 598 CURVE",
"916.29 612 OFFCURVE",
"920.29 612 OFFCURVE",
"956.45 617 CURVE"
);
}
);
width = 795;
}
);
note = uni01B1;
unicode = 01B1;
},
{
glyphname = Uring;
layers = (
{
layerId = "4FCB07EB-01E7-4D87-AA20-FCB2BF85BBFF";
paths = (
{
closed = 1;
nodes = (
"620.24 863 OFFCURVE",
"669.17 906 OFFCURVE",
"685.4 959 CURVE SMOOTH",
"701.41 1011 OFFCURVE",
"677.33 1054 OFFCURVE",
"631.33 1054 CURVE SMOOTH",
"585.33 1054 OFFCURVE",
"536.4 1011 OFFCURVE",
"520.4 959 CURVE SMOOTH",
"504.16 906 OFFCURVE",
"528.24 863 OFFCURVE",
"574.24 863 CURVE SMOOTH"
);
},
{
closed = 1;
nodes = (
"564.94 918 OFFCURVE",
"544.17 919 OFFCURVE",
"560.41 972 CURVE SMOOTH",
"569.1 1001 OFFCURVE",
"596.65 1025 OFFCURVE",
"622.65 1025 CURVE SMOOTH",
"648.65 1025 OFFCURVE",
"662.11 1001 OFFCURVE",
"653.41 972 CURVE SMOOTH",
"637.17 919 OFFCURVE",
"616.94 918 OFFCURVE",
"590.94 918 CURVE SMOOTH"
);
},
{
closed = 1;
nodes = (
"259.26 274 LINE SMOOTH",
"182.77 -14 OFFCURVE",
"260.77 -14 OFFCURVE",
"429.77 -14 CURVE SMOOTH",
"596.77 -14 OFFCURVE",
"671.77 -14 OFFCURVE",
"770.26 274 CURVE SMOOTH",
"926.3 729 LINE",
"807.3 729 LINE",
"708.72 354 LINE SMOOTH",
"652.78 142 OFFCURVE",
"591.78 142 OFFCURVE",
"476.78 142 CURVE SMOOTH",
"360.78 142 OFFCURVE",
"298.78 142 OFFCURVE",
"368.72 354 CURVE SMOOTH",
"493.3 729 LINE",
"380.3 729 LINE"
);
}
);
width = 701;
}
);
note = Uring;
unicode = 016E;
},
{
glyphname = Utilde;
layers = (
{
layerId = "4FCB07EB-01E7-4D87-AA20-FCB2BF85BBFF";
paths = (
{
closed = 1;
nodes = (
"581.54 821 LINE",
"593.47 864 OFFCURVE",
"613.01 927 OFFCURVE",
"648.78 926 CURVE SMOOTH",
"682.55 925 OFFCURVE",
"669.77 822 OFFCURVE",
"735.54 821 CURVE SMOOTH",
"784.31 820 OFFCURVE",
"813.46 825 OFFCURVE",
"858.17 971 CURVE",
"817.17 971 LINE",
"800.86 922 OFFCURVE",
"795.08 871 OFFCURVE",
"749.08 871 CURVE SMOOTH",
"709.08 871 OFFCURVE",
"722.17 971 OFFCURVE",
"662.17 971 CURVE SMOOTH",
"597.17 971 OFFCURVE",
"573.55 938 OFFCURVE",
"531.54 821 CURVE"
);
},
{
closed = 1;
nodes = (
"252.25 274 LINE SMOOTH",
"175.76 -14 OFFCURVE",
"254.76 -14 OFFCURVE",
"423.76 -14 CURVE SMOOTH",
"590.76 -14 OFFCURVE",
"664.76 -14 OFFCURVE",
"763.25 274 CURVE SMOOTH",
"919.29 729 LINE",
"800.29 729 LINE",
"700.71 354 LINE SMOOTH",
"644.77 142 OFFCURVE",
"584.77 142 OFFCURVE",
"469.77 142 CURVE SMOOTH",
"353.77 142 OFFCURVE",
"292.77 142 OFFCURVE",
"362.71 354 CURVE SMOOTH",
"486.29 729 LINE",
"373.29 729 LINE"
);
}
);
width = 701;
}
);
note = Utilde;
unicode = 0168;
},
{
glyphname = V;
layers = (
{
layerId = "4FCB07EB-01E7-4D87-AA20-FCB2BF85BBFF";
paths = (
{
closed = 1;
nodes = (
"533 0 LINE",
"967.3 729 LINE",
"873.3 729 LINE",
"520.4 214 LINE",
"477.4 214 LINE",
"449.3 729 LINE",
"355.3 729 LINE",
"346 0 LINE"
);
}
);
width = 766;
}
);
note = V;
unicode = 0056;
},
{
glyphname = Gammaafrican;
layers = (
{
layerId = "4FCB07EB-01E7-4D87-AA20-FCB2BF85BBFF";
paths = (
{
closed = 1;
nodes = (
"938.69 800 LINE",
"922.77 783 OFFCURVE",
"925.15 789 OFFCURVE",
"911.23 772 CURVE SMOOTH",
"797.76 640 OFFCURVE",
"691.74 523 OFFCURVE",
"598.96 420 CURVE",
"578.12 516 OFFCURVE",
"555.29 625 OFFCURVE",
"532.92 749 CURVE",
"528 771 OFFCURVE",
"525.92 775 OFFCURVE",
"517.69 800 CURVE",
"371.69 800 LINE",
"377.07 780 OFFCURVE",
"387.38 738 OFFCURVE",
"391.61 726 CURVE",
"435.44 552 OFFCURVE",
"472.04 416 OFFCURVE",
"499.11 308 CURVE",
"186.54 -41 OFFCURVE",
"76.75 -196 OFFCURVE",
"428.83 -200 CURVE SMOOTH",
"730.91 -204 OFFCURVE",
"711.38 -72 OFFCURVE",
"626.42 305 CURVE",
"725.12 412 OFFCURVE",
"854.06 546 OFFCURVE",
"1017.61 713 CURVE SMOOTH",
"1026.92 723 OFFCURVE",
"1089.77 783 OFFCURVE",
"1106.69 800 CURVE"
);
},
{
closed = 1;
nodes = (
"344.06 -69 OFFCURVE",
"355.07 -4 OFFCURVE",
"525.78 194 CURVE",
"579.45 -37 OFFCURVE",
"564.45 -76 OFFCURVE",
"464.14 -73 CURVE SMOOTH"
);
}
);
width = 878;
}
);
note = uni0194;
unicode = 0194;
},
{
glyphname = Vhook;
layers = (
{
layerId = "4FCB07EB-01E7-4D87-AA20-FCB2BF85BBFF";
paths = (
{
closed = 1;
nodes = (
"908.3 729 LINE",
"926.85 818 OFFCURVE",
"878.86 922 OFFCURVE",
"717.86 922 CURVE",
"703.62 869 OFFCURVE",
"700.08 845 OFFCURVE",
"692.08 793 CURVE",
"761.08 793 OFFCURVE",
"793.85 766 OFFCURVE",
"802.3 729 CURVE",
"796.3 729 LINE",
"697.72 354 LINE SMOOTH",
"641.78 142 OFFCURVE",
"580.78 142 OFFCURVE",
"465.78 142 CURVE SMOOTH",
"349.78 142 OFFCURVE",
"287.78 142 OFFCURVE",
"357.72 354 CURVE SMOOTH",
"483.3 729 LINE",
"369.3 729 LINE",
"248.26 274 LINE SMOOTH",
"171.77 -14 OFFCURVE",
"250.77 -14 OFFCURVE",
"419.77 -14 CURVE SMOOTH",
"586.77 -14 OFFCURVE",
"661.77 -14 OFFCURVE",
"760.26 274 CURVE SMOOTH",
"915.3 729 LINE"
);
}
);
width = 701;
}
);
note = uni01B2;
unicode = 01B2;
},
{
glyphname = Vtilde;
layers = (
{
layerId = "4FCB07EB-01E7-4D87-AA20-FCB2BF85BBFF";
paths = (
{
closed = 1;
nodes = (
"573.38 712 LINE",
"585.31 755 OFFCURVE",
"604.85 818 OFFCURVE",
"640.62 817 CURVE SMOOTH",
"674.39 816 OFFCURVE",
"660.61 713 OFFCURVE",
"726.38 712 CURVE SMOOTH",
"775.15 711 OFFCURVE",
"805.3 716 OFFCURVE",
"850.01 862 CURVE",
"807.01 862 LINE",
"790.7 813 OFFCURVE",
"786.92 762 OFFCURVE",
"740.92 762 CURVE SMOOTH",
"700.92 762 OFFCURVE",
"714.01 862 OFFCURVE",
"654.01 862 CURVE SMOOTH",
"589.01 862 OFFCURVE",
"565.39 829 OFFCURVE",
"523.38 712 CURVE"
);
},
{
closed = 1;
nodes = (
"544 0 LINE",
"977.3 729 LINE",
"884.3 729 LINE",
"531.4 214 LINE",
"488.4 214 LINE",
"460.3 729 LINE",
"366.3 729 LINE",
"357 0 LINE"
);
}
);
width = 766;
}
);
note = uni1E7C;
unicode = 1E7C;
},
{
glyphname = Vturned;
layers = (
{
layerId = "4FCB07EB-01E7-4D87-AA20-FCB2BF85BBFF";
paths = (
{
closed = 1;
nodes = (
"733.61 700 LINE",
"547.61 700 LINE",
"122.31 -29 LINE",
"217.31 -29 LINE",
"551.21 486 LINE",
"594.21 486 LINE",
"641.31 -29 LINE",
"734.31 -29 LINE"
);
}
);
width = 766;
}
);
note = uni0245;
unicode = 0245;
},
{
glyphname = W;
layers = (
{
layerId = "4FCB07EB-01E7-4D87-AA20-FCB2BF85BBFF";
paths = (
{
closed = 1;
nodes = (
"290 0 LINE",
"430 0 LINE",
"680.96 394 LINE",
"686 0 LINE",
"818 0 LINE",
"1203.3 729 LINE",
"1115.3 729 LINE",
"803.25 196 LINE",
"761.36 543 LINE",
"682.36 543 LINE",
"423.56 206 LINE",
"444.3 729 LINE",
"357.3 729 LINE"
);
}
);
width = 1003;
}
);
note = W;
unicode = 0057;
},
{
glyphname = Wacute;
layers = (
{
layerId = "4FCB07EB-01E7-4D87-AA20-FCB2BF85BBFF";
paths = (
{
closed = 1;
nodes = (
"276 0 LINE",
"417 0 LINE",
"666.96 394 LINE",
"673 0 LINE",
"804 0 LINE",
"1189.3 729 LINE",
"1102.3 729 LINE",
"789.25 196 LINE",
"748.36 543 LINE",
"670.36 543 LINE",
"411.56 206 LINE",
"431.3 729 LINE",
"344.3 729 LINE"
);
},
{
closed = 1;
nodes = (
"523.46 -11 LINE",
"407.91 -165 LINE",
"477.91 -165 LINE",
"570.46 -11 LINE"
);
}
);
width = 1003;
}
);
note = Wacute;
unicode = 1E82;
},
{
glyphname = Wcircumflex;
layers = (
{
layerId = "4FCB07EB-01E7-4D87-AA20-FCB2BF85BBFF";
paths = (
{
closed = 1;
nodes = (
"829.71 917 LINE",
"770.93 853 LINE",
"610.69 722 LINE",
"659.69 722 LINE",
"820.55 821 LINE",
"922.69 722 LINE",
"973.69 722 LINE",
"890.93 853 LINE",
"874.71 917 LINE"
);
},
{
closed = 1;
nodes = (
"304 0 LINE",
"446 0 LINE",
"694.96 394 LINE",
"701 0 LINE",
"833 0 LINE",
"1217.3 729 LINE",
"1131.3 729 LINE",
"818.25 196 LINE",
"776.36 543 LINE",
"698.36 543 LINE",
"439.56 206 LINE",
"459.3 729 LINE",
"372.3 729 LINE"
);
}
);
width = 1003;
}
);
note = Wcircumflex;
unicode = 0174;
},
{
glyphname = Wdieresis;
layers = (
{
layerId = "4FCB07EB-01E7-4D87-AA20-FCB2BF85BBFF";
paths = (
{
closed = 1;
nodes = (
"661.09 871 LINE",
"630.77 770 LINE",
"722.77 770 LINE",
"754.09 871 LINE"
);
},
{
closed = 1;
nodes = (
"910.09 871 LINE",
"880.77 770 LINE",
"972.77 770 LINE",
"1002.09 871 LINE"
);
},
{
closed = 1;
nodes = (
"301 0 LINE",
"442 0 LINE",
"691.96 394 LINE",
"698 0 LINE",
"830 0 LINE",
"1214.3 729 LINE",
"1127.3 729 LINE",
"814.25 196 LINE",
"772.36 543 LINE",
"694.36 543 LINE",
"435.56 206 LINE",
"456.3 729 LINE",
"368.3 729 LINE"
);
}
);
width = 1003;
}
);
note = Wdieresis;
unicode = 1E84;
},
{
glyphname = Wgrave;
layers = (
{
layerId = "4FCB07EB-01E7-4D87-AA20-FCB2BF85BBFF";
paths = (
{
closed = 1;
nodes = (
"758.46 786 LINE",
"877 771 LINE",
"758.32 898 LINE",
"685.32 898 LINE"
);
},
{
closed = 1;
nodes = (
"303 0 LINE",
"444 0 LINE",
"694.96 394 LINE",
"700 0 LINE",
"832 0 LINE",
"1216.3 729 LINE",
"1129.3 729 LINE",
"817.25 196 LINE",
"775.36 543 LINE",
"696.36 543 LINE",
"437.56 206 LINE",
"457.3 729 LINE",
"371.3 729 LINE"
);
}
);
width = 1003;
}
);
note = Wgrave;
unicode = 1E80;
},
{
glyphname = Whook;
layers = (
{
layerId = "4FCB07EB-01E7-4D87-AA20-FCB2BF85BBFF";
paths = (
{
closed = 1;
nodes = (
"1124.69 748 OFFCURVE",
"1122.38 738 OFFCURVE",
"1121.3 729 CURVE",
"1119.3 729 LINE",
"806.25 196 LINE",
"764.36 543 LINE",
"686.36 543 LINE",
"427.56 206 LINE",
"447.3 729 LINE",
"360.3 729 LINE",
"292 0 LINE",
"434 0 LINE",
"683.96 394 LINE",
"690 0 LINE",
"821 0 LINE",
"1146.21 616 LINE",
"1170.29 599 OFFCURVE",
"1175.67 566 OFFCURVE",
"1170.36 530 CURVE SMOOTH",
"1165.05 494 OFFCURVE",
"1144.89 424 OFFCURVE",
"1133.58 388 CURVE",
"1222.44 487 LINE",
"1241.91 554 LINE SMOOTH",
"1268.92 645 OFFCURVE",
"1247.24 759 OFFCURVE",
"1128.24 759 CURVE"
);
}
);
width = 1006;
}
);
note = uni2C72;
unicode = 2C72;
},
{
glyphname = X;
layers = (
{
layerId = "4FCB07EB-01E7-4D87-AA20-FCB2BF85BBFF";
paths = (
{
closed = 1;
nodes = (
"714 0 LINE",
"593.34 361 LINE",
"908.53 730 LINE",
"828.53 730 LINE",
"564.12 451 LINE",
"471.3 729 LINE",
"389.3 729 LINE",
"479.57 362 LINE",
"138.46 2 LINE",
"285 0 LINE",
"505.33 257 LINE",
"568 0 LINE"
);
}
);
width = 732;
}
);
note = X;
unicode = 0058;
},
{
glyphname = Y;
layers = (
{
layerId = "4FCB07EB-01E7-4D87-AA20-FCB2BF85BBFF";
paths = (
{
closed = 1;
nodes = (
"426.72 250 LINE",
"352 0 LINE",
"474 0 LINE",
"548.72 250 LINE",
"908.31 729 LINE",
"811.31 729 LINE",
"521.2 356 LINE",
"452.31 729 LINE",
"355.31 729 LINE"
);
}
);
width = 707;
}
);
note = Y;
unicode = 0059;
},
{
glyphname = Yacute;
layers = (
{
layerId = "4FCB07EB-01E7-4D87-AA20-FCB2BF85BBFF";
paths = (
{
closed = 1;
nodes = (
"328.08 832 LINE",
"212.53 678 LINE",
"281.53 678 LINE",
"374.08 832 LINE"
);
},
{
closed = 1;
nodes = (
"436.71 250 LINE",
"361.99 0 LINE",
"483.99 0 LINE",
"558.71 250 LINE",
"918.3 729 LINE",
"821.3 729 LINE",
"531.19 356 LINE",
"462.3 729 LINE",
"365.3 729 LINE"
);
}
);
width = 709;
}
);
note = Yacute;
unicode = 00DD;
},
{
glyphname = Ycircumflex;
layers = (
{
layerId = "4FCB07EB-01E7-4D87-AA20-FCB2BF85BBFF";
paths = (
{
closed = 1;
nodes = (
"705.63 973 LINE",
"645.85 909 LINE",
"485.61 778 LINE",
"534.61 778 LINE",
"695.47 877 LINE",
"798.61 778 LINE",
"848.61 778 LINE",
"765.85 909 LINE",
"749.63 973 LINE"
);
},
{
closed = 1;
nodes = (
"446.71 250 LINE",
"371.99 0 LINE",
"493.99 0 LINE",
"568.71 250 LINE",
"928.3 729 LINE",
"830.3 729 LINE",
"541.19 356 LINE",
"471.3 729 LINE",
"375.3 729 LINE"
);
}
);
width = 707;
}
);
note = Ycircumflex;
unicode = 0176;
},
{
glyphname = Ydieresis;
layers = (
{
layerId = "4FCB07EB-01E7-4D87-AA20-FCB2BF85BBFF";
paths = (
{
closed = 1;
nodes = (
"536.01 927 LINE",
"505.69 826 LINE",
"598.69 826 LINE",
"629.01 927 LINE"
);
},
{
closed = 1;
nodes = (
"785.01 927 LINE",
"755.69 826 LINE",
"847.69 826 LINE",
"877.01 927 LINE"
);
},
{
closed = 1;
nodes = (
"442.71 250 LINE",
"367.99 0 LINE",
"489.99 0 LINE",
"564.71 250 LINE",
"924.3 729 LINE",
"827.3 729 LINE",
"537.19 356 LINE",
"468.3 729 LINE",
"371.3 729 LINE"
);
}
);
width = 707;
}
);
note = Ydieresis;
unicode = 0178;
},
{
glyphname = Ydotbelow;
layers = (
{
layerId = "4FCB07EB-01E7-4D87-AA20-FCB2BF85BBFF";
paths = (
{
closed = 1;
nodes = (
"413.72 250 LINE",
"339 0 LINE",
"461 0 LINE",
"535.72 250 LINE",
"895.31 729 LINE",
"798.31 729 LINE",
"508.2 356 LINE",
"439.31 729 LINE",
"342.31 729 LINE"
);
},
{
closed = 1;
nodes = (
"337.39 -59 LINE",
"307.07 -160 LINE",
"400.07 -160 LINE",
"430.39 -59 LINE"
);
}
);
width = 707;
}
);
note = uni1EF4;
unicode = 1EF4;
},
{
glyphname = Ygrave;
layers = (
{
layerId = "4FCB07EB-01E7-4D87-AA20-FCB2BF85BBFF";
paths = (
{
closed = 1;
nodes = (
"633.39 842 LINE",
"751.93 827 LINE",
"633.25 954 LINE",
"560.25 954 LINE"
);
},
{
closed = 1;
nodes = (
"444.72 250 LINE",
"370 0 LINE",
"492 0 LINE",
"566.72 250 LINE",
"926.31 729 LINE",
"829.31 729 LINE",
"539.2 356 LINE",
"470.31 729 LINE",
"373.31 729 LINE"
);
}
);
width = 707;
}
);
note = Ygrave;
unicode = 1EF2;
},
{
glyphname = Yhook;
layers = (
{
layerId = "4FCB07EB-01E7-4D87-AA20-FCB2BF85BBFF";
paths = (
{
closed = 1;
nodes = (
"911.3 729 LINE",
"908.3 729 LINE",
"888.69 748 OFFCURVE",
"860.23 759 OFFCURVE",
"823.23 759 CURVE",
"819.69 748 OFFCURVE",
"816.38 738 OFFCURVE",
"815.3 729 CURVE",
"814.3 729 LINE",
"525.19 356 LINE",
"455.3 729 LINE",
"358.3 729 LINE",
"430.71 250 LINE",
"355.99 0 LINE",
"477.99 0 LINE",
"550.71 250 LINE",
"830.59 622 LINE",
"863.13 607 OFFCURVE",
"869.82 571 OFFCURVE",
"864.35 530 CURVE SMOOTH",
"859.04 494 OFFCURVE",
"838.88 424 OFFCURVE",
"827.57 388 CURVE",
"917.43 487 LINE",
"936.9 554 LINE SMOOTH",
"954.98 615 OFFCURVE",
"950.61 687 OFFCURVE",
"910.07 728 CURVE"
);
}
);
width = 709;
}
);
note = uni01B3;
unicode = 01B3;
},
